SplineFontDB: 3.2
FontName: SeriousShannsBoldItalic
FullName: Serious Shanns Bold Italic
FamilyName: Serious Shanns Bold Italic
Weight: Bold
Copyright: https://github.com/kaBeech/serious-shanns/blob/main/LICENSE
Version: 6.0.0
ItalicAngle: -12.5
UnderlinePosition: 0
UnderlineWidth: 0
Ascent: 800
Descent: 200
InvalidEm: 0
sfntRevision: 0x00003333
LayerCount: 2
Layer: 0 0 "Back" 1
Layer: 1 0 "Fore" 0
XUID: [1021 45 630387186 10904090]
StyleMap: 0x0040
FSType: 4
OS2Version: 3
OS2_WeightWidthSlopeOnly: 0
OS2_UseTypoMetrics: 0
CreationTime: 1532631502
ModificationTime: 315532800
PfmFamily: 81
TTFWeight: 700
TTFWidth: 5
LineGap: 0
VLineGap: 0
Panose: 0 0 0 0 0 0 0 0 0 0
OS2TypoAscent: 613
OS2TypoAOffset: 0
OS2TypoDescent: -188
OS2TypoDOffset: 0
OS2TypoLinegap: 98
OS2WinAscent: 778
OS2WinAOffset: 0
OS2WinDescent: 308
OS2WinDOffset: 0
HheadAscent: 796
HheadAOffset: 0
HheadDescent: -317
HheadDOffset: 0
OS2SubXSize: 317
OS2SubYSize: 293
OS2SubXOff: 0
OS2SubYOff: 37
OS2SupXSize: 317
OS2SupYSize: 293
OS2SupXOff: 0
OS2SupYOff: 171
OS2StrikeYSize: 0
OS2StrikeYPos: 132
OS2CapHeight: 576
OS2XHeight: 485
OS2Vendor: 'NONE'
OS2CodePages: 00000001.00000000
OS2UnicodeRanges: 00000001.00000000.00000000.00000000
MarkAttachClasses: 1
DEI: 91125
LangName: 1033 "" "" "Normal" "" "" "Version 0.2.0"
Encoding: UnicodeBmp
Compacted: 1
UnicodeInterp: none
NameList: AGL For New Fonts
DisplaySize: -48
AntiAlias: 1
FitToEm: 0
WinInfo: 0 17 8
BeginPrivate: 9
BlueValues 32 [-40 -6 499 523 706 718 765 769]
OtherBlues 11 [-297 -287]
BlueScale 9 0.0291667
BlueShift 1 0
StdHW 5 [111]
StdVW 5 [118]
StemSnapH 33 [100 106 110 111 114 116 119 179]
StemSnapV 5 [118]
ForceBold 4 true
EndPrivate
BeginChars: 65537 121

StartChar: .notdef
Encoding: 65536 -1 0
Width: 670
GlyphClass: 1
Flags: W
HStem: -280 78<148.818 424.818> 683 78<352.818 628.818>
LayerCount: 2
Fore
SplineSet
57.818359375 -280 m 1
 298.818359375 761 l 1
 718.818359375 761 l 1
 478.818359375 -280 l 1
 57.818359375 -280 l 1
352.818359375 683 m 1
 148.818359375 -202 l 1
 424.818359375 -202 l 1
 628.818359375 683 l 1
 352.818359375 683 l 1
EndSplineSet
EndChar

StartChar: exclam
Encoding: 33 33 8
Width: 670
GlyphClass: 2
Flags: HMW
HStem: -36.998 179<388.26 464.593 399.26 464.593>
VStem: 340.26 309.998
LayerCount: 2
Fore
SplineSet
570.12890625 738 m 0
 568.795898438 732 559.130859375 694.668945312 541.130859375 626.001953125 c 0
 523.130859375 557.334960938 509.463867188 502.334960938 500.130859375 461.001953125 c 0
 495.463867188 441.668945312 490.963867188 421.501953125 486.630859375 400.501953125 c 0
 482.297851562 379.501953125 478.297851562 361.501953125 474.630859375 346.501953125 c 0
 470.963867188 331.501953125 468.130859375 321.168945312 466.130859375 315.501953125 c 0
 464.130859375 309.834960938 462.297851562 302.66796875 460.630859375 294.000976562 c 0
 458.963867188 285.333984375 457.130859375 277.333984375 455.130859375 270.000976562 c 0
 449.130859375 251.333984375 439.130859375 237.000976562 425.130859375 227.000976562 c 0
 411.797851562 217.66796875 397.797851562 212.66796875 383.130859375 212.000976562 c 2
 380.130859375 212.000976562 l 2
 364.797851562 212.000976562 353.46484375 217.66796875 346.131835938 229.000976562 c 0
 341.686523438 235.66796875 339.46484375 243.96484375 339.46484375 253.891601562 c 0
 339.46484375 258.854492188 340.01953125 264.223632812 341.130859375 270.000976562 c 0
 343.130859375 278.000976562 346.630859375 288.500976562 351.630859375 301.500976562 c 0
 356.630859375 314.500976562 360.130859375 324.000976562 362.130859375 330.000976562 c 0
 364.130859375 336.000976562 366.963867188 346.16796875 370.630859375 360.500976562 c 0
 374.297851562 374.833984375 377.630859375 388.666992188 380.630859375 402 c 0
 383.630859375 415.333007812 387.797851562 435.666015625 393.130859375 462.999023438 c 0
 399.130859375 494.999023438 405.463867188 525.666015625 412.130859375 554.999023438 c 0
 418.797851562 584.33203125 424.297851562 607.33203125 428.630859375 623.999023438 c 0
 432.963867188 640.666015625 438.296875 661.333007812 444.629882812 686 c 0
 450.962890625 710.666992188 455.129882812 727 457.129882812 735 c 0
 462.462890625 756.333007812 471.962890625 772.833007812 485.629882812 784.5 c 0
 499.296875 796.166992188 513.796875 802 529.129882812 802 c 2
 533.129882812 802 l 2
 547.796875 802 558.796875 796.666992188 566.129882812 786 c 0
 570.611328125 779.481445312 572.8515625 770.971679688 572.8515625 760.470703125 c 0
 572.8515625 753.787109375 571.944335938 746.296875 570.12890625 738 c 0
319.130859375 -36.998046875 m 2
 297.130859375 -36.998046875 280.797851562 -28.998046875 270.130859375 -12.998046875 c 0
 261.53515625 -0.3310546875 257.23828125 14.0234375 257.23828125 30.06640625 c 0
 257.23828125 37.666015625 258.202148438 45.64453125 260.130859375 54.001953125 c 0
 265.463867188 78.001953125 279.130859375 98.3349609375 301.130859375 115.001953125 c 0
 325.130859375 133.001953125 348.963867188 142.001953125 372.630859375 142.001953125 c 0
 396.297851562 142.001953125 413.797851562 134.001953125 425.130859375 118.001953125 c 0
 433.130859375 106.890625 437.130859375 93.927734375 437.130859375 79.11328125 c 0
 437.130859375 71.7060546875 436.130859375 63.8349609375 434.130859375 55.501953125 c 0
 428.130859375 30.501953125 415.630859375 9.6689453125 396.630859375 -6.998046875 c 0
 377.630859375 -23.6650390625 355.130859375 -33.6650390625 329.130859375 -36.998046875 c 2
 319.130859375 -36.998046875 l 2
EndSplineSet
EndChar

StartChar: quotedbl
Encoding: 34 34 9
Width: 670
GlyphClass: 2
Flags: W
LayerCount: 2
Fore
SplineSet
485.477539062 739 m 0
 484.14453125 730.333007812 481.141601562 716.333984375 476.474609375 697.000976562 c 0
 471.807617188 677.66796875 462.807617188 641.66796875 449.474609375 589.000976562 c 0
 435.474609375 533.66796875 424.474609375 495.000976562 416.474609375 473.000976562 c 0
 410.474609375 456.333984375 400.807617188 443.666992188 387.474609375 435 c 0
 375.474609375 427 363.807617188 423 352.474609375 423 c 0
 337.141601562 423 323.80859375 428 312.475585938 438 c 0
 305.942382812 444.533203125 302.67578125 452.700195312 302.67578125 462.5 c 0
 302.67578125 466.700195312 303.275390625 471.200195312 304.475585938 476 c 2
 306.475585938 482 l 2
 313.80859375 508 321.80859375 540 330.475585938 578 c 0
 333.142578125 588.666992188 335.475585938 600 337.475585938 612 c 0
 352.142578125 679.333007812 361.809570312 724.666015625 366.4765625 747.999023438 c 0
 368.4765625 756.666015625 372.143554688 764.333007812 377.4765625 771 c 0
 384.143554688 779 391.810546875 785 400.477539062 789 c 0
 410.9765625 793.083007812 421.221679688 795.125 431.209960938 795.125 c 0
 432.637695312 795.125 434.060546875 795.083007812 435.477539062 795 c 0
 444.810546875 795 452.310546875 794.166992188 457.977539062 792.5 c 0
 463.64453125 790.833007812 469.14453125 788 474.477539062 784 c 0
 479.810546875 780 483.477539062 774 485.477539062 766 c 0
 487.477539062 758 487.477539062 749 485.477539062 739 c 0
634.474609375 738.000976562 m 0
 633.141601562 731.333984375 631.807617188 725.001953125 630.474609375 719.001953125 c 0
 622.474609375 685.001953125 611.807617188 641.668945312 598.474609375 589.001953125 c 0
 584.474609375 533.668945312 573.807617188 495.001953125 566.474609375 473.001953125 c 0
 560.474609375 456.334960938 550.474609375 443.66796875 536.474609375 435.000976562 c 0
 524.474609375 427.000976562 512.474609375 423.000976562 500.474609375 423.000976562 c 0
 485.141601562 423.000976562 472.474609375 428.000976562 462.474609375 438.000976562 c 0
 455.59765625 444.877929688 452.159179688 453.565429688 452.159179688 464.0625 c 0
 452.159179688 467.811523438 452.59765625 471.791015625 453.474609375 476.000976562 c 2
 455.474609375 482.000976562 l 2
 462.141601562 504.66796875 469.141601562 532.000976562 476.474609375 564.000976562 c 0
 491.807617188 631.333984375 504.474609375 691.000976562 514.474609375 743.000976562 c 1
 514.474609375 746.000976562 l 2
 516.474609375 755.333984375 520.641601562 763.833984375 526.974609375 771.500976562 c 0
 533.307617188 779.16796875 540.807617188 785.000976562 549.474609375 789.000976562 c 0
 559.973632812 793.083984375 570.21875 795.125976562 580.20703125 795.125976562 c 0
 581.634765625 795.125976562 583.057617188 795.083984375 584.474609375 795.000976562 c 0
 593.807617188 795.000976562 601.307617188 794.16796875 606.974609375 792.500976562 c 0
 612.641601562 790.833984375 618.141601562 788.333984375 623.474609375 785.000976562 c 0
 629.474609375 781.000976562 633.307617188 774.833984375 634.974609375 766.500976562 c 0
 636.641601562 758.16796875 636.474609375 748.66796875 634.474609375 738.000976562 c 0
EndSplineSet
EndChar

StartChar: numbersign
Encoding: 35 35 10
Width: 670
GlyphClass: 2
Flags: HMW
HStem: -14 21G<167.256 174.59> 178.501 108.501<348.59 348.59> 433.002 109.002<455.586 494.586 410.586 536.586>
LayerCount: 2
Fore
SplineSet
293.58984375 431 m 1
 276.256835938 430.333007812 266.5859375 430.334960938 264.5859375 431.001953125 c 0
 247.918945312 431.001953125 235.918945312 435.334960938 228.5859375 444.001953125 c 0
 222.938476562 451.060546875 220.115234375 459.448242188 220.115234375 469.165039062 c 0
 220.115234375 473.212890625 220.60546875 477.4921875 221.5859375 482.001953125 c 2
 221.5859375 485.001953125 l 2
 224.918945312 499.001953125 232.751953125 511.334960938 245.084960938 522.001953125 c 0
 257.41796875 532.668945312 272.91796875 538.3359375 291.584960938 539.002929688 c 0
 302.251953125 539.669921875 317.584960938 540.002929688 337.584960938 540.002929688 c 1
 396.584960938 686.002929688 l 2
 407.251953125 706.669921875 419.918945312 721.002929688 434.5859375 729.002929688 c 0
 444.5859375 734.3359375 454.5859375 737.002929688 464.5859375 737.002929688 c 0
 468.5859375 737.002929688 472.918945312 736.3359375 477.5859375 735.002929688 c 0
 492.918945312 731.669921875 503.251953125 723.336914062 508.584960938 710.00390625 c 0
 510.985351562 704.404296875 512.185546875 698.204101562 512.185546875 691.404296875 c 0
 512.185546875 686.87109375 511.651367188 682.0703125 510.584960938 677.00390625 c 0
 509.251953125 671.00390625 506.918945312 665.00390625 503.5859375 659.00390625 c 2
 455.5859375 542.00390625 l 1
 536.5859375 542.00390625 l 1
 591.5859375 678.00390625 l 2
 602.252929688 699.336914062 614.919921875 714.00390625 629.586914062 722.00390625 c 0
 639.586914062 727.336914062 649.586914062 729.669921875 659.586914062 729.002929688 c 0
 664.25390625 729.002929688 668.920898438 728.669921875 673.587890625 728.002929688 c 0
 688.920898438 724.669921875 699.587890625 716.336914062 705.587890625 703.00390625 c 0
 707.98828125 697.803710938 709.188476562 692.00390625 709.188476562 685.603515625 c 0
 709.188476562 681.336914062 708.654296875 676.803710938 707.587890625 672.00390625 c 0
 706.254882812 665.336914062 703.587890625 658.336914062 699.587890625 651.00390625 c 0
 687.587890625 626.336914062 672.254882812 590.336914062 653.587890625 543.00390625 c 1
 670.254882812 542.336914062 682.921875 537.00390625 691.588867188 527.00390625 c 0
 699.921875 517.559570312 704.088867188 507.189453125 704.088867188 495.892578125 c 0
 704.088867188 493.633789062 703.921875 491.336914062 703.588867188 489.00390625 c 0
 700.255859375 473.670898438 692.422851562 460.670898438 680.08984375 450.00390625 c 0
 667.756835938 439.336914062 652.58984375 433.669921875 634.58984375 433.002929688 c 2
 633.58984375 433.002929688 l 1
 609.58984375 433.002929688 l 1
 552.58984375 286.002929688 l 1
 577.58984375 286.002929688 l 2
 595.58984375 286.002929688 607.256835938 281.3359375 612.58984375 272.002929688 c 0
 616.14453125 265.78125 617.922851562 258.522460938 617.922851562 250.2265625 c 0
 617.922851562 246.078125 617.477539062 241.669921875 616.588867188 237.002929688 c 2
 616.588867188 236.002929688 l 2
 613.255859375 220.002929688 606.922851562 207.669921875 597.58984375 199.002929688 c 0
 585.58984375 186.3359375 570.58984375 180.002929688 552.58984375 180.002929688 c 2
 510.58984375 180.002929688 l 1
 482.58984375 109.3359375 462.922851562 60.6689453125 451.58984375 34.001953125 c 0
 440.922851562 16.6689453125 426.922851562 3.3359375 409.58984375 -5.9970703125 c 0
 399.390625 -11.396484375 390.000976562 -14.0966796875 381.421875 -14.0966796875 c 0
 380.467773438 -14.0966796875 379.524414062 -14.0634765625 378.590820312 -13.9970703125 c 0
 373.2578125 -13.9970703125 368.2578125 -13.330078125 363.590820312 -11.9970703125 c 0
 349.590820312 -8.6640625 340.590820312 1.6689453125 336.590820312 19.001953125 c 0
 334.590820312 28.3349609375 334.923828125 37.66796875 337.590820312 47.0009765625 c 0
 339.590820312 55.0009765625 342.590820312 63.333984375 346.590820312 72.0009765625 c 0
 357.923828125 96.0009765625 373.256835938 131.66796875 392.58984375 179.000976562 c 1
 381.256835938 179.000976562 366.58984375 178.833984375 348.58984375 178.500976562 c 0
 330.58984375 178.16796875 315.922851562 178.000976562 304.58984375 178.000976562 c 1
 266.58984375 88.0009765625 246.922851562 41.333984375 245.58984375 38.0009765625 c 0
 236.256835938 21.333984375 222.256835938 7.6669921875 203.58984375 -3 c 0
 190.922851562 -10.3330078125 179.58984375 -14 169.58984375 -14 c 0
 164.922851562 -14 159.922851562 -13.3330078125 154.58984375 -12 c 0
 140.58984375 -8.6669921875 132.256835938 2.3330078125 129.58984375 21 c 0
 128.256835938 30.3330078125 128.58984375 39.5 130.58984375 48.5 c 0
 132.58984375 57.5 135.922851562 66.6669921875 140.58984375 76 c 0
 148.58984375 92 163.922851562 125.666992188 186.58984375 177 c 1
 172.58984375 177 l 2
 154.58984375 177 141.58984375 181 133.58984375 189 c 0
 127.330078125 195.259765625 124.200195312 203.2578125 124.200195312 212.995117188 c 0
 124.200195312 216.739257812 124.663085938 220.741210938 125.588867188 225 c 2
 125.588867188 229 l 2
 128.921875 243 136.421875 255 148.088867188 265 c 0
 159.755859375 275 174.922851562 280.666992188 193.58984375 282 c 0
 198.922851562 282 205.58984375 282.166992188 213.58984375 282.5 c 0
 221.58984375 282.833007812 227.58984375 283 231.58984375 283 c 2
 293.58984375 431 l 1
494.5859375 433.001953125 m 1
 410.5859375 433.001953125 l 1
 349.5859375 287.001953125 l 1
 435.5859375 287.001953125 l 1
 455.5859375 334.334960938 475.252929688 383.001953125 494.5859375 433.001953125 c 1
EndSplineSet
EndChar

StartChar: dollar
Encoding: 36 36 11
Width: 670
GlyphClass: 2
Flags: HMW
HStem: 623.002 101
VStem: 526.361 117.492
LayerCount: 2
Fore
SplineSet
336.850585938 -130 m 0
 322.517578125 -140 307.026367188 -144.999023438 290.359375 -144.999023438 c 2
 289.359375 -144.999023438 l 2
 272.692382812 -144.999023438 261.359375 -138.999023438 255.359375 -126.999023438 c 0
 252.63671875 -121.943359375 251.275390625 -115.866210938 251.275390625 -108.767578125 c 0
 251.275390625 -103.698242188 251.969726562 -98.1083984375 253.358398438 -91.998046875 c 0
 254.025390625 -88.6650390625 255.525390625 -82.83203125 257.858398438 -74.4990234375 c 0
 260.19140625 -66.166015625 264.024414062 -51.9990234375 269.357421875 -31.9990234375 c 1
 247.357421875 -31.33203125 226.357421875 -27.9990234375 206.357421875 -21.9990234375 c 0
 187.690429688 -16.666015625 171.690429688 -8.666015625 158.357421875 2.0009765625 c 0
 133.024414062 22.0009765625 117.024414062 46.0009765625 110.357421875 74.0009765625 c 0
 108.833007812 82.3818359375 108.071289062 90.3271484375 108.071289062 97.8369140625 c 0
 108.071289062 103.469726562 108.5 108.857421875 109.357421875 114.000976562 c 0
 110.024414062 118.000976562 111.357421875 121.66796875 113.357421875 125.000976562 c 0
 120.024414062 139.66796875 131.024414062 150.66796875 146.357421875 158.000976562 c 0
 155.024414062 162.000976562 161.857421875 164.500976562 166.857421875 165.500976562 c 0
 171.857421875 166.500976562 175.857421875 167.000976562 178.857421875 167.000976562 c 2
 187.357421875 167.000976562 l 2
 194.690429688 166.333984375 200.857421875 163.000976562 205.857421875 157.000976562 c 0
 210.857421875 151.000976562 215.357421875 143.333984375 219.357421875 134.000976562 c 0
 227.357421875 115.333984375 238.024414062 100.666992188 251.357421875 90 c 0
 262.690429688 81.3330078125 277.690429688 76.3330078125 296.357421875 75 c 1
 320.357421875 174.333007812 341.690429688 263.666015625 360.357421875 342.999023438 c 1
 358.357421875 342.999023438 354.690429688 343.666015625 349.357421875 344.999023438 c 0
 346.024414062 345.666015625 341.357421875 345.999023438 335.357421875 345.999023438 c 0
 310.024414062 348.666015625 288.357421875 355.333007812 270.357421875 366 c 0
 253.690429688 376.666992188 240.857421875 389.333984375 231.857421875 404.000976562 c 0
 222.857421875 418.66796875 217.024414062 434.500976562 214.357421875 451.500976562 c 0
 213.291015625 458.30078125 212.756835938 465.07421875 212.756835938 471.8203125 c 0
 212.756835938 481.940429688 213.95703125 492.000976562 216.357421875 502.000976562 c 0
 222.357421875 526.66796875 231.524414062 550.334960938 243.857421875 573.001953125 c 0
 256.190429688 595.668945312 272.0234375 616.8359375 291.356445312 636.502929688 c 0
 310.689453125 656.169921875 334.356445312 673.002929688 362.356445312 687.002929688 c 0
 389.0234375 699.669921875 417.356445312 709.002929688 447.356445312 715.002929688 c 1
 450.689453125 728.3359375 454.689453125 744.002929688 459.356445312 762.002929688 c 0
 467.356445312 794.002929688 482.356445312 814.3359375 504.356445312 823.002929688 c 0
 511.689453125 825.669921875 520.356445312 827.002929688 530.356445312 827.002929688 c 0
 551.0234375 827.002929688 564.356445312 820.002929688 570.356445312 806.002929688 c 0
 572.869140625 800.259765625 574.125976562 793.645507812 574.125976562 786.163085938 c 0
 574.125976562 779.748046875 573.203125 772.694335938 571.356445312 765.001953125 c 0
 566.689453125 745.001953125 563.356445312 731.334960938 561.356445312 724.001953125 c 1
 575.356445312 722.668945312 593.689453125 719.001953125 616.356445312 713.001953125 c 0
 638.356445312 707.668945312 655.356445312 702.668945312 667.356445312 698.001953125 c 0
 680.689453125 692.668945312 689.022460938 683.668945312 692.35546875 671.001953125 c 0
 695.022460938 661.668945312 695.35546875 652.001953125 693.35546875 642.001953125 c 0
 692.688476562 638.668945312 691.688476562 635.001953125 690.35546875 631.001953125 c 0
 687.022460938 621.001953125 681.522460938 613.001953125 673.85546875 607.001953125 c 0
 666.188476562 601.001953125 658.021484375 597.334960938 649.354492188 596.001953125 c 0
 645.354492188 595.334960938 641.6875 595.001953125 638.354492188 595.001953125 c 0
 635.021484375 595.001953125 631.354492188 595.168945312 627.354492188 595.501953125 c 0
 623.354492188 595.834960938 618.6875 597.001953125 613.354492188 599.001953125 c 0
 606.6875 600.334960938 599.020507812 603.001953125 590.353515625 607.001953125 c 0
 574.353515625 615.668945312 556.686523438 621.001953125 537.353515625 623.001953125 c 1
 521.353515625 558.334960938 506.020507812 497.001953125 491.353515625 439.001953125 c 1
 518.020507812 434.334960938 542.353515625 427.334960938 564.353515625 418.001953125 c 0
 584.353515625 408.001953125 600.020507812 396.001953125 611.353515625 382.001953125 c 0
 622.686523438 368.001953125 631.01953125 352.168945312 636.352539062 334.501953125 c 0
 641.372070312 317.873046875 643.881835938 301.245117188 643.881835938 284.616210938 c 0
 643.881835938 270.657226562 642.295898438 250.924804688 636.352539062 228.000976562 c 0
 629.01953125 196.66796875 617.01953125 167.000976562 600.352539062 139.000976562 c 0
 583.685546875 111.000976562 564.018554688 86.66796875 541.3515625 66.0009765625 c 0
 518.684570312 45.333984375 493.3515625 27.6669921875 465.3515625 13 c 0
 438.684570312 -0.3330078125 411.017578125 -11 382.350585938 -19 c 1
 374.350585938 -53 369.68359375 -76 368.350585938 -88 c 0
 361.68359375 -106 351.18359375 -120 336.850585938 -130 c 0
368.359375 585.000976562 m 0
 349.692382812 569.66796875 337.692382812 551.666992188 332.359375 531 c 0
 331.359375 526.666992188 330.859375 522.4375 330.859375 518.3125 c 0
 330.859375 505.9375 335.359375 494.5 344.359375 484 c 0
 354.359375 472 368.359375 463 386.359375 457 c 1
 396.359375 498.333007812 409.026367188 551.333007812 424.359375 616 c 1
 403.026367188 608.666992188 384.359375 598.333984375 368.359375 585.000976562 c 0
477.359375 137 m 0
 501.359375 157.666992188 516.360351562 181.33203125 522.360351562 207.999023438 c 0
 525.02734375 219.999023438 526.360351562 230.33203125 526.360351562 238.999023438 c 0
 526.360351562 248.999023438 524.02734375 259.33203125 519.360351562 269.999023438 c 0
 512.02734375 288.666015625 493.02734375 304.333007812 462.360351562 317 c 1
 444.360351562 240.333007812 432.52734375 190.5 426.860351562 167.5 c 0
 421.193359375 144.5 415.026367188 119.666992188 408.359375 93 c 1
 434.359375 105 457.359375 119.666992188 477.359375 137 c 0
EndSplineSet
EndChar

StartChar: percent
Encoding: 37 37 12
Width: 670
GlyphClass: 2
Flags: HMW
HStem: -40.0059 100.999<434.881 481.881 447.881 481.881> 158.993 98<509.881 510.878> 420 98.9951<275.207 320.88> 607.994 97.0068<330.88 386.542>
VStem: 352.881 97.998<102.993 103.993 103.993 103.993> 369.881 101.995 531.879 96.002
LayerCount: 2
Fore
SplineSet
195.374023438 491.5 m 0xf6
 193.431640625 500.612304688 192.4609375 509.959960938 192.4609375 519.541015625 c 0
 192.4609375 531.338867188 193.932617188 543.4921875 196.875976562 556 c 0
 196.875976562 556.666992188 197.208984375 557.333984375 197.875976562 558.000976562 c 0
 207.875976562 600.000976562 227.708984375 635.000976562 257.375976562 663.000976562 c 0
 287.04296875 691.000976562 323.875976562 705.000976562 367.875976562 705.000976562 c 0
 405.208984375 705.000976562 433.875976562 693.000976562 453.875976562 669.000976562 c 0
 464.54296875 656.333984375 470.54296875 640.000976562 471.875976562 620.000976562 c 0
 472.171875 616.446289062 472.3203125 612.79296875 472.3203125 609.041015625 c 0
 472.3203125 595.904296875 470.504882812 581.557617188 466.875 566.000976562 c 0
 454.875 515.333984375 432.875 477.666992188 400.875 453 c 0
 372.208007812 431 334.541015625 420 287.874023438 420 c 0
 262.541015625 420 241.874023438 426.833007812 225.874023438 440.5 c 0
 209.874023438 454.166992188 199.70703125 471.166992188 195.374023438 491.5 c 0xf6
103.875976562 -45 m 0
 96.54296875 -41 90.8798828125 -36.0048828125 86.8798828125 -30.0048828125 c 0
 82.212890625 -22.0048828125 81.212890625 -12.5048828125 83.8798828125 -1.5048828125 c 0
 86.546875 9.4951171875 92.546875 21.328125 101.879882812 33.9951171875 c 0
 121.212890625 61.9951171875 165.545898438 120.328125 234.87890625 208.995117188 c 0
 381.545898438 387.662109375 454.87890625 477.329101562 454.87890625 477.99609375 c 0
 528.211914062 567.99609375 578.544921875 632.663085938 605.877929688 671.99609375 c 0
 619.2109375 685.99609375 634.2109375 694.99609375 650.877929688 698.99609375 c 2
 664.877929688 700.99609375 l 2
 674.877929688 700.99609375 683.544921875 698.329101562 690.877929688 692.99609375 c 0
 702.911132812 686.030273438 708.927734375 676.356445312 708.927734375 663.975585938 c 0
 708.927734375 659.627929688 708.447265625 656.840820312 707.877929688 653.997070312 c 0
 705.2109375 642.6640625 698.543945312 630.331054688 687.876953125 616.998046875 c 0
 655.876953125 577.665039062 574.876953125 477.33203125 444.876953125 315.999023438 c 0
 314.209960938 154.666015625 227.54296875 45.666015625 184.875976562 -11.0009765625 c 0
 164.701171875 -37.6826171875 145.162109375 -51.0234375 126.258789062 -51.0234375 c 0
 125.797851562 -51.0234375 125.336914062 -51.015625 124.875976562 -51 c 0
 117.54296875 -51 110.54296875 -49 103.875976562 -45 c 0
367.379882812 597.495117188 m 0
 361.712890625 604.495117188 351.546875 607.994140625 336.879882812 607.994140625 c 0
 324.879882812 607.994140625 315.546875 604.327148438 308.879882812 596.994140625 c 0
 300.212890625 588.327148438 293.212890625 576.327148438 287.879882812 560.994140625 c 0
 287.879882812 559.661132812 287.546875 558.328125 286.879882812 556.995117188 c 0
 284.212890625 544.995117188 284.712890625 535.995117188 288.379882812 529.995117188 c 0
 292.046875 523.995117188 302.546875 520.328125 319.879882812 518.995117188 c 2
 320.879882812 518.995117188 l 2
 332.879882812 518.995117188 342.546875 522.328125 349.879882812 528.995117188 c 0
 358.546875 536.995117188 365.213867188 547.662109375 369.880859375 560.995117188 c 0
 369.880859375 561.662109375 370.213867188 562.662109375 370.880859375 563.995117188 c 0
 372.115234375 569.673828125 372.732421875 574.780273438 372.732421875 579.31640625 c 0
 372.732421875 587.02734375 370.948242188 593.087890625 367.379882812 597.495117188 c 0
351.380859375 33.994140625 m 0
 349.108398438 43.69140625 347.971679688 53.6630859375 347.971679688 63.9111328125 c 0
 347.971679688 76.2080078125 349.608398438 88.90234375 352.880859375 101.993164062 c 1
 352.880859375 103.993164062 l 1xfa
 362.880859375 147.993164062 383.880859375 184.493164062 415.880859375 213.493164062 c 0
 447.880859375 242.493164062 486.880859375 256.993164062 532.880859375 256.993164062 c 0
 568.213867188 256.993164062 594.880859375 244.66015625 612.880859375 219.993164062 c 0
 622.213867188 206.66015625 627.213867188 189.327148438 627.880859375 167.994140625 c 0
 627.963867188 165.993164062 628.005859375 163.966796875 628.005859375 161.9140625 c 0
 628.005859375 147.549804688 625.963867188 131.909179688 621.880859375 114.994140625 c 0
 620.547851562 108.327148438 618.880859375 101.66015625 616.880859375 94.9931640625 c 0
 604.880859375 51.66015625 585.380859375 18.3271484375 558.380859375 -5.005859375 c 0
 531.380859375 -28.3388671875 496.213867188 -40.005859375 452.880859375 -40.005859375 c 2
 447.880859375 -40.005859375 l 2
 421.880859375 -40.005859375 400.547851562 -33.005859375 383.880859375 -19.005859375 c 0
 367.213867188 -5.005859375 356.380859375 12.6611328125 351.380859375 33.994140625 c 0
481.880859375 60.9931640625 m 2
 484.877929688 60.9921875 l 2
 496.2109375 60.9921875 505.2109375 64.3251953125 511.877929688 70.9921875 c 0
 520.544921875 79.6591796875 527.211914062 91.326171875 531.87890625 105.993164062 c 1
 531.87890625 108.993164062 l 2
 533.73046875 117.880859375 534.65625 125.53515625 534.65625 131.954101562 c 0
 534.65625 137.090820312 534.063476562 141.4375 532.877929688 144.993164062 c 0
 528.877929688 154.326171875 518.877929688 158.993164062 502.877929688 158.993164062 c 0
 490.877929688 158.993164062 480.877929688 154.66015625 472.877929688 145.993164062 c 0
 463.544921875 135.993164062 456.211914062 122.66015625 450.87890625 105.993164062 c 1
 450.87890625 102.993164062 l 2
 447.545898438 89.66015625 447.712890625 79.4931640625 451.379882812 72.4931640625 c 0
 455.046875 65.4931640625 465.213867188 61.66015625 481.880859375 60.9931640625 c 2
EndSplineSet
EndChar

StartChar: ampersand
Encoding: 38 38 13
Width: 670
GlyphClass: 2
Flags: HMW
HStem: -53.9971 117.999<248.213 301.88> 633.001 103.001<456.212 500.547>
LayerCount: 2
Fore
SplineSet
573.879882812 11 m 0
 573.212890625 7.6669921875 572.212890625 4.0009765625 570.879882812 0.0009765625 c 0
 563.546875 -23.33203125 552.546875 -38.6650390625 537.879882812 -45.998046875 c 0
 525.212890625 -50.6650390625 517.212890625 -52.998046875 513.879882812 -52.998046875 c 2
 512.879882812 -52.998046875 l 2
 504.879882812 -52.998046875 496.879882812 -50.3310546875 488.879882812 -44.998046875 c 0
 474.879882812 -36.3310546875 464.879882812 -21.3310546875 458.879882812 0.001953125 c 0
 458.212890625 3.3349609375 457.045898438 10.8349609375 455.37890625 22.501953125 c 2
 451.87890625 47.001953125 l 1
 443.87890625 38.3349609375 437.711914062 31.8349609375 433.37890625 27.501953125 c 0
 429.045898438 23.1689453125 422.212890625 16.8359375 412.879882812 8.5029296875 c 0
 403.546875 0.169921875 395.713867188 -6.330078125 389.380859375 -10.9970703125 c 0
 383.047851562 -15.6640625 374.547851562 -21.1640625 363.880859375 -27.4970703125 c 0
 353.213867188 -33.830078125 343.213867188 -38.4970703125 333.880859375 -41.4970703125 c 0
 324.547851562 -44.4970703125 314.047851562 -47.330078125 302.380859375 -49.9970703125 c 0
 290.713867188 -52.6640625 278.880859375 -53.9970703125 266.880859375 -53.9970703125 c 0
 229.547851562 -53.9970703125 198.047851562 -43.830078125 172.380859375 -23.4970703125 c 0
 146.713867188 -3.1640625 129.213867188 23.6689453125 119.880859375 57.001953125 c 0
 115.041992188 74.28515625 112.622070312 92.28515625 112.622070312 111.002929688 c 0
 112.622070312 128.383789062 114.708984375 146.383789062 118.881835938 165.001953125 c 0
 132.21484375 223.001953125 153.881835938 272.668945312 183.881835938 314.001953125 c 0
 218.548828125 362.668945312 263.881835938 400.668945312 319.881835938 428.001953125 c 1
 309.881835938 455.501953125 l 2
 305.881835938 466.501953125 302.881835938 475.001953125 300.881835938 481.001953125 c 0
 298.881835938 487.001953125 296.71484375 494.834960938 294.381835938 504.501953125 c 0
 292.048828125 514.168945312 290.881835938 522.668945312 290.881835938 530.001953125 c 0
 290.881835938 550.001953125 293.21484375 569.668945312 297.881835938 589.001953125 c 0
 300.548828125 601.668945312 305.048828125 614.501953125 311.381835938 627.501953125 c 0
 317.71484375 640.501953125 326.381835938 653.668945312 337.381835938 667.001953125 c 0
 348.381835938 680.334960938 361.048828125 692.001953125 375.381835938 702.001953125 c 0
 389.71484375 712.001953125 406.881835938 720.168945312 426.881835938 726.501953125 c 0
 446.881835938 732.834960938 468.21484375 736.001953125 490.881835938 736.001953125 c 0
 510.21484375 736.001953125 528.381835938 732.668945312 545.381835938 726.001953125 c 0
 562.381835938 719.334960938 577.21484375 709.834960938 589.881835938 697.501953125 c 0
 602.548828125 685.168945312 611.048828125 668.668945312 615.381835938 648.001953125 c 0
 617.19921875 639.334960938 618.107421875 630.2578125 618.107421875 620.770507812 c 0
 618.107421875 607.633789062 616.365234375 593.7109375 612.881835938 579.001953125 c 0
 607.548828125 556.334960938 600.048828125 535.16796875 590.381835938 515.500976562 c 0
 580.71484375 495.833984375 570.21484375 479.333984375 558.881835938 466.000976562 c 0
 547.548828125 452.66796875 534.215820312 440.16796875 518.8828125 428.500976562 c 0
 503.549804688 416.833984375 490.716796875 408.000976562 480.383789062 402.000976562 c 0
 470.05078125 396.000976562 459.883789062 390.66796875 449.883789062 386.000976562 c 1
 456.55078125 366.000976562 466.55078125 340.833984375 479.883789062 310.500976562 c 0
 493.216796875 280.16796875 502.549804688 257.66796875 507.8828125 243.000976562 c 1
 510.549804688 247.000976562 514.549804688 253.16796875 519.8828125 261.500976562 c 0
 525.215820312 269.833984375 530.548828125 278.000976562 535.881835938 286.000976562 c 0
 541.21484375 294.000976562 545.547851562 300.000976562 548.880859375 304.000976562 c 0
 565.547851562 324.000976562 580.880859375 336.333984375 594.880859375 341.000976562 c 0
 600.213867188 343.000976562 605.546875 344.000976562 610.879882812 344.000976562 c 0
 619.546875 344.000976562 627.879882812 341.66796875 635.879882812 337.000976562 c 0
 647.340820312 330.366210938 653.071289062 319.091796875 653.071289062 303.178710938 c 0
 653.071289062 301.50390625 653.0078125 299.778320312 652.880859375 298.000976562 c 0
 652.880859375 294.000976562 652.213867188 290.000976562 650.880859375 286.000976562 c 0
 647.547851562 272.000976562 640.547851562 257.333984375 629.880859375 242.000976562 c 0
 625.213867188 235.333984375 613.213867188 222.166992188 593.880859375 202.5 c 0
 574.547851562 182.833007812 558.547851562 165.333007812 545.880859375 150 c 1
 549.880859375 138 555.047851562 121.166992188 561.380859375 99.5 c 0
 567.713867188 77.8330078125 571.546875 65 572.879882812 61 c 0
 575.392578125 52.384765625 576.649414062 43.576171875 576.649414062 34.57421875 c 0
 576.649414062 26.8583984375 575.7265625 19 573.879882812 11 c 0
404.879882812 572.000976562 m 0
 403.213867188 564.66796875 402.379882812 557.000976562 402.379882812 549.000976562 c 0
 402.379882812 541.001953125 403.213867188 532.668945312 404.879882812 524.001953125 c 0
 408.212890625 506.668945312 412.879882812 491.668945312 418.879882812 479.001953125 c 1
 430.212890625 482.334960938 440.212890625 486.16796875 448.879882812 490.500976562 c 0
 457.546875 494.833984375 466.379882812 500.333984375 475.379882812 507.000976562 c 0
 484.379882812 513.66796875 491.712890625 522.000976562 497.379882812 532.000976562 c 0
 503.046875 542.000976562 507.546875 554.333984375 510.879882812 569.000976562 c 0
 512.473632812 576.057617188 513.270507812 582.551757812 513.270507812 588.481445312 c 0
 513.270507812 599.916992188 510.306640625 609.256835938 504.379882812 616.500976562 c 0
 495.379882812 627.500976562 482.212890625 633.000976562 464.879882812 633.000976562 c 0
 447.546875 633.000976562 433.879882812 627.333984375 423.879882812 616.000976562 c 0
 415.879882812 606.000976562 409.546875 591.333984375 404.879882812 572.000976562 c 0
236.879882812 174.001953125 m 0
 233.947265625 161.203125 232.48046875 149.310546875 232.48046875 138.32421875 c 0
 232.48046875 121.842773438 235.780273438 107.40234375 242.380859375 95.001953125 c 0
 253.380859375 74.3349609375 270.880859375 64.001953125 294.880859375 64.001953125 c 0
 308.880859375 64.001953125 323.880859375 66.6689453125 339.880859375 72.001953125 c 0
 345.213867188 73.3349609375 351.380859375 76.3349609375 358.380859375 81.001953125 c 2
 374.880859375 92.001953125 l 2
 378.880859375 94.6689453125 383.880859375 99.001953125 389.880859375 105.001953125 c 0
 395.880859375 111.001953125 400.213867188 115.168945312 402.880859375 117.501953125 c 0
 405.547851562 119.834960938 408.880859375 123.501953125 412.880859375 128.501953125 c 0
 416.880859375 133.501953125 419.547851562 136.668945312 420.880859375 138.001953125 c 0
 416.880859375 158.001953125 412.880859375 176.001953125 408.880859375 192.001953125 c 0
 404.880859375 207.334960938 396.380859375 230.834960938 383.380859375 262.501953125 c 0
 370.380859375 294.168945312 360.880859375 318.001953125 354.880859375 334.001953125 c 1
 339.547851562 326.668945312 325.547851562 318.001953125 312.880859375 308.001953125 c 0
 298.213867188 296.001953125 286.046875 283.001953125 276.379882812 269.001953125 c 0
 266.712890625 255.001953125 258.712890625 240.334960938 252.379882812 225.001953125 c 0
 246.046875 209.668945312 240.879882812 192.668945312 236.879882812 174.001953125 c 0
EndSplineSet
EndChar

StartChar: quotesingle
Encoding: 39 39 14
Width: 670
GlyphClass: 2
Flags: W
LayerCount: 2
Fore
SplineSet
557.790039062 728 m 0
 555.790039062 719.333007812 552.790039062 705.833007812 548.790039062 687.5 c 0
 544.790039062 669.166992188 538.123046875 641.333984375 528.790039062 604.000976562 c 0
 514.123046875 546.000976562 502.790039062 506.000976562 494.790039062 484.000976562 c 0
 488.790039062 466.66796875 478.790039062 453.66796875 464.790039062 445.000976562 c 0
 452.790039062 437.66796875 441.123046875 434.000976562 429.790039062 434.000976562 c 0
 413.790039062 434.000976562 400.45703125 439.000976562 389.790039062 449.000976562 c 0
 383.256835938 455.534179688 379.990234375 463.701171875 379.990234375 473.500976562 c 0
 379.990234375 477.701171875 380.58984375 482.201171875 381.790039062 487.000976562 c 0
 381.790039062 489.000976562 382.45703125 491.000976562 383.790039062 493.000976562 c 0
 391.790039062 519.66796875 399.123046875 549.66796875 405.790039062 583.000976562 c 0
 416.45703125 630.333984375 427.124023438 680.000976562 437.791015625 732.000976562 c 1
 437.791015625 735.000976562 l 2
 439.791015625 744.333984375 443.791015625 752.666992188 449.791015625 760 c 0
 456.458007812 768.666992188 464.125 774.666992188 472.791992188 778 c 0
 484.791992188 782.666992188 496.791992188 785 508.791992188 785 c 0
 518.125 785 525.458007812 784 530.791015625 782 c 0
 536.124023438 780 541.45703125 777.333007812 546.790039062 774 c 0
 552.790039062 770 556.623046875 763.833007812 558.290039062 755.5 c 0
 559.95703125 747.166992188 559.790039062 738 557.790039062 728 c 0
EndSplineSet
EndChar

StartChar: parenleft
Encoding: 40 40 15
Width: 670
GlyphClass: 2
Flags: HMW
HStem: -144 109<375.999 430.662> 721 105<589.666 630.665>
LayerCount: 2
Fore
SplineSet
457.994140625 -93 m 0
 454.661132812 -107.666992188 446.666015625 -119.833007812 433.999023438 -129.5 c 0
 421.33203125 -139.166992188 409.33203125 -144 397.999023438 -144 c 0
 353.999023438 -144 317.999023438 -127 289.999023438 -93 c 0
 261.999023438 -59 243.83203125 -13 235.499023438 45 c 0
 231.844726562 70.4375 230.016601562 97.5419921875 230.016601562 126.314453125 c 0
 230.016601562 163.14453125 233.01171875 202.706054688 239 245 c 0
 241.666992188 265.666992188 246.666992188 291.5 254 322.5 c 0
 261.333007812 354.166992188 272 392.666992188 286 438 c 0
 310.666992188 517.333007812 338 582.333007812 368 633 c 0
 381.333007812 656.333007812 397.666015625 679 416.999023438 701 c 0
 436.33203125 723 456.999023438 743.5 478.999023438 762.5 c 0
 500.999023438 781.5 524.83203125 796.833007812 550.499023438 808.5 c 0
 576.166015625 820.166992188 599.999023438 826 621.999023438 826 c 0
 639.33203125 826 650.999023438 820.333007812 656.999023438 809 c 0
 659.721679688 803.944335938 661.083007812 797.75390625 661.083007812 790.428710938 c 0
 661.083007812 785.197265625 660.388671875 779.387695312 659 773 c 0
 655 755 646.666992188 741.666992188 634 733 c 0
 622.666992188 725 610.166992188 721 596.5 721 c 0
 582.833007812 721 568.666015625 716.5 553.999023438 707.5 c 0
 539.33203125 698.5 525.33203125 685.666992188 511.999023438 669 c 0
 484.666015625 637 460.666015625 597.333007812 439.999023438 550 c 0
 423.999023438 514.666992188 407.666015625 468 390.999023438 410 c 0
 382.33203125 379.333007812 375.165039062 351.833007812 369.498046875 327.5 c 0
 363.831054688 303.166992188 359.6640625 281.666992188 356.997070312 263 c 0
 351.854492188 228.713867188 349.283203125 195.286132812 349.283203125 162.71484375 c 0
 349.283203125 157.286132812 349.354492188 151.880859375 349.497070312 146.5 c 0
 350.497070312 108.833007812 354.6640625 76.8330078125 361.997070312 50.5 c 0
 369.330078125 24.1669921875 378.663085938 3 389.99609375 -13 c 0
 400.663085938 -27 411.663085938 -34.3330078125 422.99609375 -35 c 0
 438.329101562 -35 449.162109375 -39.3330078125 455.495117188 -48 c 0
 459.141601562 -52.990234375 460.963867188 -60.0791015625 460.963867188 -69.2666015625 c 0
 460.963867188 -76.0380859375 459.974609375 -83.94921875 457.994140625 -93 c 0
EndSplineSet
EndChar

StartChar: parenright
Encoding: 41 41 16
Width: 670
GlyphClass: 2
Flags: HMW
HStem: -144 108.998<217.233 221.9> 721 105<393.567 434.233>
VStem: 478.9 108.999
LayerCount: 2
Fore
SplineSet
199.900390625 -144 m 0
 188.567382812 -144 178.568359375 -139.169921875 169.901367188 -129.502929688 c 0
 163.641601562 -122.520507812 160.51171875 -114.234375 160.51171875 -104.64453125 c 0
 160.51171875 -100.95703125 160.974609375 -97.076171875 161.900390625 -93.001953125 c 0
 166.567382812 -71.6689453125 174.400390625 -56.6689453125 185.400390625 -48.001953125 c 0
 196.400390625 -39.3349609375 209.567382812 -35.001953125 224.900390625 -35.001953125 c 0
 236.233398438 -35.001953125 250.56640625 -27.6689453125 267.899414062 -13.001953125 c 0
 286.56640625 2.998046875 305.56640625 24.1650390625 324.899414062 50.498046875 c 0
 344.232421875 76.8310546875 363.232421875 108.998046875 381.899414062 146.998046875 c 0
 400.56640625 184.998046875 416.233398438 223.665039062 428.900390625 262.998046875 c 0
 434.900390625 282.998046875 440.567382812 304.831054688 445.900390625 328.498046875 c 0
 451.233398438 352.165039062 456.900390625 379.33203125 462.900390625 409.999023438 c 0
 473.567382812 468.666015625 478.900390625 515.333007812 478.900390625 550 c 0
 478.93359375 552.333984375 478.950195312 554.65234375 478.950195312 556.953125 c 0
 478.950195312 600.65234375 472.93359375 638.333984375 460.900390625 670 c 0
 454.900390625 686 446.733398438 698.5 436.400390625 707.5 c 0
 426.067382812 716.5 414.067382812 721 400.400390625 721 c 0
 386.733398438 721 375.900390625 725 367.900390625 733 c 0
 361.970703125 738.9296875 359.005859375 747.043945312 359.005859375 757.342773438 c 0
 359.005859375 762.096679688 359.63671875 767.315429688 360.900390625 773 c 0
 362.900390625 783 366.567382812 792 371.900390625 800 c 0
 377.233398438 808 383.56640625 814 390.899414062 818 c 0
 400.899414062 823.333007812 411.56640625 826 422.899414062 826 c 0
 445.56640625 826 466.899414062 820.166992188 486.899414062 808.5 c 0
 506.899414062 796.833007812 523.56640625 781.5 536.899414062 762.5 c 0
 550.232421875 743.5 561.399414062 723 570.399414062 701 c 0
 579.399414062 679 585.232421875 656.333007812 587.899414062 633 c 0
 589.9765625 615.231445312 591.014648438 595.825195312 591.014648438 574.78125 c 0
 591.014648438 535.030273438 587.309570312 489.436523438 579.899414062 438 c 0
 573.232421875 392 566.232421875 353.5 558.899414062 322.5 c 0
 551.56640625 291.5 544.56640625 265.666992188 537.899414062 245 c 0
 513.899414062 169.666992188 484.232421875 103 448.899414062 45 c 0
 413.56640625 -13 374.233398438 -59 330.900390625 -93 c 0
 287.567382812 -127 243.900390625 -144 199.900390625 -144 c 0
EndSplineSet
EndChar

StartChar: asterisk
Encoding: 42 42 17
Width: 670
GlyphClass: 2
Flags: HMW
HStem: 281.001 127.999<202.601 238.602> 289 119.001<596.934 626.6> 294 101.001
LayerCount: 2
Fore
SplineSet
274.6015625 102 m 2x20
 265.600585938 102.000976562 l 2
 261.600585938 102.000976562 256.43359375 102.66796875 250.100585938 104.000976562 c 0
 243.767578125 105.333984375 237.934570312 108.166992188 232.6015625 112.5 c 0
 227.268554688 116.833007812 222.935546875 122.833007812 219.602539062 130.5 c 0
 216.26953125 138.166992188 215.26953125 147.333984375 216.602539062 158.000976562 c 0
 216.602539062 160.000976562 216.935546875 162.66796875 217.602539062 166.000976562 c 0
 219.602539062 176.66796875 224.602539062 186.66796875 232.602539062 196.000976562 c 2
 303.602539062 285.000976562 l 1
 262.935546875 282.333984375 232.268554688 281.000976562 211.6015625 281.000976562 c 0
 193.6015625 281.000976562 180.6015625 287.66796875 172.6015625 301.000976562 c 0
 167.83984375 309.572265625 165.458984375 319.1640625 165.458984375 329.775390625 c 0
 165.458984375 334.020507812 165.83984375 338.4296875 166.6015625 343.000976562 c 2
 166.6015625 346.000976562 l 2
 169.268554688 359.333984375 175.935546875 372.666992188 186.602539062 386 c 0
 192.602539062 394 200.602539062 400 210.602539062 404 c 0
 217.935546875 407.333007812 225.935546875 409 234.602539062 409 c 2
 238.602539062 409 l 1
 239.602539062 409 l 2x80
 264.26953125 407 298.26953125 404.333007812 341.602539062 401 c 1
 328.935546875 439.666992188 317.935546875 470 308.602539062 492 c 0
 305.3203125 501.026367188 303.6796875 510.177734375 303.6796875 519.456054688 c 0
 303.6796875 525.254882812 304.3203125 531.102539062 305.602539062 537 c 0
 306.26953125 539.666992188 307.26953125 542.333984375 308.602539062 545.000976562 c 0
 315.26953125 563.66796875 325.602539062 576.66796875 339.602539062 584.000976562 c 0
 348.935546875 589.333984375 358.768554688 592.000976562 369.1015625 592.000976562 c 0
 379.434570312 592.000976562 388.934570312 589.000976562 397.6015625 583.000976562 c 0
 406.934570312 576.333984375 412.934570312 566.333984375 415.6015625 553.000976562 c 0
 418.268554688 539.000976562 425.935546875 507.333984375 438.602539062 458.000976562 c 1
 465.26953125 492.66796875 487.602539062 524.000976562 505.602539062 552.000976562 c 0
 514.26953125 564.66796875 524.26953125 574.16796875 535.602539062 580.500976562 c 0
 546.935546875 586.833984375 557.268554688 590.000976562 566.6015625 590.000976562 c 0
 576.6015625 590.000976562 584.934570312 587.333984375 591.6015625 582.000976562 c 0
 598.268554688 578.000976562 603.1015625 571.333984375 606.1015625 562.000976562 c 0
 607.689453125 557.059570312 608.484375 551.745117188 608.484375 546.055664062 c 0
 608.484375 541 607.856445312 535.647460938 606.6015625 530.000976562 c 0
 603.934570312 516.66796875 597.267578125 504.334960938 586.600585938 493.001953125 c 0
 563.267578125 466.334960938 537.600585938 433.66796875 509.600585938 395.000976562 c 1x20
 552.93359375 395.66796875 584.266601562 399.000976562 603.599609375 405.000976562 c 0
 612.266601562 407.000976562 617.93359375 408.000976562 620.600585938 408.000976562 c 0x40
 632.600585938 408.000976562 641.93359375 403.66796875 648.600585938 395.000976562 c 0x20
 656.100585938 385.500976562 659.850585938 375.4375 659.850585938 364.8125 c 0
 659.850585938 361.270507812 659.43359375 357.666992188 658.600585938 354 c 0
 655.267578125 339.333007812 648.600585938 325.333007812 638.600585938 312 c 0
 632.600585938 304 625.267578125 297.666992188 616.600585938 293 c 0
 610.600585938 290.333007812 604.600585938 289 598.600585938 289 c 0x40
 595.267578125 289 591.934570312 289.333007812 588.6015625 290 c 0
 573.934570312 292.666992188 546.934570312 294 507.6015625 294 c 2
 486.6015625 294 l 1
 517.6015625 196 l 2
 519.453125 187.852539062 520.37890625 180.116210938 520.37890625 172.791992188 c 0
 520.37890625 166.931640625 519.786132812 161.333984375 518.600585938 156 c 0
 517.93359375 153.333007812 516.93359375 150.666015625 515.600585938 147.999023438 c 0
 510.267578125 132.666015625 501.267578125 121.333007812 488.600585938 114 c 0
 477.93359375 108 466.266601562 105 453.599609375 105 c 0
 443.599609375 105 434.266601562 107.333007812 425.599609375 112 c 0
 414.266601562 118 408.266601562 128 407.599609375 142 c 0
 406.266601562 164 400.599609375 194.666992188 390.599609375 234 c 1
 356.599609375 184.666992188 334.599609375 151.666992188 324.599609375 135 c 0
 319.266601562 124.333007812 311.93359375 116.333007812 302.600585938 111 c 0
 293.267578125 105.666992188 283.934570312 102.666992188 274.6015625 102 c 2x20
EndSplineSet
EndChar

StartChar: plus
Encoding: 43 43 18
Width: 670
GlyphClass: 2
Flags: HMW
HStem: 346 106<548.682 554.682 548.682 548.682>
LayerCount: 2
Fore
SplineSet
458.682617188 348 m 1
 436.685546875 250 l 2
 432.018554688 230.666992188 424.518554688 217 414.185546875 209 c 0
 403.852539062 201 392.01953125 196.333007812 378.686523438 195 c 2
 377.686523438 195 l 2
 363.01953125 195 352.01953125 199 344.686523438 207 c 0
 338.747070312 212.939453125 335.77734375 220.903320312 335.77734375 230.892578125 c 0
 335.77734375 236.599609375 336.747070312 242.96875 338.686523438 249.999023438 c 2
 360.686523438 344.999023438 l 1
 277.686523438 343.999023438 l 2
 259.01953125 343.999023438 246.186523438 349.33203125 239.186523438 359.999023438 c 0
 234.444335938 367.224609375 232.07421875 375.369140625 232.07421875 384.430664062 c 0
 232.07421875 388.745117188 232.611328125 393.268554688 233.686523438 398 c 0
 233.686523438 398.666992188 234.01953125 400 234.686523438 402 c 0
 238.01953125 416 245.352539062 428.333007812 256.685546875 439 c 0
 268.018554688 449.666992188 282.3515625 455 299.684570312 455 c 0
 301.017578125 455 310.850585938 454.833007812 329.18359375 454.5 c 0
 347.516601562 454.166992188 366.349609375 453.666992188 385.682617188 453 c 1
 394.349609375 492.333007812 401.016601562 525.666015625 405.68359375 552.999023438 c 0
 409.68359375 571.666015625 418.68359375 585.333007812 432.68359375 594 c 0
 442.68359375 600.666992188 454.68359375 604 468.68359375 604 c 2
 472.68359375 604 l 2
 486.016601562 604 496.349609375 600.666992188 503.682617188 594 c 0
 509.31640625 588.799804688 512.1328125 581.487304688 512.1328125 572.0625 c 0
 512.1328125 566.987304688 511.31640625 561.299804688 509.682617188 555 c 0
 509.682617188 553 509.349609375 551 508.682617188 549 c 0
 498.682617188 515 490.349609375 482.666992188 483.682617188 452 c 1
 574.682617188 452 l 2
 592.682617188 452 604.349609375 447.333007812 609.682617188 438 c 0
 613.237304688 431.778320312 615.015625 424.51953125 615.015625 416.223632812 c 0
 615.015625 412.075195312 614.5703125 407.666992188 613.681640625 403 c 2
 613.681640625 402 l 2
 612.348632812 394.666992188 610.348632812 388.166992188 607.681640625 382.5 c 0
 605.014648438 376.833007812 601.34765625 371 596.680664062 365 c 0
 591.34765625 357.666992188 584.014648438 352.666992188 574.681640625 350 c 0
 568.681640625 348 562.014648438 346.666992188 554.681640625 346 c 2
 548.681640625 346 l 2
 539.348632812 346.666992188 526.015625 347.166992188 508.682617188 347.5 c 0
 491.349609375 347.833007812 474.682617188 348 458.682617188 348 c 1
EndSplineSet
EndChar

StartChar: comma
Encoding: 44 44 19
Width: 670
GlyphClass: 2
Flags: HMW
VStem: 186.631 279.998
LayerCount: 2
Fore
SplineSet
257.626953125 -223 m 0
 246.293945312 -227 236.963867188 -228.999023438 229.630859375 -228.999023438 c 0
 222.297851562 -228.999023438 216.297851562 -227.999023438 211.630859375 -225.999023438 c 0
 204.297851562 -223.33203125 198.130859375 -218.165039062 193.130859375 -210.498046875 c 0
 188.130859375 -202.831054688 185.963867188 -193.331054688 186.630859375 -181.998046875 c 0
 186.630859375 -179.998046875 186.963867188 -177.998046875 187.630859375 -175.998046875 c 0
 189.630859375 -165.998046875 195.297851562 -155.998046875 204.630859375 -145.998046875 c 0
 221.297851562 -127.331054688 248.630859375 -84.3310546875 286.630859375 -16.998046875 c 0
 324.630859375 49.6689453125 348.963867188 96.6689453125 359.630859375 124.001953125 c 0
 364.963867188 136.001953125 372.963867188 145.501953125 383.630859375 152.501953125 c 0
 394.297851562 159.501953125 404.630859375 163.001953125 414.630859375 163.001953125 c 0
 415.297851562 163.001953125 416.297851562 163.334960938 417.630859375 164.001953125 c 0
 424.963867188 164.001953125 432.296875 163.001953125 439.629882812 161.001953125 c 0
 450.962890625 157.001953125 459.295898438 149.334960938 464.62890625 138.001953125 c 0
 467.029296875 132.40234375 468.229492188 126.202148438 468.229492188 119.40234375 c 0
 468.229492188 114.869140625 467.6953125 110.068359375 466.62890625 105.001953125 c 0
 465.961914062 100.334960938 464.62890625 96.66796875 462.62890625 94.0009765625 c 0
 448.62890625 61.333984375 423.62890625 10.333984375 387.62890625 -58.9990234375 c 0
 350.961914062 -128.33203125 324.794921875 -171.33203125 309.127929688 -187.999023438 c 0
 293.4609375 -204.666015625 276.293945312 -216.333007812 257.626953125 -223 c 0
EndSplineSet
EndChar

StartChar: hyphen
Encoding: 45 45 20
Width: 670
GlyphClass: 2
Flags: HMW
HStem: 230.001 111.999<274.695 323.695> 234.501 109
VStem: 243.028 313.001<285 296.001>
LayerCount: 2
Fore
SplineSet
306.028320312 342 m 0xa0
 341.361328125 342 383.529296875 342.500976562 432.529296875 343.500976562 c 0
 481.529296875 344.500976562 509.362304688 345.000976562 516.029296875 345.000976562 c 0
 534.029296875 345.000976562 545.862304688 340.333984375 551.529296875 331.000976562 c 0
 555.3828125 324.654296875 557.309570312 317.229492188 557.309570312 308.724609375 c 0
 557.309570312 304.72265625 556.8828125 300.481445312 556.029296875 296.000976562 c 1
 555.029296875 295.000976562 l 1
 551.696289062 279.000976562 545.696289062 266.66796875 537.029296875 258.000976562 c 0
 525.029296875 245.333984375 510.029296875 239.000976562 492.029296875 239.000976562 c 0
 484.029296875 239.000976562 452.529296875 237.500976562 397.529296875 234.500976562 c 0x60
 342.529296875 231.500976562 304.029296875 230.000976562 282.029296875 230.000976562 c 0
 267.362304688 230.000976562 256.6953125 234.000976562 250.028320312 242.000976562 c 0
 244.098632812 248.38671875 241.133789062 257.11328125 241.133789062 268.1796875 c 0
 241.133789062 273.288085938 241.764648438 278.89453125 243.028320312 285 c 0
 243.028320312 286.333007812 243.361328125 288 244.028320312 290 c 0
 248.028320312 308.666992188 256.6953125 322.666992188 270.028320312 332 c 0
 280.028320312 338.666992188 292.028320312 342 306.028320312 342 c 0xa0
EndSplineSet
EndChar

StartChar: period
Encoding: 46 46 21
Width: 670
GlyphClass: 2
Flags: HMW
HStem: -26 178.002<310.56 386.893 321.56 386.893>
VStem: 261.56 175.5
LayerCount: 2
Fore
SplineSet
321.559570312 -26 m 2
 299.559570312 -26 282.892578125 -18 271.559570312 -2 c 0
 262.963867188 10.6669921875 258.666992188 24.71484375 258.666992188 40.14453125 c 0
 258.666992188 47.453125 259.630859375 55.072265625 261.559570312 63.0009765625 c 0
 267.559570312 87.66796875 281.559570312 108.334960938 303.559570312 125.001953125 c 0
 327.559570312 143.001953125 351.392578125 152.001953125 375.059570312 152.001953125 c 0
 398.7265625 152.001953125 416.2265625 144.001953125 427.559570312 128.001953125 c 0
 435.7109375 116.680664062 439.786132812 103.514648438 439.786132812 88.5029296875 c 0
 439.786132812 81.4130859375 438.876953125 73.9130859375 437.059570312 66.0009765625 c 0
 431.392578125 41.333984375 418.892578125 20.6669921875 399.559570312 4 c 0
 380.2265625 -12.6669921875 357.559570312 -22.6669921875 331.559570312 -26 c 2
 321.559570312 -26 l 2
EndSplineSet
EndChar

StartChar: slash
Encoding: 47 47 22
Width: 670
GlyphClass: 2
Flags: HMW
HStem: 746 20G<688.093 698.093>
LayerCount: 2
Fore
SplineSet
146.091796875 -67 m 0
 136.091796875 -71 126.760742188 -73.16796875 118.09375 -73.5009765625 c 0
 109.426757812 -73.833984375 102.09375 -71.333984375 96.09375 -66.0009765625 c 0
 87.560546875 -59.6015625 83.2939453125 -48.5078125 83.2939453125 -32.7216796875 c 0
 83.2939453125 -28.775390625 83.560546875 -24.53515625 84.09375 -20.0009765625 c 0
 84.09375 -16.66796875 84.7607421875 -13.0009765625 86.09375 -9.0009765625 c 0
 90.09375 8.33203125 98.09375 24.9990234375 110.09375 40.9990234375 c 0
 237.426757812 200.999023438 347.759765625 342.999023438 441.092773438 466.999023438 c 0
 499.092773438 542.999023438 561.759765625 629.666015625 629.092773438 726.999023438 c 0
 637.759765625 739.666015625 648.092773438 749.333007812 660.092773438 756 c 0
 672.092773438 762.666992188 683.092773438 766 693.092773438 766 c 0
 703.092773438 766 712.42578125 763.666992188 721.092773438 759 c 0
 733.759765625 751 740.426757812 739 741.09375 723 c 0
 741.09375 718.333007812 740.426757812 713.333007812 739.09375 708 c 0
 736.426757812 696.666992188 730.759765625 684.333984375 722.092773438 671.000976562 c 0
 698.092773438 636.333984375 633.42578125 552.500976562 528.092773438 419.500976562 c 0
 422.759765625 286.500976562 358.092773438 204.000976562 334.092773438 172.000976562 c 0
 319.42578125 151.333984375 295.258789062 116.333984375 261.591796875 67.0009765625 c 0
 227.924804688 17.66796875 207.091796875 -12.33203125 199.091796875 -22.9990234375 c 0
 183.091796875 -43.666015625 165.424804688 -58.3330078125 146.091796875 -67 c 0
EndSplineSet
EndChar

StartChar: zero
Encoding: 48 48 23
Width: 670
GlyphClass: 2
Flags: HMW
HStem: -24 107.996<287.542 338.21> 611.997 106.003<459.877 532.544>
LayerCount: 2
Fore
SplineSet
682.2109375 491 m 0
 681.543945312 488.333007812 681.54296875 487.999023438 682.209960938 489.999023438 c 1
 676.209960938 450.666015625 668.54296875 410.666015625 659.209960938 369.999023438 c 0
 649.876953125 329.33203125 639.376953125 289.33203125 627.709960938 249.999023438 c 0
 616.04296875 210.666015625 604.875976562 179.666015625 594.208984375 156.999023438 c 0
 573.541992188 114.33203125 551.541992188 79.6650390625 528.208984375 52.998046875 c 0
 516.875976562 39.6650390625 504.54296875 28.33203125 491.209960938 18.9990234375 c 0
 477.876953125 9.666015625 464.876953125 2.3330078125 452.209960938 -3 c 0
 438.876953125 -8.3330078125 423.876953125 -13 407.209960938 -17 c 0
 390.54296875 -20.3330078125 374.375976562 -22.3330078125 358.708984375 -23 c 0
 343.041992188 -23.6669921875 324.875 -24 304.208007812 -24 c 0
 270.875 -24 241.208007812 -18.3330078125 215.208007812 -7 c 0
 191.208007812 4.3330078125 172.208007812 20.5 158.208007812 41.5 c 0
 144.208007812 62.5 135.708007812 87.6669921875 132.708007812 117 c 0
 131.889648438 125 131.48046875 133.173828125 131.48046875 141.520507812 c 0
 131.48046875 163.779296875 134.389648438 187.272460938 140.208007812 212 c 0
 140.208007812 214 140.541015625 216 141.208007812 218 c 0
 148.541015625 250 155.541015625 280.666992188 162.208007812 310 c 0
 166.875 330.666992188 173.041992188 356 180.708984375 386 c 0
 188.375976562 416 195.54296875 440.833007812 202.209960938 460.5 c 0
 208.876953125 480.166992188 217.209960938 501.333984375 227.209960938 524.000976562 c 0
 237.209960938 547.333984375 247.209960938 567.666992188 257.209960938 585 c 0
 283.209960938 628.333007812 317.876953125 661.333007812 361.209960938 684 c 0
 407.876953125 706.666992188 460.209960938 718 518.209960938 718 c 0
 546.876953125 718 572.876953125 713.333007812 596.209960938 704 c 0
 618.876953125 694.666992188 637.543945312 680.666992188 652.2109375 662 c 0
 666.877929688 643.333007812 676.877929688 619.5 682.2109375 590.5 c 0
 684.876953125 576 686.2109375 560.458007812 686.2109375 543.875 c 0
 686.2109375 527.291015625 684.876953125 509.666015625 682.2109375 491 c 0
527.209960938 599.999023438 m 0
 514.2109375 608.046875 498.912109375 612.068359375 481.315429688 612.068359375 c 0
 479.959960938 612.068359375 478.591796875 612.044921875 477.209960938 611.997070312 c 0
 442.54296875 611.997070312 413.709960938 602.830078125 390.709960938 584.497070312 c 0
 367.709960938 566.1640625 345.876953125 534.997070312 325.209960938 490.997070312 c 0
 317.209960938 473.6640625 309.876953125 455.331054688 303.209960938 435.998046875 c 0
 297.209960938 416.665039062 291.54296875 393.998046875 286.209960938 367.998046875 c 0
 276.876953125 327.998046875 266.876953125 281.665039062 256.209960938 228.998046875 c 1
 362.876953125 339.665039062 462.876953125 453.33203125 556.209960938 569.999023438 c 1
 548.876953125 582.666015625 539.209960938 592.666015625 527.209960938 599.999023438 c 0
567.209960938 457.997070312 m 1
 469.876953125 330.6640625 366.876953125 221.99609375 258.209960938 131.99609375 c 1
 267.54296875 100.663085938 291.209960938 84.6630859375 329.209960938 83.99609375 c 0
 347.209960938 83.99609375 363.04296875 85.49609375 376.709960938 88.49609375 c 0
 390.376953125 91.49609375 403.876953125 96.3291015625 417.209960938 102.99609375 c 0
 443.876953125 116.99609375 467.876953125 143.99609375 489.209960938 183.99609375 c 0
 493.209960938 191.99609375 500.876953125 213.329101562 512.209960938 247.99609375 c 0
 523.54296875 282.663085938 535.209960938 323.330078125 547.209960938 369.997070312 c 0
 555.209960938 400.6640625 561.876953125 429.997070312 567.209960938 457.997070312 c 1
EndSplineSet
EndChar

StartChar: one
Encoding: 49 49 24
Width: 670
GlyphClass: 2
Flags: HMW
HStem: -9 111 -5 114<126.364 176.363>
LayerCount: 2
Fore
SplineSet
95.033203125 33 m 0x40
 95.033203125 38 96.033203125 43 97.033203125 49 c 0
 97.033203125 50 97.033203125 52 98.033203125 53 c 0
 101.033203125 68 108.033203125 80 117.033203125 91 c 0
 129.033203125 103 144.033203125 109 163.033203125 109 c 0x40
 190.033203125 109 236.033203125 108 301.033203125 107 c 1
 306.033203125 126 309.033203125 143 311.033203125 157 c 0
 312.033203125 163 315.033203125 180 322.033203125 208 c 0
 328.033203125 233 333.033203125 254 338.033203125 271 c 2
 366.033203125 379 l 2
 393.033203125 480 409.033203125 539 414.033203125 556 c 1
 367.033203125 526 333.033203125 507 310.033203125 499 c 0
 302.033203125 497 297.033203125 496 294.033203125 496 c 0
 283.033203125 496 272.033203125 501 263.033203125 511 c 0
 254.033203125 521 249.033203125 532 249.033203125 542 c 0
 249.033203125 545 250.033203125 548 251.033203125 552 c 0
 254.033203125 565 259.033203125 577 267.033203125 587 c 0
 275.033203125 597 286.033203125 607 300.033203125 616 c 0
 321.033203125 630 348.033203125 649 383.033203125 672 c 1
 395.033203125 674 409.033203125 683 424.033203125 699 c 0
 436.033203125 707 449.033203125 714 462.033203125 721 c 0
 474.033203125 727 484.033203125 730 493.033203125 730 c 2
 496.033203125 730 l 2
 513.033203125 730 529.033203125 723 544.033203125 710 c 0
 552.033203125 703 557.033203125 696 560.033203125 690 c 0
 561.033203125 688 562.033203125 686 562.033203125 683 c 0
 562.033203125 672 554.033203125 643 519.033203125 514 c 0
 495.033203125 424 481.033203125 371 477.033203125 356 c 0
 462.033203125 294 451.033203125 242 442.033203125 200 c 2
 442.033203125 200 441.033203125 198 441.033203125 195 c 0
 436.033203125 173 430.033203125 142 422.033203125 103 c 1
 455.033203125 102 476.033203125 102 485.033203125 102 c 2
 520.033203125 102 l 2
 535.033203125 102 544.033203125 101 548.033203125 101 c 0
 569.033203125 101 582.033203125 97 589.033203125 87 c 0
 594.033203125 80 596.033203125 71 596.033203125 62 c 0
 596.033203125 58 596.033203125 54 595.033203125 50 c 0
 595.033203125 49 595.033203125 48 594.033203125 47 c 0
 591.033203125 32 583.033203125 19 572.033203125 8 c 0
 560.033203125 -3 543.033203125 -9 522.033203125 -9 c 0x80
 287.033203125 -7 158.033203125 -6 135.033203125 -5 c 0
 118.033203125 -5 106.033203125 0 100.033203125 11 c 0
 97.033203125 18 95.033203125 25 95.033203125 33 c 0x40
EndSplineSet
EndChar

StartChar: two
Encoding: 50 50 25
Width: 670
GlyphClass: 2
Flags: HMW
HStem: -20.0059 113.005 -12.0059 113.006<528.61 528.61 528.61 534.604> 506.997 21G<280.269 283.602> 612.996 109.001<487.272 496.604>
LayerCount: 2
Fore
SplineSet
528.610351562 101 m 1x70
 529.603515625 100.993164062 l 1
 538.270507812 109.66015625 544.603515625 109.993164062 548.603515625 101.993164062 c 0
 550.603515625 101.993164062 554.270507812 101.826171875 559.603515625 101.493164062 c 0
 564.936523438 101.16015625 568.936523438 100.16015625 571.603515625 98.4931640625 c 0
 574.270507812 96.826171875 576.9375 94.9931640625 579.604492188 92.9931640625 c 0
 583.604492188 90.326171875 586.271484375 86.326171875 587.604492188 80.9931640625 c 0
 588.9375 72.9931640625 588.604492188 63.66015625 586.604492188 52.9931640625 c 0
 581.9375 33.66015625 573.604492188 17.3271484375 561.604492188 3.994140625 c 0
 551.604492188 -6.6728515625 540.604492188 -12.005859375 528.604492188 -12.005859375 c 0x70
 485.271484375 -12.005859375 414.271484375 -14.005859375 315.604492188 -18.005859375 c 0
 282.271484375 -19.3388671875 248.271484375 -20.005859375 213.604492188 -20.005859375 c 0
 181.604492188 -20.005859375 156.604492188 -18.6728515625 138.604492188 -16.005859375 c 0
 128.604492188 -14.6728515625 120.9375 -10.33984375 115.604492188 -3.0068359375 c 0
 111.604492188 2.326171875 108.9375 9.326171875 107.604492188 17.9931640625 c 0
 107.16015625 21.8447265625 106.9375 26.0263671875 106.9375 30.5361328125 c 0
 106.9375 46.322265625 109.66015625 66.140625 115.104492188 89.9931640625 c 0
 122.104492188 120.66015625 135.271484375 151.493164062 154.604492188 182.493164062 c 0
 173.9375 213.493164062 198.604492188 243.66015625 228.604492188 272.993164062 c 0
 258.604492188 302.326171875 292.271484375 325.993164062 329.604492188 343.993164062 c 0
 410.9375 382.66015625 463.604492188 409.327148438 487.604492188 423.994140625 c 0
 517.604492188 442.661132812 538.271484375 462.328125 549.604492188 482.995117188 c 0
 556.271484375 495.662109375 561.604492188 511.329101562 565.604492188 529.99609375 c 0
 567.754882812 539.458007812 568.830078125 548.053710938 568.830078125 555.78125 c 0
 568.830078125 572.010742188 564.087890625 584.415039062 554.604492188 592.99609375 c 0
 539.9375 606.329101562 514.604492188 612.99609375 478.604492188 612.99609375 c 0
 454.604492188 612.99609375 429.771484375 605.663085938 404.104492188 590.99609375 c 0
 378.4375 576.329101562 357.270507812 559.99609375 340.603515625 541.99609375 c 0
 331.936523438 532.663085938 323.76953125 524.830078125 316.102539062 518.497070312 c 0
 308.435546875 512.1640625 300.602539062 508.6640625 292.602539062 507.997070312 c 0
 290.602539062 507.997070312 287.602539062 507.6640625 283.602539062 506.997070312 c 0
 276.935546875 506.997070312 267.935546875 510.330078125 256.602539062 516.997070312 c 0
 244.602539062 524.997070312 238.26953125 536.330078125 237.602539062 550.997070312 c 0
 237.602539062 554.330078125 237.935546875 557.997070312 238.602539062 561.997070312 c 0
 241.26953125 573.997070312 247.936523438 587.6640625 258.603515625 602.997070312 c 0
 268.603515625 616.997070312 281.603515625 630.830078125 297.603515625 644.497070312 c 0
 313.603515625 658.1640625 331.603515625 670.997070312 351.603515625 682.997070312 c 0
 372.270507812 694.997070312 395.9375 704.497070312 422.604492188 711.497070312 c 0
 449.271484375 718.497070312 474.938476562 721.997070312 499.60546875 721.997070312 c 0
 576.272460938 721.997070312 629.60546875 704.997070312 659.60546875 670.997070312 c 0
 678.5859375 648.997070312 688.076171875 619.87890625 688.076171875 583.643554688 c 0
 688.076171875 563.87890625 685.252929688 541.997070312 679.60546875 517.997070312 c 0
 666.272460938 462.6640625 641.939453125 417.331054688 606.606445312 381.998046875 c 0
 580.606445312 357.331054688 537.2734375 330.331054688 476.606445312 300.998046875 c 0
 461.2734375 293.665039062 434.940429688 281.665039062 397.607421875 264.998046875 c 0
 366.274414062 250.998046875 338.94140625 233.831054688 315.608398438 213.498046875 c 0
 292.275390625 193.165039062 273.942382812 172.33203125 260.609375 150.999023438 c 0
 249.276367188 132.999023438 240.276367188 113.666015625 233.609375 92.9990234375 c 1xb0
 269.609375 91.666015625 303.942382812 90.8330078125 336.609375 90.5 c 0
 343.138671875 90.43359375 349.388671875 90.400390625 355.359375 90.400390625 c 0
 379.2578125 90.400390625 398.674804688 90.93359375 413.610351562 92 c 0
 431.610351562 93.3330078125 469.943359375 96.3330078125 528.610351562 101 c 1x70
EndSplineSet
EndChar

StartChar: three
Encoding: 51 51 26
Width: 670
GlyphClass: 2
Flags: HMW
HStem: -23.998 107.998<302.704 363.04> 306 125<350.373 356.039> 521.001 21G<285.707 292.374> 613 109.001<449.375 517.374>
VStem: 553.374 115<522.002 538.333>
LayerCount: 2
Fore
SplineSet
622.373046875 279.5 m 0
 622.833984375 274.501953125 623.065429688 269.318359375 623.065429688 263.948242188 c 0
 623.065429688 246.037109375 620.499023438 226.055664062 615.370117188 204.000976562 c 0
 599.370117188 134.000976562 565.703125 78.333984375 514.370117188 37.0009765625 c 0
 463.196289062 -3.67578125 398.140625 -24.013671875 319.202148438 -24.013671875 c 0
 317.928710938 -24.013671875 316.651367188 -24.0087890625 315.370117188 -23.998046875 c 0
 290.037109375 -23.998046875 265.704101562 -20.3310546875 242.37109375 -12.998046875 c 0
 219.038085938 -5.6650390625 200.205078125 3.66796875 185.872070312 15.0009765625 c 0
 171.5390625 26.333984375 159.706054688 39.0009765625 150.373046875 53.0009765625 c 0
 140.373046875 67.0009765625 133.706054688 80.833984375 130.373046875 94.5009765625 c 0
 128.521484375 102.092773438 127.595703125 109.427734375 127.595703125 116.504882812 c 0
 127.595703125 122.16796875 128.188476562 127.666992188 129.374023438 133.000976562 c 0
 130.041015625 137.000976562 131.374023438 141.000976562 133.374023438 145.000976562 c 0
 140.041015625 161.000976562 151.041015625 172.66796875 166.374023438 180.000976562 c 0
 177.70703125 185.333984375 187.70703125 188 196.374023438 188 c 0
 215.041015625 188 229.374023438 177.333984375 239.374023438 156.000976562 c 0
 248.70703125 137.333984375 262.540039062 120.666992188 280.873046875 106 c 0
 299.206054688 91.3330078125 320.373046875 84 344.373046875 84 c 0
 381.706054688 84 414.5390625 93.8330078125 442.872070312 113.5 c 0
 471.205078125 133.166992188 489.038085938 158 496.37109375 188 c 0
 499.09375 199.278320312 500.455078125 209.592773438 500.455078125 218.942382812 c 0
 500.455078125 225.620117188 499.760742188 231.805664062 498.372070312 237.5 c 0
 495.0390625 251.166992188 487.872070312 263.166992188 476.872070312 273.5 c 0
 465.872070312 283.833007812 448.872070312 291.833007812 425.872070312 297.5 c 0
 402.872070312 303.166992188 373.705078125 306 338.372070312 306 c 0
 321.0390625 306 307.706054688 312.666992188 298.373046875 326 c 0
 291.83984375 335.333007812 288.573242188 345.483398438 288.573242188 356.450195312 c 0
 288.573242188 361.150390625 289.172851562 366 290.373046875 371 c 0
 294.373046875 387.666992188 302.040039062 401.666992188 313.373046875 413 c 0
 326.040039062 425 341.373046875 431 359.373046875 431 c 0
 414.040039062 431 458.70703125 440.666992188 493.374023438 460 c 0
 525.374023438 478 545.374023438 504 553.374023438 538 c 0
 553.374023438 538.609375 553.651367188 539.495117188 554.208007812 540.66015625 c 0
 554.2578125 541.064453125 554.3125 541.510742188 554.374023438 541.999023438 c 0
 554.374023438 543.33203125 554.70703125 544.33203125 555.374023438 544.999023438 c 0
 556.75 550.848632812 557.438476562 556.297851562 557.438476562 561.348632812 c 0
 557.438476562 575.868164062 551.75 587.0859375 540.374023438 595 c 0
 523.908203125 607.033203125 497.514648438 613.049804688 461.1953125 613.049804688 c 0
 459.282226562 613.049804688 457.342773438 613.033203125 455.375 613 c 0
 443.375 613 430.375 611 416.375 607 c 0
 412.375 605.666992188 407.375 603.166992188 401.375 599.5 c 0
 395.375 595.833007812 390.708007812 592.833007812 387.375 590.5 c 0
 384.041992188 588.166992188 379.375 584.333984375 373.375 579.000976562 c 0
 367.375 573.66796875 363.375 569.66796875 361.375 567.000976562 c 0
 354.708007812 553.66796875 350.041015625 549.000976562 347.374023438 553.000976562 c 1
 331.374023438 536.333984375 316.374023438 526.000976562 302.374023438 522.000976562 c 0
 298.374023438 521.333984375 294.373046875 521.000976562 290.373046875 521.000976562 c 0
 281.040039062 521.000976562 271.708007812 523.66796875 262.375 529.000976562 c 0
 251.575195312 535.600585938 246.174804688 545.7109375 246.174804688 559.33203125 c 0
 246.174804688 559.499023438 246.229492188 569.130859375 247.375 576.000976562 c 0
 250.041992188 588.000976562 256.375 601.000976562 266.375 615.000976562 c 0
 286.375 643.000976562 312.041992188 667.333984375 343.375 688.000976562 c 0
 360.041992188 698.66796875 380.041992188 707.000976562 403.375 713.000976562 c 0
 426.708007812 719.000976562 451.041015625 722.000976562 476.374023438 722.000976562 c 0
 558.374023438 722.000976562 615.041015625 705.66796875 646.374023438 673.000976562 c 0
 666.828125 650.728515625 677.055664062 621.482421875 677.055664062 585.262695312 c 0
 677.055664062 568.360351562 674.828125 549.939453125 670.374023438 530 c 0
 670.374023438 528.666992188 670.041015625 527.333984375 669.374023438 526.000976562 c 0
 668.70703125 524.66796875 668.374023438 523.333984375 668.374023438 522.000976562 c 0
 664.374023438 503.333984375 657.874023438 486.001953125 648.874023438 470.001953125 c 0
 639.874023438 454.001953125 629.541015625 440.334960938 617.874023438 429.001953125 c 0
 606.20703125 417.668945312 593.20703125 407.668945312 578.874023438 399.001953125 c 0
 564.541015625 390.334960938 550.041015625 383.66796875 535.374023438 379.000976562 c 1
 544.70703125 375.66796875 553.040039062 372.334960938 560.373046875 369.001953125 c 0
 577.040039062 360.334960938 591.040039062 348.66796875 602.373046875 334.000976562 c 0
 613.706054688 319.333984375 620.373046875 301.166992188 622.373046875 279.5 c 0
EndSplineSet
EndChar

StartChar: four
Encoding: 52 52 27
Width: 670
GlyphClass: 2
Flags: HMW
HStem: -23.001 21G<446.192 460.859> 218.998 90.002<407.858 408.859 408.859 450.859>
LayerCount: 2
Fore
SplineSet
407.858398438 309 m 2
 470.857421875 309 l 1
 497.524414062 424.333007812 517.19140625 517.666015625 529.858398438 588.999023438 c 1
 414.525390625 469.666015625 331.858398438 375.333007812 281.858398438 306 c 1
 316.525390625 308 358.525390625 309 407.858398438 309 c 2
512.857421875 60 m 0
 512.857421875 52 511.859375 44.33203125 509.859375 36.9990234375 c 0
 507.192382812 23.666015625 502.192382812 11.9990234375 494.859375 1.9990234375 c 0
 482.859375 -14.66796875 468.859375 -23.0009765625 452.859375 -23.0009765625 c 0
 439.526367188 -23.0009765625 427.859375 -17.833984375 417.859375 -7.5009765625 c 0
 409.526367188 1.109375 405.359375 10.068359375 405.359375 19.373046875 c 0
 405.359375 21.234375 405.526367188 23.109375 405.859375 24.998046875 c 0
 407.192382812 32.998046875 409.859375 45.6650390625 413.859375 62.998046875 c 2
 431.859375 138.998046875 l 2
 438.526367188 166.331054688 444.859375 192.998046875 450.859375 218.998046875 c 1
 408.859375 218.998046875 l 2
 316.859375 218.998046875 250.859375 214.665039062 210.859375 205.998046875 c 0
 206.192382812 205.331054688 201.359375 204.998046875 196.359375 204.998046875 c 0
 191.359375 204.998046875 186.859375 205.998046875 182.859375 207.998046875 c 0
 174.859375 211.331054688 169.026367188 216.331054688 165.359375 222.998046875 c 0
 161.692382812 229.665039062 159.525390625 237.498046875 158.858398438 246.498046875 c 0
 158.19140625 255.498046875 158.858398438 264.665039062 160.858398438 273.998046875 c 0
 163.525390625 284.665039062 167.525390625 294.665039062 172.858398438 303.998046875 c 0
 183.525390625 323.331054688 207.358398438 353.831054688 244.358398438 395.498046875 c 0
 281.358398438 437.165039062 329.19140625 488.998046875 387.858398438 550.998046875 c 0
 439.858398438 605.665039062 481.858398438 650.665039062 513.858398438 685.998046875 c 0
 525.858398438 698.665039062 538.19140625 708.33203125 550.858398438 714.999023438 c 0
 563.525390625 721.666015625 574.858398438 724.999023438 584.858398438 724.999023438 c 0
 588.19140625 724.999023438 590.524414062 725.33203125 591.857421875 725.999023438 c 0
 603.190429688 725.999023438 612.857421875 723.33203125 620.857421875 717.999023438 c 0
 630.232421875 711.749023438 634.919921875 701.397460938 634.919921875 686.9453125 c 0
 634.919921875 682.481445312 633.947265625 654.850585938 619.357421875 576.5 c 0
 610.357421875 528.166992188 602.190429688 487.666992188 594.857421875 455 c 0
 584.190429688 405.666992188 573.857421875 356.666992188 563.857421875 308 c 1
 573.190429688 308 583.5234375 307.666992188 594.856445312 307 c 0
 610.856445312 307 621.189453125 303.166992188 625.856445312 295.5 c 0
 630.5234375 287.833007812 631.5234375 278 628.856445312 266 c 0
 625.5234375 252 620.190429688 240.666992188 612.857421875 232 c 0
 602.857421875 222 589.857421875 217 573.857421875 217 c 0
 563.190429688 217 553.190429688 217.333007812 543.857421875 218 c 1
 523.190429688 126 512.857421875 73.3330078125 512.857421875 60 c 0
EndSplineSet
EndChar

StartChar: five
Encoding: 53 53 28
Width: 670
GlyphClass: 2
Flags: HMW
HStem: -18.002 109.001<304.247 332.248> 407.998 112.999<445.248 521.247> 594.998 112.999<654.579 694.242> 605.998 103.999
LayerCount: 2
Fore
SplineSet
232.248046875 561 m 0xd0
 238.248046875 581.666992188 242.576171875 596.997070312 245.243164062 606.997070312 c 1
 243.243164062 612.997070312 242.243164062 619.497070312 242.243164062 626.497070312 c 0
 242.243164062 633.497070312 243.243164062 640.997070312 245.243164062 648.997070312 c 0
 249.91015625 670.330078125 259.91015625 686.997070312 275.243164062 698.997070312 c 0
 285.91015625 707.6640625 297.243164062 711.997070312 309.243164062 711.997070312 c 0
 332.576171875 711.997070312 389.909179688 711.330078125 481.2421875 709.997070312 c 0xd0
 574.575195312 708.6640625 643.575195312 707.997070312 688.2421875 707.997070312 c 0
 700.2421875 707.997070312 708.575195312 702.6640625 713.2421875 691.997070312 c 0
 716.6171875 684.497070312 718.3046875 676.047851562 718.3046875 666.649414062 c 0
 718.3046875 659.33984375 717.284179688 651.456054688 715.2421875 642.998046875 c 0
 710.575195312 623.665039062 702.2421875 610.665039062 690.2421875 603.998046875 c 0
 686.909179688 601.998046875 683.576171875 600.165039062 680.243164062 598.498046875 c 0
 676.91015625 596.831054688 672.577148438 595.831054688 667.244140625 595.498046875 c 0
 661.911132812 595.165039062 658.078125 594.998046875 655.745117188 594.998046875 c 0xe0
 653.412109375 594.998046875 650.079101562 595.165039062 645.74609375 595.498046875 c 0
 641.413085938 595.831054688 638.580078125 595.998046875 637.247070312 595.998046875 c 0
 628.580078125 595.998046875 612.580078125 597.331054688 589.247070312 599.998046875 c 0
 565.247070312 601.998046875 543.9140625 603.498046875 525.247070312 604.498046875 c 0
 506.580078125 605.498046875 481.247070312 605.998046875 449.247070312 605.998046875 c 0
 417.247070312 605.998046875 384.9140625 604.998046875 352.247070312 602.998046875 c 1
 338.247070312 552.998046875 329.9140625 522.998046875 327.247070312 512.998046875 c 0
 324.580078125 500.998046875 322.580078125 492.331054688 321.247070312 486.998046875 c 0
 319.9140625 481.665039062 318.247070312 474.665039062 316.247070312 465.998046875 c 1
 336.247070312 479.331054688 359.247070312 490.6640625 385.247070312 499.997070312 c 0
 422.580078125 513.997070312 462.580078125 520.997070312 505.247070312 520.997070312 c 0
 537.247070312 520.997070312 564.580078125 515.330078125 587.247070312 503.997070312 c 0
 607.9140625 491.997070312 623.747070312 475.997070312 634.747070312 455.997070312 c 0
 645.747070312 435.997070312 652.247070312 412.830078125 654.247070312 386.497070312 c 0
 654.67578125 380.854492188 654.889648438 375.112304688 654.889648438 369.271484375 c 0
 654.889648438 347.850585938 652.008789062 325.092773438 646.247070312 300.997070312 c 0
 634.9140625 251.6640625 618.581054688 206.831054688 597.248046875 166.498046875 c 0
 575.915039062 126.165039062 551.248046875 92.498046875 523.248046875 65.498046875 c 0
 495.248046875 38.498046875 463.248046875 17.6650390625 427.248046875 2.998046875 c 0
 390.581054688 -11.001953125 352.248046875 -18.001953125 312.248046875 -18.001953125 c 0
 281.581054688 -18.001953125 253.9140625 -14.6689453125 229.247070312 -8.001953125 c 0
 204.580078125 -1.3349609375 185.247070312 7.33203125 171.247070312 17.9990234375 c 0
 157.247070312 28.666015625 146.247070312 40.3330078125 138.247070312 53 c 0
 130.247070312 65.6669921875 124.247070312 79 120.247070312 93 c 0
 118.9140625 100.666015625 118.247070312 107.916015625 118.247070312 114.75 c 0
 118.247070312 121.583007812 118.9140625 128 120.247070312 134 c 0
 120.9140625 138 121.9140625 142 123.247070312 146 c 0
 129.9140625 160.666992188 141.247070312 172 157.247070312 180 c 0
 165.9140625 183.333007812 172.747070312 185.666015625 177.747070312 186.999023438 c 0
 182.747070312 188.33203125 186.747070312 188.999023438 189.747070312 188.999023438 c 0
 192.747070312 188.999023438 195.580078125 188.666015625 198.247070312 187.999023438 c 0
 206.247070312 187.33203125 212.580078125 183.665039062 217.247070312 176.998046875 c 0
 221.247070312 171.665039062 225.580078125 164.33203125 230.247070312 154.999023438 c 0
 248.247070312 112.33203125 280.747070312 90.9990234375 327.747070312 90.9990234375 c 0
 374.747070312 90.9990234375 415.9140625 108.33203125 451.247070312 142.999023438 c 0
 487.9140625 178.999023438 513.581054688 227.666015625 528.248046875 288.999023438 c 0
 531.768554688 304.166015625 533.529296875 318.01171875 533.529296875 330.538085938 c 0
 533.529296875 348.844726562 529.768554688 364.33203125 522.248046875 376.998046875 c 0
 510.248046875 397.665039062 487.248046875 407.998046875 453.248046875 407.998046875 c 0
 437.248046875 407.998046875 419.915039062 405.998046875 401.248046875 401.998046875 c 0
 391.915039062 399.998046875 378.58203125 395.331054688 361.249023438 387.998046875 c 0
 357.249023438 386.665039062 351.749023438 383.498046875 344.749023438 378.498046875 c 0
 337.749023438 373.498046875 332.916015625 369.998046875 330.249023438 367.998046875 c 0
 317.58203125 358.665039062 307.249023438 350.665039062 299.249023438 343.998046875 c 0
 281.916015625 331.331054688 263.916015625 323.998046875 245.249023438 321.998046875 c 2
 238.249023438 321.998046875 l 2
 229.58203125 321.998046875 221.249023438 323.998046875 213.249023438 327.998046875 c 0
 201.249023438 333.998046875 194.58203125 346.665039062 193.249023438 365.998046875 c 0
 192.916015625 370.165039062 192.749023438 374.581054688 192.749023438 379.248046875 c 0
 192.749023438 393.248046875 194.249023438 409.498046875 197.249023438 427.999023438 c 0
 199.249023438 438.666015625 201.58203125 449.333007812 204.249023438 460 c 0
 209.58203125 483.333007812 218.915039062 517 232.248046875 561 c 0xd0
EndSplineSet
EndChar

StartChar: six
Encoding: 54 54 29
Width: 670
GlyphClass: 2
Flags: HMW
HStem: -22.0029 108<305.297 352.964> 379.997 114.001<418.963 504.297>
LayerCount: 2
Fore
SplineSet
647.963867188 361 m 0
 648.31640625 355.471679688 648.493164062 349.787109375 648.493164062 343.948242188 c 0
 648.493164062 316.689453125 644.649414062 286.038085938 636.962890625 251.998046875 c 0
 628.295898438 213.998046875 613.962890625 178.331054688 593.962890625 144.998046875 c 0
 553.962890625 76.3310546875 500.629882812 27.6640625 433.962890625 -1.0029296875 c 0
 398.629882812 -15.0029296875 362.962890625 -22.0029296875 326.962890625 -22.0029296875 c 0
 283.629882812 -22.0029296875 247.296875 -14.0029296875 217.963867188 1.9970703125 c 0
 189.963867188 17.9970703125 169.963867188 41.1640625 157.963867188 71.4970703125 c 0
 146.288085938 101.010742188 140.450195312 134.943359375 140.450195312 173.293945312 c 0
 140.450195312 204.677734375 143.879882812 248.9375 156.963867188 306.997070312 c 0
 170.963867188 366.997070312 188.630859375 420.497070312 209.963867188 467.497070312 c 0
 231.296875 514.497070312 254.963867188 553.830078125 280.963867188 585.497070312 c 0
 306.963867188 617.1640625 336.296875 643.997070312 368.963867188 665.997070312 c 0
 403.630859375 687.997070312 439.130859375 704.497070312 475.463867188 715.497070312 c 0
 511.796875 726.497070312 550.963867188 733.6640625 592.963867188 736.997070312 c 2
 602.963867188 736.997070312 l 2
 616.963867188 736.997070312 628.630859375 734.330078125 637.963867188 728.997070312 c 0
 649.424804688 722.362304688 655.155273438 712.1796875 655.155273438 698.44921875 c 0
 655.155273438 695.75390625 655.155273438 692.376953125 653.96484375 689.998046875 c 0
 651.96484375 679.998046875 644.96484375 669.665039062 632.96484375 658.998046875 c 0
 620.297851562 648.331054688 607.297851562 641.331054688 593.96484375 637.998046875 c 0
 585.96484375 635.998046875 573.797851562 633.331054688 557.46484375 629.998046875 c 0
 541.131835938 626.665039062 527.46484375 623.665039062 516.46484375 620.998046875 c 0
 505.46484375 618.331054688 492.297851562 614.331054688 476.96484375 608.998046875 c 0
 447.631835938 598.331054688 415.631835938 577.998046875 380.96484375 547.998046875 c 0
 363.631835938 531.998046875 345.298828125 510.331054688 325.965820312 482.998046875 c 0
 317.298828125 468.998046875 309.631835938 455.998046875 302.96484375 443.998046875 c 1
 322.297851562 456.665039062 343.630859375 466.665039062 366.963867188 473.998046875 c 0
 404.963867188 487.331054688 445.296875 493.998046875 487.963867188 493.998046875 c 0
 520.630859375 493.998046875 548.963867188 489.331054688 572.963867188 479.998046875 c 0
 594.963867188 470.665039062 612.463867188 456.33203125 625.463867188 436.999023438 c 0
 638.463867188 417.666015625 645.963867188 392.333007812 647.963867188 361 c 0
307.962890625 94.9970703125 m 0
 320.629882812 88.9970703125 334.963867188 85.9970703125 350.963867188 85.9970703125 c 2
 352.963867188 85.9970703125 l 1
 353.963867188 85.9970703125 l 2
 375.963867188 85.9970703125 398.963867188 93.6640625 422.963867188 108.997070312 c 0
 446.963867188 124.330078125 467.796875 143.997070312 485.463867188 167.997070312 c 0
 503.130859375 191.997070312 514.630859375 215.997070312 519.963867188 239.997070312 c 0
 525.889648438 265.181640625 528.852539062 286.6796875 528.852539062 304.490234375 c 0
 528.852539062 326.75390625 524.22265625 343.255859375 514.962890625 353.997070312 c 0
 506.962890625 363.997070312 496.795898438 370.830078125 484.462890625 374.497070312 c 0
 472.129882812 378.1640625 455.629882812 379.997070312 434.962890625 379.997070312 c 0
 402.962890625 379.997070312 371.629882812 372.330078125 340.962890625 356.997070312 c 0
 310.295898438 341.6640625 283.962890625 322.6640625 261.962890625 299.997070312 c 1
 255.962890625 274.6640625 251.629882812 253.6640625 248.962890625 236.997070312 c 0
 247.762695312 228.59765625 247.163085938 220.2578125 247.163085938 211.977539062 c 0
 247.163085938 192.657226562 250.4296875 173.6640625 256.962890625 154.997070312 c 0
 261.629882812 140.997070312 268.129882812 128.997070312 276.462890625 118.997070312 c 0
 284.795898438 108.997070312 295.295898438 100.997070312 307.962890625 94.9970703125 c 0
EndSplineSet
EndChar

StartChar: seven
Encoding: 55 55 30
Width: 670
GlyphClass: 2
Flags: HMW
HStem: -22.999 21G<160.931 168.264> 601 113.002<427.263 482.93 427.263 574.597>
LayerCount: 2
Fore
SplineSet
400.59765625 601 m 0
 339.264648438 599.666992188 299.265625 596.670898438 280.598632812 592.00390625 c 0
 276.598632812 591.336914062 272.265625 590.836914062 267.598632812 590.50390625 c 0
 262.931640625 590.170898438 258.264648438 591.00390625 253.59765625 593.00390625 c 0
 246.264648438 596.336914062 241.264648438 601.336914062 238.59765625 608.00390625 c 0
 234.71875 616.731445312 232.779296875 626.340820312 232.779296875 636.831054688 c 0
 232.779296875 640.764648438 233.051757812 644.822265625 233.59765625 649.00390625 c 1
 232.264648438 642.336914062 232.264648438 642.669921875 233.59765625 650.002929688 c 0
 236.930664062 664.002929688 243.263671875 675.669921875 252.596679688 685.002929688 c 0
 262.596679688 694.3359375 276.9296875 700.668945312 295.596679688 704.001953125 c 0
 330.9296875 710.668945312 387.9296875 714.001953125 466.596679688 714.001953125 c 0
 499.263671875 714.001953125 543.263671875 712.668945312 598.596679688 710.001953125 c 0
 651.263671875 708.001953125 678.596679688 707.001953125 680.596679688 707.001953125 c 0
 688.596679688 707.001953125 696.263671875 705.168945312 703.596679688 701.501953125 c 0
 710.9296875 697.834960938 716.9296875 692.001953125 721.596679688 684.001953125 c 0
 724.87890625 678.66796875 726.51953125 672.325195312 726.51953125 664.971679688 c 0
 726.51953125 660.375976562 725.87890625 655.38671875 724.596679688 650.001953125 c 0
 721.9296875 638.001953125 715.596679688 624.668945312 705.596679688 610.001953125 c 0
 691.596679688 590.001953125 668.763671875 560.501953125 637.096679688 521.501953125 c 0
 605.4296875 482.501953125 572.262695312 442.668945312 537.595703125 402.001953125 c 0
 501.595703125 361.334960938 456.595703125 307.16796875 402.595703125 239.500976562 c 0
 348.595703125 171.833984375 296.262695312 102.666992188 245.595703125 32 c 0
 232.262695312 12.6669921875 216.9296875 -1.666015625 199.596679688 -10.9990234375 c 0
 186.263671875 -18.9990234375 173.930664062 -22.9990234375 162.59765625 -22.9990234375 c 0
 159.264648438 -22.9990234375 155.931640625 -22.666015625 152.598632812 -21.9990234375 c 0
 136.598632812 -17.9990234375 126.931640625 -7.9990234375 123.598632812 8.0009765625 c 0
 122.265625 15.333984375 122.598632812 23.1669921875 124.598632812 31.5 c 0
 126.598632812 39.8330078125 130.598632812 49 136.598632812 59 c 0
 183.931640625 125.666992188 234.264648438 192 287.59765625 258 c 0
 342.264648438 324 387.09765625 376.5 422.09765625 415.5 c 0
 457.09765625 454.5 488.09765625 490.166992188 515.09765625 522.5 c 0
 542.09765625 554.833007812 561.930664062 581 574.59765625 601 c 1
 548.263671875 601.666015625 520.59765625 602 491.59765625 602 c 0
 462.59765625 602 432.263671875 601.666015625 400.59765625 601 c 0
EndSplineSet
EndChar

StartChar: eight
Encoding: 56 56 31
Width: 670
GlyphClass: 2
Flags: HMW
HStem: -28.0039 110.002<332.625 332.958> 621.996 96.0029<452.625 502.29 466.959 502.29>
VStem: 520.96 111.998
LayerCount: 2
Fore
SplineSet
637.953125 246 m 0
 637.286132812 234 635.625 221.329101562 632.958007812 207.99609375 c 0
 628.291015625 185.99609375 620.458007812 164.329101562 609.458007812 142.99609375 c 0
 598.458007812 121.663085938 583.958007812 100.49609375 565.958007812 79.49609375 c 0
 547.958007812 58.49609375 527.958007812 40.3291015625 505.958007812 24.99609375 c 0
 483.291015625 9.6630859375 454.958007812 -3.00390625 420.958007812 -13.00390625 c 0
 386.958007812 -23.00390625 351.458007812 -28.00390625 314.458007812 -28.00390625 c 0
 277.458007812 -28.00390625 245.625 -23.3369140625 218.958007812 -14.00390625 c 0
 192.958007812 -4.6708984375 173.125 7.49609375 159.458007812 22.49609375 c 0
 145.791015625 37.49609375 135.624023438 55.1630859375 128.95703125 75.49609375 c 0
 122.607421875 94.861328125 119.432617188 114.37890625 119.432617188 134.047851562 c 0
 119.432617188 151.06640625 121.45703125 174.37890625 127.955078125 201.997070312 c 0
 133.288085938 224.6640625 144.62109375 249.1640625 161.954101562 275.497070312 c 0
 179.287109375 301.830078125 200.954101562 326.330078125 226.954101562 348.997070312 c 0
 245.62109375 364.997070312 264.954101562 377.6640625 284.954101562 386.997070312 c 1
 263.62109375 401.6640625 247.954101562 419.997070312 237.954101562 441.997070312 c 0
 229.065429688 460.663085938 224.62109375 479.625976562 224.62109375 498.884765625 c 0
 224.62109375 508.514648438 225.732421875 518.21875 227.955078125 527.997070312 c 0
 229.955078125 536.6640625 232.788085938 545.6640625 236.455078125 554.997070312 c 0
 240.122070312 564.330078125 245.2890625 575.330078125 251.956054688 587.997070312 c 0
 258.623046875 600.6640625 266.290039062 612.831054688 274.95703125 624.498046875 c 0
 283.624023438 636.165039062 294.791015625 647.83203125 308.458007812 659.499023438 c 0
 322.125 671.166015625 336.958007812 680.999023438 352.958007812 688.999023438 c 0
 370.291015625 697.666015625 390.624023438 704.666015625 413.95703125 709.999023438 c 0
 437.290039062 715.33203125 462.290039062 717.999023438 488.95703125 717.999023438 c 0
 515.624023438 717.999023438 539.624023438 715.33203125 560.95703125 709.999023438 c 0
 582.290039062 704.666015625 599.623046875 697.666015625 612.956054688 688.999023438 c 0
 626.2890625 680.33203125 637.122070312 670.33203125 645.455078125 658.999023438 c 0
 653.788085938 647.666015625 659.62109375 636.166015625 662.954101562 624.499023438 c 0
 666.287109375 612.83203125 668.454101562 600.499023438 669.454101562 587.499023438 c 0
 669.954101562 580.999023438 670.204101562 574.916015625 670.204101562 569.249023438 c 0
 670.204101562 563.58203125 669.954101562 558.33203125 669.454101562 553.499023438 c 0
 668.454101562 543.83203125 666.787109375 534.33203125 664.454101562 524.999023438 c 0
 662.12109375 515.666015625 658.954101562 506.833007812 654.954101562 498.5 c 0
 650.954101562 490.166992188 646.62109375 482.666992188 641.954101562 476 c 0
 637.287109375 469.333007812 631.454101562 462.5 624.454101562 455.5 c 0
 617.454101562 448.5 611.12109375 442.666992188 605.454101562 438 c 0
 599.787109375 433.333007812 592.620117188 428 583.953125 422 c 0
 575.286132812 416 568.286132812 411.666992188 562.953125 409 c 0
 557.620117188 406.333007812 551.287109375 402.333007812 543.954101562 397 c 1
 559.287109375 389 572.287109375 380 582.954101562 370 c 0
 597.62109375 356 608.954101562 342.5 616.954101562 329.5 c 0
 624.954101562 316.5 630.62109375 302.333007812 633.954101562 287 c 0
 636.731445312 274.223632812 638.120117188 262.604492188 638.120117188 252.141601562 c 0
 638.120117188 250.047851562 638.064453125 248.000976562 637.953125 246 c 0
385.958984375 591.99609375 m 0
 360.625976562 571.99609375 345.293945312 549.99609375 339.9609375 525.99609375 c 0
 339.072265625 521.99609375 338.627929688 518.078125 338.627929688 514.243164062 c 0
 338.627929688 500.819335938 344.072265625 488.403320312 354.9609375 476.99609375 c 0
 370.293945312 461.663085938 397.9609375 445.663085938 437.9609375 428.99609375 c 1
 465.293945312 439.663085938 490.626953125 453.663085938 513.959960938 470.99609375 c 0
 537.29296875 488.329101562 550.625976562 503.329101562 553.958984375 515.99609375 c 0
 555.5078125 522.189453125 556.28125 528.408203125 556.28125 534.651367188 c 0
 556.28125 544.537109375 554.340820312 554.485351562 550.458984375 564.49609375 c 0
 544.125976562 580.829101562 533.625976562 594.49609375 518.958984375 605.49609375 c 0
 504.291992188 616.49609375 487.291992188 621.99609375 467.958984375 621.99609375 c 2
 466.958984375 621.99609375 l 2
 438.291992188 621.99609375 411.291992188 611.99609375 385.958984375 591.99609375 c 0
278.959960938 96.99609375 m 0
 298.29296875 86.99609375 320.291992188 81.998046875 344.958984375 81.998046875 c 0
 362.291992188 81.998046875 380.458984375 84.6650390625 399.458984375 89.998046875 c 0
 418.458984375 95.3310546875 436.291992188 102.998046875 452.958984375 112.998046875 c 0
 469.625976562 122.998046875 484.29296875 135.665039062 496.959960938 150.998046875 c 0
 508.959960938 166.331054688 516.959960938 182.998046875 520.959960938 200.998046875 c 0
 522.959960938 210.998046875 524.626953125 220.331054688 525.959960938 228.998046875 c 0
 525.959960938 237.665039062 524.459960938 247.665039062 521.459960938 258.998046875 c 0
 518.459960938 270.331054688 513.126953125 280.998046875 505.459960938 290.998046875 c 0
 497.79296875 300.998046875 486.29296875 311.331054688 470.959960938 321.998046875 c 0
 455.626953125 332.665039062 436.959960938 342.665039062 414.959960938 351.998046875 c 1
 367.626953125 339.331054688 326.626953125 318.6640625 291.959960938 289.997070312 c 0
 257.959960938 261.330078125 237.29296875 230.663085938 229.959960938 197.99609375 c 0
 228.020507812 189.99609375 227.05078125 182.260742188 227.05078125 174.790039062 c 0
 227.05078125 161.715820312 230.020507812 149.451171875 235.959960938 137.99609375 c 0
 245.959960938 119.99609375 260.29296875 106.329101562 278.959960938 96.99609375 c 0
EndSplineSet
EndChar

StartChar: nine
Encoding: 57 57 32
Width: 670
GlyphClass: 2
Flags: HMW
HStem: -22.9971 78.5 223.001 113.003<339.042 421.038> 630.004 108.995<463.706 544.71 475.039 544.71>
LayerCount: 2
Fore
SplineSet
211.044921875 -22 m 0
 207.711914062 -22 204.708007812 -22.330078125 202.041015625 -22.9970703125 c 0
 188.041015625 -22.9970703125 176.708007812 -19.9970703125 168.041015625 -13.9970703125 c 0
 157.1015625 -7.6640625 151.631835938 1.9013671875 151.631835938 14.69921875 c 0
 151.631835938 16.7197265625 151.768554688 18.8212890625 152.041015625 21.0029296875 c 2
 152.041015625 24.0029296875 l 2
 154.041015625 34.669921875 161.041015625 45.169921875 173.041015625 55.5029296875 c 0
 185.041015625 65.8359375 197.708007812 73.0029296875 211.041015625 77.0029296875 c 0
 219.041015625 79.0029296875 231.874023438 81.669921875 249.541015625 85.0029296875 c 0
 267.208007812 88.3359375 282.875 91.6689453125 296.541992188 95.001953125 c 0
 310.208984375 98.3349609375 325.375976562 102.66796875 342.04296875 108.000976562 c 0
 378.04296875 120.000976562 411.375976562 139.000976562 442.04296875 165.000976562 c 0
 462.04296875 183.000976562 481.375976562 203.66796875 500.04296875 227.000976562 c 0
 507.375976562 236.333984375 513.708984375 245.333984375 519.041992188 254.000976562 c 1
 503.708984375 246.000976562 487.375976562 239.66796875 470.04296875 235.000976562 c 0
 438.04296875 227.000976562 399.709960938 223.000976562 355.04296875 223.000976562 c 0
 323.04296875 223.000976562 294.375976562 230.333984375 269.04296875 245.000976562 c 0
 245.04296875 259.000976562 226.709960938 277.500976562 214.04296875 300.500976562 c 0
 201.375976562 323.500976562 193.04296875 350.16796875 189.04296875 380.500976562 c 0
 187.630859375 391.206054688 186.92578125 401.974609375 186.92578125 412.8046875 c 0
 186.92578125 432.66015625 189.297851562 452.725585938 194.04296875 473 c 0
 202.709960938 511 216.876953125 546.5 236.543945312 579.5 c 0
 256.2109375 612.5 279.2109375 640.666992188 305.543945312 664 c 0
 331.876953125 687.333007812 362.043945312 705.666015625 396.043945312 718.999023438 c 0
 430.7109375 732.33203125 465.7109375 738.999023438 501.043945312 738.999023438 c 0
 588.376953125 738.999023438 644.709960938 707.33203125 670.04296875 643.999023438 c 0
 681.23046875 615.231445312 686.823242188 580.717773438 686.823242188 540.45703125 c 0
 686.823242188 496.745117188 680.23046875 446.259765625 667.04296875 388.999023438 c 0
 653.709960938 331.666015625 635.876953125 280.833007812 613.543945312 236.5 c 0
 591.2109375 192.166992188 566.2109375 155 538.543945312 125 c 0
 510.876953125 95 479.043945312 69.3330078125 443.043945312 48 c 0
 406.376953125 26.6669921875 368.876953125 10.5 330.543945312 -0.5 c 0
 292.2109375 -11.5 252.377929688 -18.6669921875 211.044921875 -22 c 0
345.041015625 555.002929688 m 0
 327.708007812 532.3359375 316.372070312 509.004882812 311.0390625 485.004882812 c 0
 306.33984375 464.549804688 303.990234375 446.200195312 303.990234375 429.956054688 c 0
 303.990234375 367.850585938 338.33984375 336.532226562 407.0390625 336.00390625 c 0
 435.0390625 336.00390625 463.372070312 342.00390625 492.0390625 354.00390625 c 0
 520.706054688 366.00390625 544.706054688 381.336914062 564.0390625 400.00390625 c 0
 564.706054688 402.670898438 565.373046875 405.670898438 566.040039062 409.00390625 c 0
 570.040039062 426.336914062 574.70703125 450.00390625 580.040039062 480.00390625 c 0
 581.240234375 488.403320312 581.83984375 496.743164062 581.83984375 505.0234375 c 0
 581.83984375 524.34375 578.573242188 543.336914062 572.040039062 562.00390625 c 0
 567.373046875 576.00390625 560.873046875 588.00390625 552.540039062 598.00390625 c 0
 544.20703125 608.00390625 533.540039062 615.836914062 520.540039062 621.50390625 c 0
 507.540039062 627.170898438 493.040039062 630.00390625 477.040039062 630.00390625 c 2
 475.040039062 630.00390625 l 2
 452.373046875 630.00390625 429.373046875 623.170898438 406.040039062 609.50390625 c 0
 382.70703125 595.836914062 362.374023438 577.669921875 345.041015625 555.002929688 c 0
EndSplineSet
EndChar

StartChar: colon
Encoding: 58 58 33
Width: 670
GlyphClass: 2
Flags: HMW
HStem: 27 180.001<331.477 384.814> 295 179.001<401.149 442.482 401.149 442.482>
VStem: 283.145 216.002
LayerCount: 2
Fore
SplineSet
496.146484375 404 m 0
 491.479492188 384.666992188 484.147460938 364.66796875 474.147460938 344.000976562 c 0
 466.814453125 327.333984375 455.481445312 314.666992188 440.1484375 306 c 0
 426.815429688 298.666992188 414.815429688 295 404.1484375 295 c 2
 401.1484375 295 l 2
 383.1484375 295.666992188 369.1484375 299.666992188 359.1484375 307 c 0
 348.038085938 315.333007812 342.482421875 327.138671875 342.482421875 342.416015625 c 0
 342.482421875 345.471679688 342.705078125 348.666015625 343.149414062 352 c 0
 344.482421875 364 346.649414062 376.166992188 349.649414062 388.5 c 0
 352.649414062 400.833007812 355.649414062 412.333007812 358.649414062 423 c 0
 361.649414062 433.666992188 366.982421875 442.833984375 374.649414062 450.500976562 c 0
 382.31640625 458.16796875 390.649414062 463.66796875 399.649414062 467.000976562 c 0
 408.649414062 470.333984375 416.31640625 472.333984375 422.649414062 473.000976562 c 0
 428.982421875 473.66796875 433.815429688 474.000976562 437.1484375 474.000976562 c 0
 447.815429688 474.000976562 456.315429688 473.333984375 462.6484375 472.000976562 c 0
 468.981445312 470.66796875 475.314453125 468.000976562 481.647460938 464.000976562 c 0
 487.98046875 460.000976562 492.813476562 454.000976562 496.146484375 446.000976562 c 0
 499.479492188 438.000976562 500.479492188 428.66796875 499.146484375 418.000976562 c 0
 497.813476562 413.333984375 496.813476562 408.666992188 496.146484375 404 c 0
434.147460938 125.000976562 m 0
 430.814453125 109.000976562 424.809570312 92.333984375 416.142578125 75.0009765625 c 0
 408.142578125 58.333984375 395.809570312 46.0009765625 379.142578125 38.0009765625 c 0
 365.142578125 31.333984375 351.809570312 27.6669921875 339.142578125 27 c 0
 323.809570312 27 309.9765625 32 297.643554688 42 c 0
 287.502929688 50.2216796875 282.43359375 61.1484375 282.43359375 74.7783203125 c 0
 282.43359375 77.7255859375 282.669921875 80.7998046875 283.14453125 84 c 0
 286.477539062 102.666992188 288.477539062 113.333984375 289.14453125 116.000976562 c 0
 289.811523438 118.66796875 291.478515625 124.66796875 294.145507812 134.000976562 c 0
 296.8125 143.333984375 298.8125 150.666992188 300.145507812 156 c 0
 302.8125 166.666992188 307.979492188 175.833984375 315.646484375 183.500976562 c 0
 323.313476562 191.16796875 331.813476562 196.66796875 341.146484375 200.000976562 c 0
 355.146484375 204.66796875 367.813476562 207.000976562 379.146484375 207.000976562 c 0
 390.479492188 207.000976562 400.146484375 205.500976562 408.146484375 202.500976562 c 0
 416.146484375 199.500976562 423.479492188 193.66796875 430.146484375 185.000976562 c 0
 435.702148438 177.778320312 438.48046875 168.934570312 438.48046875 158.471679688 c 0
 438.48046875 156.379882812 438.369140625 154.22265625 438.147460938 152.000976562 c 0
 437.48046875 143.333984375 436.147460938 134.333984375 434.147460938 125.000976562 c 0
EndSplineSet
EndChar

StartChar: semicolon
Encoding: 59 59 34
Width: 670
GlyphClass: 2
Flags: HMW
HStem: 253.001 180.001<419.01 463.344>
VStem: 362.677 155.998
LayerCount: 2
Fore
SplineSet
515.674804688 363 m 0
 511.0078125 343.666992188 503.67578125 323.334960938 493.67578125 302.001953125 c 0
 486.342773438 285.334960938 475.009765625 272.66796875 459.676757812 264.000976562 c 0
 446.34375 256.66796875 434.34375 253.000976562 423.676757812 253.000976562 c 0
 414.34375 253.000976562 404.84375 255.000976562 395.176757812 259.000976562 c 0
 385.509765625 263.000976562 377.676757812 269.000976562 371.676757812 277.000976562 c 0
 365.471679688 284.8984375 362.369140625 293.989257812 362.369140625 304.274414062 c 0
 362.369140625 306.143554688 362.471679688 308.052734375 362.676757812 310.000976562 c 2
 362.676757812 311.000976562 l 2
 364.009765625 323.000976562 366.342773438 335.000976562 369.67578125 347.000976562 c 0
 373.008789062 359.000976562 376.008789062 370.333984375 378.67578125 381.000976562 c 0
 381.342773438 391.66796875 386.509765625 401.000976562 394.176757812 409.000976562 c 0
 401.84375 417.000976562 410.010742188 422.333984375 418.677734375 425.000976562 c 0
 433.344726562 429.66796875 446.677734375 432.334960938 458.677734375 433.001953125 c 0
 468.010742188 433.001953125 475.84375 432.168945312 482.176757812 430.501953125 c 0
 488.509765625 428.834960938 494.842773438 426.16796875 501.17578125 422.500976562 c 0
 507.508789062 418.833984375 512.341796875 413.000976562 515.674804688 405.000976562 c 0
 519.0078125 396.333984375 520.0078125 386.666992188 518.674804688 376 c 0
 517.341796875 372 516.341796875 367.666992188 515.674804688 363 c 0
431.67578125 79.0009765625 m 0
 431.67578125 77.0009765625 431.01171875 75 429.678710938 73 c 0
 423.01171875 51 382.678710938 -36.6669921875 308.678710938 -190 c 0
 300.678710938 -206.666992188 290.01171875 -219.333984375 276.678710938 -228.000976562 c 0
 265.678710938 -234.72265625 254.959960938 -238.083007812 244.520507812 -238.083007812 c 0
 243.5703125 -238.083007812 242.624023438 -238.055664062 241.678710938 -238 c 0
 225.678710938 -238 212.678710938 -233 202.678710938 -223 c 0
 195.801757812 -216.123046875 192.36328125 -207.435546875 192.36328125 -196.938476562 c 0
 192.36328125 -193.189453125 192.801757812 -189.209960938 193.678710938 -185 c 0
 196.345703125 -171.666992188 211.678710938 -132 239.678710938 -66 c 0
 267.678710938 0 289.01171875 49.3330078125 303.678710938 82 c 0
 309.01171875 93.3330078125 314.844726562 102.833007812 321.177734375 110.5 c 0
 327.510742188 118.166992188 334.34375 123.333984375 341.676757812 126.000976562 c 0
 351.009765625 129.333984375 359.676757812 131.333984375 367.676757812 132.000976562 c 0
 370.34375 132.000976562 373.34375 131.66796875 376.676757812 131.000976562 c 0
 390.009765625 131.000976562 402.676757812 127.66796875 414.676757812 121.000976562 c 0
 422.009765625 117.000976562 427.342773438 111.000976562 430.67578125 103.000976562 c 0
 433.342773438 95.66796875 433.67578125 87.66796875 431.67578125 79.0009765625 c 0
EndSplineSet
EndChar

StartChar: less
Encoding: 60 60 35
Width: 670
GlyphClass: 2
Flags: HMW
HStem: -24 21G<504.513 509.513 509.513 518.513>
LayerCount: 2
Fore
SplineSet
509.512695312 -24 m 2
 499.512695312 -24 488.846679688 -21.9990234375 477.513671875 -17.9990234375 c 0
 462.180664062 -12.666015625 444.84765625 -0.666015625 425.514648438 18.0009765625 c 0
 406.181640625 36.66796875 386.181640625 58.8349609375 365.514648438 84.501953125 c 0
 344.84765625 110.168945312 324.514648438 135.8359375 304.514648438 161.502929688 c 0
 284.514648438 187.169921875 263.34765625 213.669921875 241.014648438 241.002929688 c 0
 218.681640625 268.3359375 199.181640625 290.002929688 182.514648438 306.002929688 c 0
 174.514648438 314.002929688 170.514648438 325.002929688 170.514648438 339.002929688 c 0
 170.514648438 345.002929688 171.34765625 351.502929688 173.014648438 358.502929688 c 0
 174.681640625 365.502929688 177.181640625 372.669921875 180.514648438 380.002929688 c 0
 187.181640625 394.002929688 196.514648438 404.002929688 208.514648438 410.002929688 c 0
 249.84765625 438.002929688 299.014648438 473.169921875 356.014648438 515.502929688 c 0
 413.014648438 557.8359375 465.34765625 596.168945312 513.014648438 630.501953125 c 0
 560.681640625 664.834960938 602.514648438 692.001953125 638.514648438 712.001953125 c 0
 653.181640625 720.668945312 666.514648438 725.001953125 678.514648438 725.001953125 c 0
 687.84765625 725.001953125 695.514648438 722.668945312 701.514648438 718.001953125 c 0
 713.514648438 709.334960938 720.84765625 697.66796875 723.514648438 683.000976562 c 0
 724.84765625 676.333984375 724.680664062 669.000976562 723.013671875 661.000976562 c 0
 721.346679688 653.000976562 716.846679688 644.66796875 709.513671875 636.000976562 c 0
 698.846679688 622.66796875 680.513671875 607.66796875 654.513671875 591.000976562 c 0
 613.846679688 565.000976562 554.846679688 524.833984375 477.513671875 470.500976562 c 0
 400.180664062 416.16796875 347.513671875 379.334960938 319.513671875 360.001953125 c 1
 336.180664062 342.001953125 355.34765625 319.668945312 377.014648438 293.001953125 c 0
 398.681640625 266.334960938 418.014648438 241.66796875 435.014648438 219.000976562 c 0
 452.014648438 196.333984375 470.681640625 173.166992188 491.014648438 149.5 c 0
 511.34765625 125.833007812 530.180664062 106.833007812 547.513671875 92.5 c 0
 564.846679688 78.1669921875 575.846679688 65 580.513671875 53 c 0
 583.846679688 45 584.1796875 36.3330078125 581.512695312 27 c 0
 580.1796875 20.3330078125 577.512695312 14 573.512695312 8 c 0
 560.845703125 -10 542.512695312 -20.6669921875 518.512695312 -24 c 2
 509.512695312 -24 l 2
EndSplineSet
EndChar

StartChar: equal
Encoding: 61 61 36
Width: 670
GlyphClass: 2
Flags: HMW
HStem: 235 107<245.087 278.087> 435 106
LayerCount: 2
Fore
SplineSet
595.751953125 541 m 0
 613.751953125 541 625.419921875 536.33203125 630.752929688 526.999023438 c 0
 634.307617188 520.77734375 636.0859375 513.518554688 636.0859375 505.22265625 c 0
 636.0859375 501.07421875 635.640625 496.666015625 634.751953125 491.999023438 c 2
 634.751953125 490.999023438 l 2
 633.418945312 483.666015625 631.418945312 476.999023438 628.751953125 470.999023438 c 0
 626.084960938 464.999023438 622.084960938 458.83203125 616.751953125 452.499023438 c 0
 611.418945312 446.166015625 604.418945312 441.333007812 595.751953125 438 c 0
 589.751953125 436 583.751953125 435 577.751953125 435 c 2
 569.751953125 435 l 2
 547.751953125 435.666992188 524.751953125 436 500.751953125 436 c 2
 397.751953125 433 l 2
 354.418945312 431.666992188 322.418945312 431 301.751953125 431 c 0
 283.751953125 431 270.418945312 436 261.751953125 446 c 0
 255.4921875 453.22265625 252.362304688 461.8359375 252.362304688 471.840820312 c 0
 252.362304688 475.688476562 252.825195312 479.741210938 253.750976562 484 c 2
 253.750976562 487 l 2
 257.083984375 501 264.583984375 513.5 276.250976562 524.5 c 0
 287.91796875 535.5 302.41796875 541 319.750976562 541 c 2
 323.750976562 541 l 2
 360.150390625 539.799804688 400.149414062 539.200195312 443.749023438 539.200195312 c 0
 472.81640625 539.200195312 503.484375 539.466796875 535.751953125 540 c 0
 569.084960938 540.666992188 589.084960938 541 595.751953125 541 c 0
531.752929688 238.999023438 m 2
 524.75390625 239 l 2
 510.75390625 239.666992188 497.420898438 240 484.75390625 240 c 0
 458.75390625 240 418.75390625 239.166992188 364.75390625 237.5 c 0
 310.75390625 235.833007812 274.086914062 235 254.75390625 235 c 0
 235.420898438 235 222.087890625 240.333007812 214.754882812 251 c 0
 209.712890625 258.333984375 207.192382812 266.770507812 207.192382812 276.309570312 c 0
 207.192382812 280.645507812 207.712890625 285.208984375 208.754882812 290 c 2
 208.754882812 292 l 2
 212.087890625 306 219.920898438 317.833007812 232.25390625 327.5 c 0
 244.586914062 337.166992188 259.75390625 342 277.75390625 342 c 0
 278.420898438 342 283.75390625 341.666992188 293.75390625 341 c 0
 306.87109375 340.77734375 321.434570312 340.666015625 337.443359375 340.666015625 c 0
 369.438476562 340.666015625 407.208007812 341.110351562 450.752929688 341.999023438 c 2
 549.752929688 344.999023438 l 2
 567.752929688 344.999023438 579.5859375 340.33203125 585.252929688 330.999023438 c 0
 589.106445312 324.65234375 591.033203125 317.227539062 591.033203125 308.72265625 c 0
 591.033203125 304.720703125 590.606445312 300.479492188 589.752929688 295.999023438 c 2
 589.752929688 294.999023438 l 2
 588.419921875 287.666015625 586.252929688 281.166015625 583.252929688 275.499023438 c 0
 580.252929688 269.83203125 576.419921875 263.999023438 571.752929688 257.999023438 c 0
 566.419921875 251.33203125 559.419921875 245.999023438 550.752929688 241.999023438 c 0
 544.752929688 239.999023438 538.419921875 238.999023438 531.752929688 238.999023438 c 2
EndSplineSet
EndChar

StartChar: greater
Encoding: 62 62 37
Width: 670
GlyphClass: 2
Flags: HMW
HStem: -18 21G<142.89 153.558>
LayerCount: 2
Fore
SplineSet
147.224609375 -18 m 0
 138.557617188 -18 131.221679688 -15.6689453125 125.221679688 -11.001953125 c 0
 119.221679688 -6.3349609375 114.388671875 -1.001953125 110.721679688 4.998046875 c 0
 107.0546875 10.998046875 104.5546875 17.3310546875 103.221679688 23.998046875 c 0
 101.888671875 30.6650390625 102.055664062 37.998046875 103.72265625 45.998046875 c 0
 105.389648438 53.998046875 109.556640625 62.3310546875 116.223632812 70.998046875 c 0
 126.890625 84.3310546875 145.557617188 99.3310546875 172.224609375 115.998046875 c 0
 212.891601562 141.998046875 271.891601562 182.165039062 349.224609375 236.498046875 c 0
 426.557617188 290.831054688 478.890625 327.6640625 506.223632812 346.997070312 c 1
 488.890625 364.997070312 469.723632812 387.330078125 448.723632812 413.997070312 c 0
 427.723632812 440.6640625 408.556640625 465.331054688 391.223632812 487.998046875 c 0
 373.890625 510.665039062 355.057617188 533.83203125 334.724609375 557.499023438 c 0
 314.391601562 581.166015625 295.724609375 600.166015625 278.724609375 614.499023438 c 0
 261.724609375 628.83203125 250.891601562 641.999023438 246.224609375 653.999023438 c 0
 242.891601562 661.999023438 242.55859375 670.666015625 245.225585938 679.999023438 c 0
 246.55859375 686.666015625 249.225585938 692.999023438 253.225585938 698.999023438 c 0
 265.892578125 716.999023438 284.225585938 727.666015625 308.225585938 730.999023438 c 2
 317.225585938 730.999023438 l 2
 327.225585938 730.999023438 337.892578125 728.999023438 349.225585938 724.999023438 c 0
 364.55859375 719.666015625 382.05859375 707.833007812 401.725585938 689.5 c 0
 421.392578125 671.166992188 441.392578125 649 461.725585938 623 c 0
 482.05859375 597 502.225585938 571.166992188 522.225585938 545.5 c 0
 542.225585938 519.833007812 563.392578125 493.333007812 585.725585938 466 c 0
 608.05859375 438.666992188 627.55859375 417 644.225585938 401 c 0
 652.225585938 393 656.225585938 382 656.225585938 368 c 0
 656.225585938 362 655.392578125 355.5 653.725585938 348.5 c 0
 652.05859375 341.5 649.55859375 334.333007812 646.225585938 327 c 0
 639.55859375 313 630.225585938 303 618.225585938 297 c 0
 576.892578125 269.666992188 527.725585938 234.666992188 470.725585938 192 c 0
 413.725585938 149.333007812 361.392578125 110.833007812 313.725585938 76.5 c 0
 266.05859375 42.1669921875 224.225585938 15 188.225585938 -5 c 0
 173.55859375 -13.6669921875 159.891601562 -18 147.224609375 -18 c 0
EndSplineSet
EndChar

StartChar: question
Encoding: 63 63 38
Width: 670
GlyphClass: 2
Flags: HMW
HStem: -25.999 178.002<284.876 361.208 295.876 361.208> 508.998 21G<299.208 300.875 300.875 308.875> 625.003 108.995<476.542 482.874>
VStem: 314.876 116
LayerCount: 2
Fore
SplineSet
363.875 201 m 0
 358.541992188 201 352.875976562 201.66796875 346.875976562 203.000976562 c 0
 323.828125 209.810546875 312.3046875 224.028320312 312.3046875 245.655273438 c 0
 312.3046875 251.552734375 313.162109375 258.001953125 314.875976562 265.001953125 c 0
 316.875976562 274.334960938 320.54296875 284.334960938 325.875976562 295.001953125 c 0
 335.208984375 314.334960938 346.041992188 332.334960938 358.375 349.001953125 c 0
 370.708007812 365.668945312 383.375 380.001953125 396.375 392.001953125 c 0
 409.375 404.001953125 422.541992188 415.168945312 435.875 425.501953125 c 0
 449.208007812 435.834960938 461.875 445.501953125 473.875 454.501953125 c 0
 485.875 463.501953125 496.541992188 472.334960938 505.875 481.001953125 c 0
 525.875 499.668945312 538.208007812 519.001953125 542.875 539.001953125 c 0
 545.563476562 550.24609375 546.908203125 560.280273438 546.908203125 569.104492188 c 0
 546.908203125 584.34765625 542.896484375 595.98046875 534.874023438 604.002929688 c 0
 521.541015625 618.002929688 498.874023438 625.002929688 466.874023438 625.002929688 c 0
 459.541015625 625.002929688 451.708007812 623.169921875 443.375 619.502929688 c 0
 435.041992188 615.8359375 427.375 611.668945312 420.375 607.001953125 c 0
 413.375 602.334960938 405.541992188 595.66796875 396.875 587.000976562 c 0
 388.208007812 578.333984375 381.208007812 571.166992188 375.875 565.5 c 0
 370.541992188 559.833007812 363.875 552.166015625 355.875 542.499023438 c 0
 347.875 532.83203125 340.041992188 525.165039062 332.375 519.498046875 c 0
 324.708007812 513.831054688 316.875 510.331054688 308.875 508.998046875 c 2
 300.875 508.998046875 l 2
 297.541992188 508.998046875 293.875 509.665039062 289.875 510.998046875 c 0
 285.875 512.331054688 280.208007812 514.6640625 272.875 517.997070312 c 0
 260.875 525.997070312 254.875 537.330078125 254.875 551.997070312 c 0
 254.875 555.330078125 255.208007812 559.330078125 255.875 563.997070312 c 0
 258.541992188 575.997070312 264.875 589.330078125 274.875 603.997070312 c 0
 285.541992188 618.6640625 297.541992188 632.831054688 310.875 646.498046875 c 0
 324.208007812 660.165039062 340.041015625 673.998046875 358.374023438 687.998046875 c 0
 376.70703125 701.998046875 397.20703125 713.165039062 419.874023438 721.498046875 c 0
 442.541015625 729.831054688 465.208007812 733.998046875 487.875 733.998046875 c 0
 557.208007812 733.998046875 606.375 716.165039062 635.375 680.498046875 c 0
 654.063476562 657.512695312 663.408203125 627.3984375 663.408203125 590.154296875 c 0
 663.408203125 569.60546875 660.563476562 546.88671875 654.875 521.998046875 c 0
 650.208007812 502.665039062 643.208007812 484.83203125 633.875 468.499023438 c 0
 624.541992188 452.166015625 613.708984375 438.333007812 601.375976562 427 c 0
 589.04296875 415.666992188 576.375976562 405.166992188 563.375976562 395.5 c 0
 550.375976562 385.833007812 537.208984375 376.5 523.875976562 367.5 c 0
 510.54296875 358.5 498.04296875 349.166992188 486.375976562 339.5 c 0
 474.708984375 329.833007812 463.875976562 318.333007812 453.875976562 305 c 0
 443.875976562 291.666992188 436.208984375 276.666992188 430.875976562 260 c 0
 423.54296875 240 412.875976562 224.333007812 398.875976562 213 c 0
 388.208984375 205 376.541992188 201 363.875 201 c 0
295.875976562 -25.9990234375 m 2
 273.875976562 -25.9990234375 257.541992188 -17.9990234375 246.875 -1.9990234375 c 0
 238.279296875 10.66796875 233.982421875 24.7158203125 233.982421875 40.1455078125 c 0
 233.982421875 47.4541015625 234.946289062 55.0732421875 236.875 63.001953125 c 0
 242.875 87.6689453125 256.875 108.3359375 278.875 125.002929688 c 0
 302.208007812 143.002929688 325.875 152.002929688 349.875 152.002929688 c 0
 372.541992188 152.002929688 389.875 144.002929688 401.875 128.002929688 c 0
 410.026367188 116.681640625 414.1015625 103.515625 414.1015625 88.50390625 c 0
 414.1015625 81.4140625 413.192382812 73.9140625 411.375 66.001953125 c 0
 405.708007812 41.3349609375 393.208007812 20.66796875 373.875 4.0009765625 c 0
 354.541992188 -12.666015625 332.208984375 -22.666015625 306.875976562 -25.9990234375 c 2
 295.875976562 -25.9990234375 l 2
EndSplineSet
EndChar

StartChar: at
Encoding: 64 64 39
Width: 670
GlyphClass: 2
Flags: HMW
HStem: -141.997 110.002<275.792 332.46 293.126 332.46> 105 105.001<364.13 364.797> 369.5 100.5 601.002 113.999<480.127 521.791>
VStem: 118.625 109.002 585.63 98.4951
LayerCount: 2
Fore
SplineSet
435.124023438 148 m 1
 410.45703125 119.333007812 381.463867188 105 348.130859375 105 c 0
 308.130859375 105 279.963867188 118.833007812 263.630859375 146.5 c 0
 254.431640625 162.08203125 249.833007812 181.735351562 249.833007812 205.458984375 c 0
 249.833007812 223.857421875 252.598632812 244.704101562 258.131835938 268 c 0
 264.131835938 294.666992188 272.46484375 319.166992188 283.131835938 341.5 c 0
 293.798828125 363.833007812 305.798828125 383 319.131835938 399 c 0
 332.46484375 415 347.131835938 428.666992188 363.131835938 440 c 0
 391.131835938 460 421.131835938 470 453.131835938 470 c 0
 471.798828125 470 489.465820312 466 506.1328125 458 c 0
 520.799804688 451.333007812 531.799804688 442.333007812 539.1328125 431 c 0
 544.465820312 421.666992188 546.1328125 412.666992188 544.1328125 404 c 0
 543.465820312 399.333007812 541.1328125 394.333007812 537.1328125 389 c 0
 533.1328125 383.666992188 528.465820312 378.666992188 523.1328125 374 c 0
 517.799804688 369.333007812 512.1328125 366 506.1328125 364 c 0
 497.465820312 361.333007812 490.798828125 360 486.131835938 360 c 0
 478.131835938 360 469.46484375 361.333007812 460.131835938 364 c 0
 457.46484375 364.666992188 453.131835938 366 447.131835938 368 c 0
 440.46484375 369.333007812 433.96484375 369.833007812 427.631835938 369.5 c 0
 421.298828125 369.166992188 414.631835938 366.833984375 407.631835938 362.500976562 c 0
 400.631835938 358.16796875 393.798828125 352.66796875 387.131835938 346.000976562 c 0
 380.46484375 339.333984375 374.297851562 330.333984375 368.630859375 319.000976562 c 0
 362.963867188 307.66796875 358.796875 294.66796875 356.129882812 280.000976562 c 0
 354.129882812 272.000976562 352.629882812 264.333984375 351.629882812 257.000976562 c 0
 350.629882812 249.66796875 350.462890625 242.000976562 351.129882812 234.000976562 c 0
 351.796875 218.000976562 358.129882812 210.000976562 370.129882812 210.000976562 c 0
 377.462890625 210.000976562 383.462890625 211.333984375 388.129882812 214.000976562 c 0
 394.796875 216.66796875 400.463867188 221.334960938 405.130859375 228.001953125 c 0
 415.797851562 242.668945312 425.797851562 268.001953125 435.130859375 304.001953125 c 0
 439.130859375 319.334960938 452.463867188 331.66796875 475.130859375 341.000976562 c 0
 487.797851562 345.66796875 499.130859375 348.334960938 509.130859375 349.001953125 c 0
 516.463867188 349.001953125 522.463867188 347.668945312 527.130859375 345.001953125 c 0
 536.3046875 340.684570312 540.891601562 333.52734375 540.891601562 323.53125 c 0
 540.891601562 321.178710938 540.637695312 318.668945312 540.129882812 316.001953125 c 0
 540.129882812 314.668945312 539.462890625 313.3359375 538.129882812 312.002929688 c 0
 530.129882812 288.669921875 524.462890625 269.002929688 521.129882812 253.002929688 c 0
 517.129882812 235.002929688 515.129882812 219.669921875 515.129882812 207.002929688 c 0
 515.129882812 202.3359375 515.796875 199.002929688 517.129882812 197.002929688 c 0
 518.462890625 193.669921875 520.462890625 192.002929688 523.129882812 192.002929688 c 0
 524.462890625 193.3359375 526.129882812 195.3359375 528.129882812 198.002929688 c 0
 532.796875 206.002929688 537.796875 216.3359375 543.129882812 229.002929688 c 0
 551.129882812 253.002929688 557.462890625 275.002929688 562.129882812 295.002929688 c 0
 570.129882812 328.3359375 575.962890625 359.168945312 579.629882812 387.501953125 c 0
 583.296875 415.834960938 585.296875 439.834960938 585.629882812 459.501953125 c 0
 585.666992188 461.684570312 585.685546875 463.845703125 585.685546875 465.983398438 c 0
 585.685546875 483.10546875 584.5 498.778320312 582.12890625 513.001953125 c 0
 579.461914062 529.001953125 576.294921875 541.668945312 572.627929688 551.001953125 c 0
 568.9609375 560.334960938 563.9609375 568.334960938 557.627929688 575.001953125 c 0
 551.294921875 581.668945312 545.627929688 586.501953125 540.627929688 589.501953125 c 0
 535.627929688 592.501953125 529.627929688 595.001953125 522.627929688 597.001953125 c 0
 515.627929688 599.001953125 510.294921875 600.168945312 506.627929688 600.501953125 c 0
 502.9609375 600.834960938 497.793945312 601.001953125 491.126953125 601.001953125 c 0
 469.126953125 601.001953125 446.293945312 593.334960938 422.626953125 578.001953125 c 0
 398.959960938 562.668945312 376.126953125 540.668945312 354.126953125 512.001953125 c 0
 332.126953125 483.334960938 311.459960938 447.501953125 292.126953125 404.501953125 c 0
 272.793945312 361.501953125 257.4609375 314.668945312 246.127929688 264.001953125 c 0
 235.4609375 219.334960938 229.293945312 179.334960938 227.626953125 144.001953125 c 0
 227.188476562 134.703125 226.96875 125.888671875 226.96875 117.559570312 c 0
 226.96875 94.240234375 228.688476562 74.7216796875 232.126953125 59.0029296875 c 0
 236.793945312 37.669921875 244.126953125 19.8369140625 254.126953125 5.50390625 c 0
 264.126953125 -8.8291015625 274.793945312 -18.662109375 286.126953125 -23.9951171875 c 0
 297.459960938 -29.328125 310.459960938 -31.9951171875 325.126953125 -31.9951171875 c 0
 339.793945312 -31.9951171875 353.626953125 -30.328125 366.626953125 -26.9951171875 c 0
 379.626953125 -23.662109375 390.626953125 -19.9951171875 399.626953125 -15.9951171875 c 0
 408.626953125 -11.9951171875 417.626953125 -6.328125 426.626953125 1.0048828125 c 0
 435.626953125 8.337890625 442.959960938 15.1708984375 448.626953125 21.50390625 c 0
 454.293945312 27.8369140625 461.126953125 35.669921875 469.126953125 45.0029296875 c 0
 473.126953125 50.3359375 476.293945312 54.5029296875 478.626953125 57.5029296875 c 0
 480.959960938 60.5029296875 484.126953125 64.169921875 488.126953125 68.5029296875 c 0
 492.126953125 72.8359375 495.626953125 76.0029296875 498.626953125 78.0029296875 c 0
 501.626953125 80.0029296875 505.126953125 82.0029296875 509.126953125 84.0029296875 c 0
 513.126953125 86.0029296875 517.459960938 87.0029296875 522.126953125 87.0029296875 c 0
 526.793945312 87.0029296875 531.126953125 86.0029296875 535.126953125 84.0029296875 c 0
 541.126953125 81.3359375 545.793945312 78.0029296875 549.126953125 74.0029296875 c 0
 552.459960938 70.0029296875 554.626953125 65.169921875 555.626953125 59.5029296875 c 0
 556.626953125 53.8359375 556.459960938 48.0029296875 555.126953125 42.0029296875 c 0
 552.459960938 30.669921875 546.459960938 17.0029296875 537.126953125 1.0029296875 c 0
 531.126953125 -8.9970703125 525.459960938 -17.6640625 520.126953125 -24.9970703125 c 0
 514.793945312 -32.330078125 507.793945312 -41.330078125 499.126953125 -51.9970703125 c 0
 490.459960938 -62.6640625 481.79296875 -71.9970703125 473.125976562 -79.9970703125 c 0
 464.458984375 -87.9970703125 453.458984375 -96.1640625 440.125976562 -104.497070312 c 0
 426.79296875 -112.830078125 413.125976562 -119.497070312 399.125976562 -124.497070312 c 0
 385.125976562 -129.497070312 369.458984375 -133.6640625 352.125976562 -136.997070312 c 0
 334.79296875 -140.330078125 317.125976562 -141.997070312 299.125976562 -141.997070312 c 2
 293.125976562 -141.997070312 l 2
 258.458984375 -141.997070312 228.291992188 -132.6640625 202.625 -113.997070312 c 0
 176.958007812 -95.330078125 156.958007812 -69.9970703125 142.625 -37.9970703125 c 0
 128.291992188 -5.9970703125 120.291992188 32.8359375 118.625 78.5029296875 c 0
 118.421875 84.072265625 118.3203125 89.7041015625 118.3203125 95.3984375 c 0
 118.3203125 136.387695312 123.588867188 180.588867188 134.125 228.002929688 c 0
 148.125 287.3359375 165.291992188 342.8359375 185.625 394.502929688 c 0
 205.958007812 446.169921875 228.625 491.169921875 253.625 529.502929688 c 0
 278.625 567.8359375 305.291992188 601.168945312 333.625 629.501953125 c 0
 361.958007812 657.834960938 391.125 679.16796875 421.125 693.500976562 c 0
 451.125 707.833984375 481.125 715.000976562 511.125 715.000976562 c 0
 532.458007812 715.000976562 551.625 713.16796875 568.625 709.500976562 c 0
 585.625 705.833984375 601.625 699.500976562 616.625 690.500976562 c 0
 631.625 681.500976562 643.791992188 669.66796875 653.125 655.000976562 c 0
 662.458007812 640.333984375 669.958007812 622.000976562 675.625 600.000976562 c 0
 681.291992188 578.000976562 684.125 552.333984375 684.125 523.000976562 c 0
 684.125 461.66796875 673.125 385.000976562 651.125 293.000976562 c 0
 639.125 242.333984375 622.125 198.000976562 600.125 160.000976562 c 0
 587.458007812 138.66796875 572.625 121.500976562 555.625 108.500976562 c 0
 538.625 95.5009765625 520.458007812 89.0009765625 501.125 89.0009765625 c 0
 472.458007812 89.0009765625 452.791015625 99.333984375 442.124023438 120.000976562 c 0
 438.124023438 127.333984375 435.791015625 136.666992188 435.124023438 148 c 1
EndSplineSet
EndChar

StartChar: A
Encoding: 65 65 40
Width: 670
GlyphClass: 2
Flags: HMW
HStem: -6.00195 21G<110.834 118.501> 251 91.998<501.162 501.162>
VStem: 501.163 109.502 506.168 115.998
LayerCount: 2
Fore
SplineSet
181.162109375 49 m 0xe0
 168.495117188 25 154.500976562 8.998046875 139.16796875 0.998046875 c 0
 130.500976562 -3.6689453125 122.333984375 -6.001953125 114.666992188 -6.001953125 c 0
 107 -6.001953125 100.166992188 -4.3349609375 94.1669921875 -1.001953125 c 0
 84.1669921875 4.3310546875 77.833984375 12.6640625 75.1669921875 23.9970703125 c 0
 73.1669921875 32.6640625 73.333984375 42.1640625 75.6669921875 52.4970703125 c 0
 78 62.830078125 81.8330078125 73.6630859375 87.166015625 84.99609375 c 0
 95.8330078125 105.663085938 124.166015625 153.99609375 172.166015625 229.99609375 c 1
 166.610351562 237.21875 163.83203125 245.831054688 163.83203125 255.83203125 c 0
 163.83203125 257.831054688 163.943359375 259.88671875 164.165039062 261.997070312 c 0
 164.165039062 262.6640625 164.498046875 263.331054688 165.165039062 263.998046875 c 0
 167.83203125 275.998046875 175.499023438 286.665039062 188.166015625 295.998046875 c 0
 198.833007812 304.665039062 211.166015625 311.33203125 225.166015625 315.999023438 c 1
 347.166015625 497.999023438 437.499023438 620.33203125 496.166015625 682.999023438 c 0
 510.166015625 696.999023438 522.499023438 707.33203125 533.166015625 713.999023438 c 0
 543.833007812 721.33203125 555.166015625 724.999023438 567.166015625 724.999023438 c 0
 570.499023438 724.999023438 573.166015625 725.33203125 575.166015625 725.999023438 c 0
 587.833007812 725.999023438 598.166015625 722.666015625 606.166015625 715.999023438 c 0
 616.965820312 708.798828125 622.366210938 697.818359375 622.366210938 683.05859375 c 0
 622.366210938 681.41796875 622.298828125 679.732421875 622.166015625 677.999023438 c 0xd0
 617.499023438 597.999023438 613.83203125 484.999023438 611.165039062 338.999023438 c 0
 610.403320312 292.51953125 610.022460938 253.061523438 610.022460938 220.625 c 0
 610.022460938 196.301757812 610.236328125 175.926757812 610.665039062 159.5 c 0
 611.665039062 121.166992188 613.498046875 97.6669921875 616.165039062 89 c 0
 618.248046875 81.5 619.290039062 74.259765625 619.290039062 67.2802734375 c 0
 619.290039062 63.09375 618.915039062 59 618.165039062 55 c 0
 617.498046875 53 616.831054688 50.6669921875 616.1640625 48 c 0
 612.1640625 36 605.997070312 25.8330078125 597.6640625 17.5 c 0
 589.331054688 9.1669921875 580.1640625 3 570.1640625 -1 c 0
 558.831054688 -4.3330078125 551.831054688 -6 549.1640625 -6 c 0
 541.1640625 -6 533.497070312 -3.6669921875 526.1640625 1 c 0
 513.497070312 9 505.830078125 24.6669921875 503.163085938 48 c 0
 501.080078125 61.333984375 500.038085938 92.767578125 500.038085938 142.301757812 c 0
 500.038085938 172.01953125 500.413085938 208.251953125 501.163085938 251 c 1
 422.49609375 247.666992188 350.829101562 241 286.162109375 231 c 1
 252.829101562 179 217.829101562 118.333007812 181.162109375 49 c 0xe0
350.16796875 331.998046875 m 1
 405.500976562 337.998046875 455.834960938 341.665039062 501.16796875 342.998046875 c 1
 506.16796875 567.998046875 l 1
 468.834960938 519.998046875 416.834960938 441.331054688 350.16796875 331.998046875 c 1
EndSplineSet
EndChar

StartChar: B
Encoding: 66 66 41
Width: 670
GlyphClass: 2
Flags: HMW
HStem: -23 21G<152.009 159.341> 285.002 97.998 605.004 103.999<429.677 434.676>
LayerCount: 2
Fore
SplineSet
95.6748046875 42 m 0
 101.674804688 61.3330078125 110.008789062 94.00390625 120.67578125 140.00390625 c 0
 140.67578125 227.336914062 161.342773438 324.00390625 182.67578125 430.00390625 c 0
 191.342773438 473.336914062 197.342773438 502.50390625 200.67578125 517.50390625 c 0
 204.008789062 532.50390625 209.008789062 552.50390625 215.67578125 577.50390625 c 0
 222.342773438 602.50390625 227.009765625 619.670898438 229.676757812 629.00390625 c 0
 235.009765625 649.670898438 244.509765625 665.670898438 258.176757812 677.00390625 c 0
 271.84375 688.336914062 286.34375 694.00390625 301.676757812 694.00390625 c 2
 304.676757812 694.00390625 l 1
 322.676757812 699.336914062 344.34375 703.336914062 369.676757812 706.00390625 c 0
 380.34375 707.336914062 391.34375 708.169921875 402.676757812 708.502929688 c 0
 414.009765625 708.8359375 423.009765625 709.002929688 429.676757812 709.002929688 c 2
 449.676757812 709.002929688 l 1
 461.676757812 709.002929688 l 2
 509.009765625 709.002929688 549.676757812 700.669921875 583.676757812 684.002929688 c 0
 617.009765625 667.3359375 639.676757812 642.3359375 651.676757812 609.002929688 c 0
 659.295898438 589.955078125 663.10546875 569.166015625 663.10546875 546.634765625 c 0
 663.10546875 529.737304688 660.962890625 511.860351562 656.676757812 493.002929688 c 0
 648.009765625 455.002929688 631.342773438 422.002929688 606.67578125 394.002929688 c 0
 588.67578125 372.669921875 568.008789062 355.669921875 544.67578125 343.002929688 c 1
 557.342773438 336.3359375 569.009765625 328.668945312 579.676757812 320.001953125 c 0
 597.009765625 305.334960938 611.009765625 288.66796875 621.676757812 270.000976562 c 0
 629.434570312 256.424804688 633.313476562 243.026367188 633.313476562 229.802734375 c 0
 633.313476562 224.84375 632.767578125 219.91015625 631.676757812 215.000976562 c 0
 631.676757812 214.333984375 631.34375 214.000976562 630.676757812 214.000976562 c 0
 624.676757812 188.000976562 612.34375 162.333984375 593.676757812 137.000976562 c 0
 575.009765625 111.66796875 551.342773438 88.5009765625 522.67578125 67.5009765625 c 0
 494.008789062 46.5009765625 458.341796875 28.66796875 415.674804688 14.0009765625 c 0
 372.341796875 -0.666015625 326.674804688 -9.9990234375 278.674804688 -13.9990234375 c 1
 273.688476562 -10.7724609375 268.37890625 -9.1591796875 262.747070312 -9.1591796875 c 0
 255.579101562 -9.1591796875 247.888671875 -11.7724609375 239.674804688 -16.9990234375 c 1
 207.0078125 -19.666015625 186.674804688 -21.3330078125 178.674804688 -22 c 0
 170.674804688 -22.6669921875 163.0078125 -23 155.674804688 -23 c 0
 148.341796875 -23 141.674804688 -22.3330078125 135.674804688 -21 c 2
 133.674804688 -21 l 2
 118.341796875 -21 106.674804688 -15.3330078125 98.6748046875 -4 c 0
 94.5078125 2.25 92.4248046875 9.671875 92.4248046875 18.265625 c 0
 92.4248046875 23.421875 93.1748046875 29 94.6748046875 35 c 0
 94.6748046875 37.6669921875 95.0078125 40 95.6748046875 42 c 0
288.67578125 402.00390625 m 0
 287.342773438 395.336914062 286.006835938 389 284.673828125 383 c 1
 312.006835938 382.333007812 336.673828125 381.833007812 358.673828125 381.5 c 0
 360.872070312 381.466796875 363.04296875 381.450195312 365.184570312 381.450195312 c 0
 384.4765625 381.450195312 401.47265625 382.799804688 416.173828125 385.5 c 0
 432.506835938 388.5 446.506835938 392.333007812 458.173828125 397 c 0
 469.840820312 401.666992188 480.5078125 407.333984375 490.174804688 414.000976562 c 0
 499.841796875 420.66796875 507.508789062 427.334960938 513.17578125 434.001953125 c 0
 518.842773438 440.668945312 524.17578125 448.168945312 529.17578125 456.501953125 c 0
 534.17578125 464.834960938 538.008789062 472.334960938 540.67578125 479.001953125 c 0
 543.342773438 485.668945312 545.342773438 492.668945312 546.67578125 500.001953125 c 0
 548.4296875 507.721679688 549.307617188 515.1640625 549.307617188 522.330078125 c 0
 549.307617188 528.778320312 548.596679688 535.002929688 547.17578125 541.002929688 c 0
 544.17578125 553.669921875 538.67578125 563.836914062 530.67578125 571.50390625 c 0
 522.67578125 579.170898438 513.342773438 585.670898438 502.67578125 591.00390625 c 0
 483.92578125 600.37890625 462.833007812 605.06640625 439.396484375 605.06640625 c 0
 437.833007812 605.06640625 436.259765625 605.045898438 434.67578125 605.00390625 c 0
 402.67578125 605.00390625 370.67578125 602.00390625 338.67578125 596.00390625 c 1
 335.342773438 584.00390625 330.67578125 566.00390625 324.67578125 542.00390625 c 0
 310.67578125 492.670898438 298.67578125 446.00390625 288.67578125 402.00390625 c 0
491.172851562 165.5 m 0
 502.83984375 178.5 509.674804688 189.670898438 511.674804688 199.00390625 c 0
 513.0078125 204.336914062 511.5078125 210.669921875 507.174804688 218.002929688 c 0
 502.841796875 225.3359375 494.841796875 233.168945312 483.174804688 241.501953125 c 0
 471.5078125 249.834960938 453.840820312 258.001953125 430.173828125 266.001953125 c 0
 406.506835938 274.001953125 379.006835938 280.334960938 347.673828125 285.001953125 c 1
 264.673828125 285.001953125 l 1
 246.006835938 193.001953125 232.33984375 124.668945312 223.672851562 80.001953125 c 1
 230.33984375 80.001953125 240.33984375 80.1689453125 253.672851562 80.501953125 c 0
 267.005859375 80.8349609375 278.005859375 81.3349609375 286.672851562 82.001953125 c 0
 316.672851562 83.3349609375 345.672851562 88.16796875 373.672851562 96.5009765625 c 0
 401.672851562 104.833984375 425.33984375 115.166992188 444.672851562 127.5 c 0
 464.005859375 139.833007812 479.505859375 152.5 491.172851562 165.5 c 0
EndSplineSet
EndChar

StartChar: C
Encoding: 67 67 42
Width: 670
GlyphClass: 2
Flags: HMW
HStem: -30.9971 114.001<275.598 337.598 289.931 337.598> 608.005 104.996<568.598 569.598>
LayerCount: 2
Fore
SplineSet
744.930664062 692 m 0
 744.930664062 666 741.264648438 638.336914062 733.931640625 609.00390625 c 0
 729.264648438 589.00390625 726.264648438 577.00390625 724.931640625 573.00390625 c 0
 720.931640625 556.336914062 711.431640625 539.50390625 696.431640625 522.50390625 c 0
 681.431640625 505.50390625 667.264648438 496.336914062 653.931640625 495.00390625 c 0
 651.264648438 495.00390625 648.264648438 494.670898438 644.931640625 494.00390625 c 0
 633.598632812 494.00390625 623.598632812 498.00390625 614.931640625 506.00390625 c 0
 604.67578125 514.208984375 599.546875 524.583984375 599.546875 537.12890625 c 0
 599.546875 540.891601562 600.008789062 544.850585938 600.931640625 549.00390625 c 0
 602.264648438 553.670898438 605.59765625 565.670898438 610.930664062 585.00390625 c 1
 603.59765625 590.336914062 598.930664062 593.836914062 596.930664062 595.50390625 c 0
 594.930664062 597.170898438 591.930664062 599.337890625 587.930664062 602.004882812 c 0
 580.59765625 606.004882812 573.264648438 608.004882812 565.931640625 608.004882812 c 0
 547.264648438 608.004882812 525.264648438 602.004882812 499.931640625 590.004882812 c 0
 474.598632812 578.004882812 448.931640625 560.504882812 422.931640625 537.504882812 c 0
 396.931640625 514.504882812 371.764648438 488.171875 347.431640625 458.504882812 c 0
 323.098632812 428.837890625 301.431640625 395.170898438 282.431640625 357.50390625 c 0
 263.431640625 319.836914062 249.598632812 282.336914062 240.931640625 245.00390625 c 0
 237.754882812 230.88671875 236.166992188 217.001953125 236.166992188 203.3515625 c 0
 236.166992188 191.217773438 237.421875 179.268554688 239.931640625 167.50390625 c 0
 245.264648438 142.50390625 255.764648438 122.170898438 271.431640625 106.50390625 c 0
 287.098632812 90.8369140625 305.598632812 83.00390625 326.931640625 83.00390625 c 0
 348.264648438 83.00390625 369.264648438 85.1708984375 389.931640625 89.50390625 c 0
 410.598632812 93.8369140625 429.598632812 99.3369140625 446.931640625 106.00390625 c 0
 464.264648438 112.670898438 479.431640625 119.50390625 492.431640625 126.50390625 c 0
 505.431640625 133.50390625 517.598632812 140.670898438 528.931640625 148.00390625 c 0
 538.931640625 154.670898438 547.931640625 160.00390625 555.931640625 164.00390625 c 0
 563.931640625 168.00390625 572.431640625 169.836914062 581.431640625 169.50390625 c 0
 590.431640625 169.170898438 597.931640625 166.00390625 603.931640625 160.00390625 c 0
 612.494140625 151.44140625 616.775390625 141.641601562 616.775390625 130.60546875 c 0
 616.775390625 127.034179688 616.327148438 123.333984375 615.430664062 119.50390625 c 0
 611.763671875 103.836914062 600.263671875 86.669921875 580.930664062 68.0029296875 c 0
 512.284179688 1.99609375 419.45703125 -31.0068359375 302.450195312 -31.0068359375 c 0
 301.279296875 -31.0068359375 300.106445312 -31.00390625 298.930664062 -30.9970703125 c 2
 289.930664062 -30.9970703125 l 2
 261.263671875 -30.9970703125 234.930664062 -26.330078125 210.930664062 -16.9970703125 c 0
 187.59765625 -7.6640625 169.264648438 5.0029296875 155.931640625 21.0029296875 c 0
 142.598632812 37.0029296875 131.931640625 55.3359375 123.931640625 76.0029296875 c 0
 115.931640625 96.669921875 111.598632812 118.669921875 110.931640625 142.002929688 c 0
 110.857421875 144.596679688 110.8203125 147.190429688 110.8203125 149.784179688 c 0
 110.8203125 170.5234375 113.190429688 191.262695312 117.930664062 212.001953125 c 0
 129.263671875 260.001953125 144.763671875 306.501953125 164.430664062 351.501953125 c 0
 184.09765625 396.501953125 206.09765625 437.001953125 230.430664062 473.001953125 c 0
 254.763671875 509.001953125 281.596679688 542.334960938 310.9296875 573.001953125 c 0
 340.9296875 603.001953125 371.596679688 628.168945312 402.9296875 648.501953125 c 0
 434.262695312 668.834960938 465.262695312 684.66796875 495.9296875 696.000976562 c 0
 526.596679688 707.333984375 555.263671875 713.000976562 581.930664062 713.000976562 c 0
 603.263671875 713.000976562 622.930664062 711.333984375 640.930664062 708.000976562 c 1
 646.263671875 715.333984375 652.596679688 721.666992188 659.9296875 727 c 0
 670.596679688 735 681.263671875 739.333007812 691.930664062 740 c 0
 695.930664062 740.666992188 698.430664062 741 699.430664062 741 c 2
 700.930664062 741 l 2
 710.930664062 741 719.930664062 737.666992188 727.930664062 731 c 0
 739.263671875 721.666992188 744.930664062 708.666992188 744.930664062 692 c 0
EndSplineSet
EndChar

StartChar: D
Encoding: 68 68 43
Width: 670
GlyphClass: 2
Flags: HMW
HStem: -31 110.001<335.803 393.138 351.136 393.138> 694 20G<284.139 302.805>
LayerCount: 2
Fore
SplineSet
288.638671875 86 m 0
 315.638671875 81.3330078125 347.805664062 79.0009765625 385.138671875 79.0009765625 c 0
 401.138671875 79.0009765625 417.805664062 84.66796875 435.138671875 96.0009765625 c 0
 452.471679688 107.333984375 468.3046875 122.166992188 482.637695312 140.5 c 0
 496.970703125 158.833007812 509.970703125 179.333007812 521.637695312 202 c 0
 533.3046875 224.666992188 541.471679688 246.666992188 546.138671875 268 c 0
 553.09765625 297.98828125 556.576171875 326.2265625 556.576171875 352.71484375 c 0
 556.576171875 432.810546875 524.763671875 496.905273438 461.138671875 545 c 0
 431.138671875 567.666992188 385.138671875 591 323.138671875 615 c 1
 302.471679688 533.666992188 283.471679688 448.666992188 266.138671875 360 c 0
 260.138671875 331.333007812 251.638671875 289.5 240.638671875 234.5 c 0
 229.638671875 179.5 221.138671875 137.333007812 215.138671875 108 c 1
 237.138671875 98 261.638671875 90.6669921875 288.638671875 86 c 0
86.1376953125 62 m 0
 92.8046875 84.6669921875 101.805664062 120 113.138671875 168 c 0
 133.138671875 256 155.471679688 360.666992188 180.138671875 482 c 0
 187.471679688 518 192.471679688 541.833007812 195.138671875 553.5 c 0
 197.805664062 565.166992188 202.47265625 583 209.139648438 607 c 0
 214.24609375 625.380859375 217.591796875 637.896484375 219.178710938 644.545898438 c 0
 219.283203125 645.229492188 219.603515625 647.046875 220.140625 649.999023438 c 0
 225.473632812 670.666015625 234.806640625 686.333007812 248.139648438 697 c 0
 261.47265625 708.333007812 276.139648438 714 292.139648438 714 c 0
 313.47265625 714 340.47265625 710.666992188 373.139648438 704 c 0
 393.806640625 700 414.806640625 694.5 436.139648438 687.5 c 0
 457.47265625 680.5 479.805664062 670.666992188 503.138671875 658 c 0
 526.471679688 645.333007812 548.138671875 630.833007812 568.138671875 614.5 c 0
 588.138671875 598.166992188 606.138671875 577.333984375 622.138671875 552.000976562 c 0
 636.805664062 527.333984375 648.138671875 500.166992188 656.138671875 470.5 c 0
 663.5234375 443.116210938 667.215820312 411.1875 667.215820312 374.715820312 c 0
 667.215820312 371.67578125 667.190429688 368.603515625 667.138671875 365.5 c 0
 666.471679688 325.166992188 660.8046875 281.666992188 650.137695312 235 c 0
 644.8046875 211.666992188 636.3046875 187.666992188 624.637695312 163 c 0
 612.970703125 138.333007812 598.303710938 114.666015625 580.63671875 91.9990234375 c 0
 562.969726562 69.33203125 543.469726562 48.83203125 522.13671875 30.4990234375 c 0
 500.803710938 12.166015625 476.13671875 -2.6669921875 448.13671875 -14 c 0
 420.979492188 -25.3681640625 393.522460938 -31.052734375 365.767578125 -31.052734375 c 0
 364.224609375 -31.052734375 362.681640625 -31.03515625 361.13671875 -31 c 2
 351.13671875 -31 l 2
 320.469726562 -31 290.13671875 -29.5 260.13671875 -26.5 c 0
 230.13671875 -23.5 206.13671875 -20 188.13671875 -16 c 0
 170.803710938 -12 156.470703125 -8.3330078125 145.137695312 -5 c 0
 133.8046875 -1.6669921875 126.8046875 0 124.137695312 0 c 0
 108.8046875 0 97.1376953125 5.6669921875 89.1376953125 17 c 0
 84.6923828125 23.6669921875 82.470703125 31.51953125 82.470703125 40.556640625 c 0
 82.470703125 45.0751953125 83.025390625 49.8896484375 84.13671875 55 c 0
 84.8037109375 57.6669921875 85.470703125 60 86.1376953125 62 c 0
219.6796875 646.7109375 m 1
 219.892578125 647.672851562 220.046875 648.435546875 220.140625 649 c 1
 219.962890625 648.11328125 219.809570312 647.349609375 219.6796875 646.7109375 c 1
EndSplineSet
EndChar

StartChar: E
Encoding: 69 69 44
Width: 670
GlyphClass: 2
Flags: HMW
HStem: -20 115 -6 115<505.208 564.873 512.208 564.873> 301 108.999 319 106<587.541 626.206> 589.998 107.998<503.538 534.206 484.206 555.872>
VStem: 226.207 1<640 640>
LayerCount: 2
Fore
SplineSet
302.205078125 704 m 2x8c
 317.538085938 704 329.206054688 698.663085938 337.206054688 687.99609375 c 1
 392.5390625 694.663085938 461.872070312 697.99609375 545.205078125 697.99609375 c 0
 566.538085938 697.99609375 586.87109375 697.663085938 606.204101562 696.99609375 c 0
 644.87109375 695.663085938 674.538085938 693.663085938 695.205078125 690.99609375 c 0
 711.872070312 688.99609375 723.0390625 683.829101562 728.706054688 675.49609375 c 0
 732.559570312 669.830078125 734.486328125 662.853515625 734.486328125 654.56640625 c 0
 734.486328125 650.666015625 734.059570312 646.4765625 733.206054688 641.99609375 c 0
 731.873046875 634.663085938 729.706054688 627.830078125 726.706054688 621.497070312 c 0
 723.706054688 615.1640625 719.873046875 609.331054688 715.206054688 603.998046875 c 0
 709.873046875 597.331054688 702.873046875 591.998046875 694.206054688 587.998046875 c 0
 688.206054688 585.998046875 681.873046875 584.998046875 675.206054688 584.998046875 c 2
 668.206054688 584.998046875 l 2
 626.206054688 588.331054688 581.5390625 589.998046875 534.206054688 589.998046875 c 2
 484.206054688 589.998046875 l 2
 424.873046875 588.665039062 372.873046875 585.33203125 328.206054688 579.999023438 c 1
 312.206054688 522.666015625 297.873046875 465.999023438 285.206054688 409.999023438 c 1
 333.206054688 410.666015625 398.5390625 413.333007812 481.206054688 418 c 0
 561.873046875 422.666992188 607.206054688 425 617.206054688 425 c 0
 635.206054688 425 647.0390625 420.333007812 652.706054688 411 c 0
 656.274414062 405.123046875 658.05859375 398.321289062 658.05859375 390.59375 c 0
 658.05859375 386.049804688 657.44140625 381.184570312 656.20703125 376 c 2
 656.20703125 375 l 2
 652.874023438 359 646.541015625 346.666992188 637.208007812 338 c 0
 625.208007812 325.333007812 610.541015625 319 593.208007812 319 c 0x9c
 581.875 319 533.208007812 316.333007812 447.208007812 311 c 0
 359.208007812 305 297.208007812 301.666992188 261.208007812 301 c 1
 257.875 285 254.375 269 250.708007812 253 c 0
 247.041015625 237 243.541015625 220.333007812 240.208007812 203 c 0
 230.208007812 158.333007812 224.208007812 127.333007812 222.208007812 110 c 0
 221.541015625 104 220.874023438 99 220.20703125 95 c 1xac
 232.20703125 93.6669921875 250.540039062 92.833984375 275.20703125 92.5009765625 c 0
 280.137695312 92.4345703125 285.321289062 92.4013671875 290.7578125 92.4013671875 c 0
 312.51953125 92.4013671875 338.3359375 92.9345703125 368.20703125 94.0009765625 c 0
 455.540039062 97.333984375 511.20703125 101.666992188 535.20703125 107 c 0
 545.20703125 108.333007812 553.874023438 109 561.20703125 109 c 0
 568.540039062 109 574.70703125 107.333007812 579.70703125 104 c 0
 584.70703125 100.666992188 588.70703125 97.1669921875 591.70703125 93.5 c 0
 594.70703125 89.8330078125 596.540039062 85.3330078125 597.20703125 80 c 0
 597.874023438 74.6669921875 598.20703125 70 598.20703125 66 c 0
 598.20703125 62 597.874023438 57.6669921875 597.20703125 53 c 0
 593.874023438 37.6669921875 585.541015625 23.6669921875 572.208007812 11 c 0
 560.208007812 -0.3330078125 546.208007812 -6.3330078125 530.208007812 -7 c 1
 527.541015625 1.6669921875 522.541015625 2 515.208007812 -6 c 1
 512.208007812 -6 l 2x4c
 498.208007812 -6 471.208007812 -7.3330078125 431.208007812 -10 c 0
 389.875 -12.6669921875 347.541992188 -15 304.208984375 -17 c 0
 260.875976562 -19 228.208984375 -20 206.208984375 -20 c 0
 184.875976562 -20 167.875976562 -19.3330078125 155.208984375 -18 c 0
 138.541992188 -16.6669921875 123.875 -8 111.208007812 8 c 0
 100.744140625 20.666015625 95.5126953125 35.8349609375 95.5126953125 53.505859375 c 0
 95.5126953125 57.2265625 95.744140625 61.0576171875 96.2080078125 65 c 0
 97.541015625 81 102.874023438 109 112.20703125 149 c 0
 120.874023438 185.666992188 129.70703125 222.5 138.70703125 259.5 c 0
 147.70703125 296.5 155.20703125 328 161.20703125 354 c 0
 167.20703125 380 174.540039062 415.666992188 183.20703125 461 c 0
 191.20703125 499.666992188 196.70703125 525.5 199.70703125 538.5 c 0
 202.70703125 551.5 207.540039062 570 214.20703125 594 c 0
 220.201171875 615.578125 224.0390625 630.150390625 225.721679688 637.716796875 c 1
 225.010742188 634.133789062 225.504882812 634.89453125 227.20703125 640 c 0
 232.540039062 660.666992188 241.873046875 676.5 255.206054688 687.5 c 0
 268.5390625 698.5 282.872070312 704 298.205078125 704 c 2
 302.205078125 704 l 2x8c
225.721679688 637.716796875 m 1
 225.846679688 638.344726562 226.008789062 639.10546875 226.20703125 640 c 1
 226.072265625 639.327148438 225.911132812 638.56640625 225.721679688 637.716796875 c 1
EndSplineSet
EndChar

StartChar: F
Encoding: 70 70 45
Width: 670
GlyphClass: 2
Flags: HMW
HStem: -21.002 21G<119.616 127.283 127.283 130.283> 313.498 106.502 597 110<537.615 577.615> 694 20G<300.282 305.282 305.282 313.282>
LayerCount: 2
Fore
SplineSet
305.282226562 714 m 2xd0
 321.282226562 714 332.94921875 708.666992188 340.282226562 698 c 1
 421.615234375 704 499.948242188 707 575.28125 707 c 0
 624.614257812 707 664.947265625 705.333007812 696.280273438 702 c 0
 712.947265625 700.666992188 724.114257812 695.666992188 729.78125 687 c 0
 733.969726562 680.59375 736.063476562 672.548828125 736.063476562 662.865234375 c 0
 736.063476562 659.447265625 735.802734375 655.825195312 735.28125 651.999023438 c 0
 733.28125 643.33203125 732.948242188 643.33203125 734.28125 651.999023438 c 1
 730.948242188 636.666015625 723.615234375 623.333007812 712.282226562 612 c 0
 700.94921875 600.666992188 686.282226562 595 668.282226562 595 c 2
 666.282226562 595 l 2
 632.94921875 596.333007812 596.94921875 597 558.282226562 597 c 0xe0
 486.282226562 597 410.282226562 594.333007812 330.282226562 589 c 1
 327.615234375 579 323.282226562 563.666992188 317.282226562 543 c 0
 306.615234375 503.666992188 297.615234375 467 290.282226562 433 c 0
 288.94921875 427 287.616210938 421.333007812 286.283203125 416 c 1
 312.283203125 418.666992188 340.283203125 420 370.283203125 420 c 0
 378.283203125 420 386.283203125 419.666992188 394.283203125 419 c 0
 438.283203125 418.333007812 477.950195312 416.666015625 513.283203125 413.999023438 c 0
 549.283203125 411.33203125 576.116210938 408.165039062 593.783203125 404.498046875 c 0
 611.450195312 400.831054688 622.950195312 395.1640625 628.283203125 387.497070312 c 0
 632.162109375 381.920898438 634.1015625 374.846679688 634.1015625 366.2734375 c 0
 634.1015625 363.05859375 633.829101562 359.6328125 633.283203125 355.997070312 c 1
 633.283203125 356.6640625 632.950195312 356.6640625 632.283203125 355.997070312 c 0
 628.950195312 341.997070312 623.283203125 329.6640625 615.283203125 318.997070312 c 0
 609.950195312 312.330078125 602.6171875 307.330078125 593.284179688 303.997070312 c 0
 587.284179688 301.997070312 580.951171875 300.997070312 574.284179688 300.997070312 c 2
 567.284179688 300.997070312 l 2
 549.284179688 304.330078125 522.284179688 307.330078125 486.284179688 309.997070312 c 0
 451.909179688 312.368164062 416.348632812 313.553710938 379.603515625 313.553710938 c 0
 375.014648438 313.553710938 370.408203125 313.53515625 365.783203125 313.498046875 c 0
 324.116210938 313.165039062 289.616210938 311.665039062 262.283203125 308.998046875 c 1
 244.950195312 222.331054688 226.950195312 130.998046875 208.283203125 34.998046875 c 0
 202.283203125 16.998046875 190.616210938 2.998046875 173.283203125 -7.001953125 c 0
 159.283203125 -16.3349609375 144.950195312 -21.001953125 130.283203125 -21.001953125 c 2
 127.283203125 -21.001953125 l 2
 111.950195312 -21.001953125 100.283203125 -15.3349609375 92.283203125 -4.001953125 c 0
 88.1162109375 2.248046875 86.033203125 9.669921875 86.033203125 18.263671875 c 0
 86.033203125 23.419921875 86.783203125 28.998046875 88.283203125 34.998046875 c 0
 88.9501953125 36.998046875 89.283203125 39.3310546875 89.283203125 41.998046875 c 0
 95.283203125 62.6650390625 104.283203125 97.33203125 116.283203125 145.999023438 c 0
 137.616210938 237.999023438 158.94921875 339.666015625 180.282226562 450.999023438 c 0
 188.94921875 494.33203125 195.116210938 523.499023438 198.783203125 538.499023438 c 0
 202.450195312 553.499023438 207.783203125 573.499023438 214.783203125 598.499023438 c 0
 221.783203125 623.499023438 226.283203125 640.666015625 228.283203125 649.999023438 c 0
 233.616210938 670.666015625 242.94921875 686.333007812 256.282226562 697 c 0
 269.615234375 708.333007812 284.282226562 714 300.282226562 714 c 2
 305.282226562 714 l 2xd0
EndSplineSet
EndChar

StartChar: G
Encoding: 71 71 46
Width: 670
GlyphClass: 2
Flags: HMW
HStem: -31 114<275.857 333.188> 619 105<570.523 571.52>
LayerCount: 2
Fore
SplineSet
109.184570312 142 m 2
 109.184570312 150 l 2
 109.184570312 171 111.184570312 191 116.184570312 212 c 0
 127.184570312 261 143.184570312 308 163.184570312 354 c 0
 183.184570312 400 205.184570312 442 230.184570312 479 c 0
 255.184570312 516 282.184570312 549 311.184570312 580 c 0
 342.184570312 611 373.184570312 637 404.184570312 658 c 0
 435.184570312 679 465.184570312 695 496.184570312 706 c 0
 527.184570312 718 557.184570312 724 585.184570312 724 c 0
 613.184570312 724 643.184570312 717 674.184570312 704 c 0
 705.184570312 690 724.184570312 678 732.184570312 667 c 0
 738.184570312 658 741.184570312 649 741.184570312 639 c 0
 741.184570312 634 740.184570312 629 739.184570312 624 c 0
 737.184570312 616 734.184570312 607 729.184570312 598 c 0
 723.184570312 586 713.184570312 577 699.184570312 572 c 0
 692.184570312 569 686.184570312 568 679.184570312 568 c 0
 672.184570312 568 667.184570312 569 663.184570312 571 c 0
 659.184570312 573 650.184570312 578 638.184570312 587 c 0
 626.184570312 596 614.184570312 604 601.184570312 610 c 0
 588.184570312 616 577.184570312 619 566.184570312 619 c 0
 547.184570312 619 526.184570312 613 501.184570312 601 c 0
 476.184570312 589 450.184570312 571 423.184570312 547 c 0
 396.184570312 523 371.184570312 496 347.184570312 465 c 0
 323.184570312 434 301.184570312 400 282.184570312 361 c 0
 263.184570312 322 248.184570312 284 239.184570312 245 c 0
 236.184570312 231 234.184570312 217 234.184570312 203 c 0
 234.184570312 191 235.184570312 180 238.184570312 168 c 0
 243.184570312 143 254.184570312 123 270.184570312 107 c 0
 286.184570312 91 305.184570312 83 326.184570312 83 c 0
 340.184570312 83 356.184570312 88 373.184570312 97 c 0
 390.184570312 106 408.184570312 117 424.184570312 132 c 0
 440.184570312 147 456.184570312 163 472.184570312 182 c 0
 497.184570312 211 518.184570312 240 535.184570312 270 c 1
 499.184570312 268 462.184570312 265 424.184570312 260 c 0
 386.184570312 255 359.184570312 248 343.184570312 241 c 0
 335.184570312 237 328.184570312 235 320.184570312 235 c 0
 312.184570312 235 305.184570312 237 298.184570312 242 c 0
 288.184570312 249 283.184570312 259 283.184570312 270 c 2
 283.184570312 276 l 2
 283.184570312 279 283.184570312 283 284.184570312 286 c 0
 287.184570312 300 295.184570312 313 308.184570312 324 c 0
 317.184570312 332 329.184570312 339 344.184570312 345 c 0
 367.184570312 355 411.184570312 362 476.184570312 367 c 0
 523.184570312 370 561.184570312 372 592.184570312 373 c 0
 603.184570312 373 614.184570312 373 623.184570312 372 c 0
 640.184570312 371 652.184570312 367 659.184570312 360 c 0
 665.184570312 354 668.184570312 346 668.184570312 335 c 0
 668.184570312 330 667.184570312 325 666.184570312 319 c 0
 661.184570312 299 651.184570312 285 634.184570312 276 c 1
 630.184570312 264 l 2
 629.184570312 261 627.184570312 255 625.184570312 247 c 0
 615.184570312 218 594.184570312 182 562.184570312 138 c 0
 547.184570312 117 529.184570312 97 509.184570312 76 c 0
 488.184570312 56 466.184570312 38 443.184570312 22 c 0
 420.184570312 6 396.184570312 -6 369.184570312 -16 c 0
 342.184570312 -26 316.184570312 -31 291.184570312 -31 c 0
 260.184570312 -31 233.184570312 -26 210.184570312 -17 c 0
 187.184570312 -8 169.184570312 5 155.184570312 21 c 0
 141.184570312 37 130.184570312 55 122.184570312 76 c 0
 114.184570312 97 110.184570312 119 109.184570312 142 c 2
EndSplineSet
EndChar

StartChar: H
Encoding: 72 72 47
Width: 670
GlyphClass: 2
Flags: HMW
HStem: -21 21G<126.867 134.534 134.534 137.534> 312 86.0049 694.005 20G<316.534 320.534 320.534 327.867>
LayerCount: 2
Fore
SplineSet
94.533203125 34 m 0
 95.2001953125 36.6669921875 96.2021484375 39.3369140625 97.53515625 42.00390625 c 0
 102.868164062 60.00390625 113.53515625 104.336914062 129.53515625 175.00390625 c 0
 138.868164062 215.670898438 151.03515625 265.170898438 166.03515625 323.50390625 c 2
 193.03515625 428.50390625 l 2
 196.03515625 440.170898438 198.868164062 451.837890625 201.53515625 463.504882812 c 0
 204.202148438 475.171875 208.369140625 494.671875 214.036132812 522.004882812 c 0
 219.703125 549.337890625 223.703125 567.504882812 226.036132812 576.504882812 c 0
 228.369140625 585.504882812 230.702148438 594.671875 233.03515625 604.004882812 c 0
 235.368164062 613.337890625 236.868164062 619.170898438 237.53515625 621.50390625 c 0
 238.202148438 623.836914062 238.869140625 626.50390625 239.536132812 629.50390625 c 0
 240.203125 632.50390625 241.036132812 635.50390625 242.036132812 638.50390625 c 0
 243.036132812 641.50390625 243.869140625 644.170898438 244.536132812 646.50390625 c 2
 245.536132812 650.00390625 l 2
 250.869140625 670.670898438 260.202148438 686.337890625 273.53515625 697.004882812 c 0
 286.868164062 708.337890625 301.201171875 714.004882812 316.534179688 714.004882812 c 2
 320.534179688 714.004882812 l 2
 335.201171875 714.004882812 346.868164062 709.337890625 355.53515625 700.004882812 c 0
 362.056640625 693.047851562 365.317382812 683.681640625 365.317382812 671.904296875 c 0
 365.317382812 665.624023438 364.389648438 658.657226562 362.53515625 651.004882812 c 0
 361.202148438 643.671875 357.03515625 629.004882812 350.03515625 607.004882812 c 0
 343.03515625 585.004882812 337.53515625 565.171875 333.53515625 547.504882812 c 0
 329.53515625 529.837890625 324.202148438 505.004882812 317.53515625 473.004882812 c 0
 310.868164062 441.004882812 305.53515625 416.004882812 301.53515625 398.004882812 c 1
 356.202148438 398.671875 422.869140625 404.671875 501.536132812 416.004882812 c 0
 524.869140625 419.337890625 543.202148438 421.670898438 556.53515625 423.00390625 c 0
 557.202148438 425.670898438 558.03515625 430.170898438 559.03515625 436.50390625 c 0
 560.03515625 442.836914062 563.03515625 457.669921875 568.03515625 481.002929688 c 0
 573.03515625 504.3359375 577.03515625 522.502929688 580.03515625 535.502929688 c 0
 583.03515625 548.502929688 588.202148438 569.002929688 595.53515625 597.002929688 c 0
 602.868164062 625.002929688 607.53515625 642.002929688 609.53515625 648.002929688 c 0
 614.868164062 669.3359375 624.53515625 685.668945312 638.53515625 697.001953125 c 0
 652.53515625 708.334960938 666.868164062 714.001953125 681.53515625 714.001953125 c 2
 685.53515625 714.001953125 l 2
 700.868164062 714.001953125 712.53515625 709.334960938 720.53515625 700.001953125 c 0
 726.756835938 692.890625 729.868164062 683.41015625 729.868164062 671.55859375 c 0
 729.868164062 665.631835938 729.08984375 659.11328125 727.534179688 652.001953125 c 0
 724.8671875 639.334960938 718.534179688 614.334960938 708.534179688 577.001953125 c 0
 696.534179688 530.334960938 686.3671875 488.501953125 678.034179688 451.501953125 c 0
 669.701171875 414.501953125 663.201171875 385.168945312 658.534179688 363.501953125 c 0
 653.8671875 341.834960938 649.8671875 321.66796875 646.534179688 303.000976562 c 0
 637.8671875 266.333984375 625.8671875 219.500976562 610.534179688 162.500976562 c 0
 595.201171875 105.500976562 585.201171875 65.66796875 580.534179688 43.0009765625 c 2
 578.534179688 35.0009765625 l 2
 573.201171875 17.0009765625 562.201171875 3.0009765625 545.534179688 -6.9990234375 c 0
 531.534179688 -16.33203125 517.201171875 -20.9990234375 502.534179688 -20.9990234375 c 2
 499.534179688 -20.9990234375 l 2
 484.201171875 -20.9990234375 472.534179688 -15.33203125 464.534179688 -3.9990234375 c 0
 459.7890625 2.9033203125 457.416992188 10.921875 457.416992188 20.056640625 c 0
 457.416992188 25.0390625 458.122070312 30.3544921875 459.534179688 36.0009765625 c 0
 460.201171875 38.0009765625 460.534179688 40.333984375 460.534179688 43.0009765625 c 0
 485.8671875 126.333984375 510.534179688 219.666992188 534.534179688 323 c 2
 538.534179688 341 l 1
 517.201171875 339 476.534179688 333.833007812 416.534179688 325.5 c 0
 356.534179688 317.166992188 310.534179688 312.666992188 278.534179688 312 c 1
 277.201171875 307.333007812 276.534179688 304.333007812 276.534179688 303 c 0
 266.534179688 269.666992188 256.3671875 231 246.034179688 187 c 0
 235.701171875 143 225.201171875 92.6669921875 214.534179688 36 c 0
 207.8671875 17.3330078125 196.534179688 3 180.534179688 -7 c 0
 166.534179688 -16.3330078125 152.201171875 -21 137.534179688 -21 c 2
 134.534179688 -21 l 2
 119.201171875 -21 107.534179688 -15.3330078125 99.5341796875 -4 c 0
 95.0888671875 2.6669921875 92.8671875 10.51953125 92.8671875 19.556640625 c 0
 92.8671875 24.0751953125 93.421875 28.8896484375 94.533203125 34 c 0
EndSplineSet
EndChar

StartChar: I
Encoding: 73 73 48
Width: 670
GlyphClass: 2
Flags: HMW
HStem: -11.002 103<533.82 545.32 533.82 533.82> -6.00098 97.999<430.487 554.824> 600.997 108.999<323.824 507.49 331.824 507.49>
LayerCount: 2
Fore
SplineSet
217.8203125 -12 m 1x60
 176.487304688 -13.3330078125 148.16015625 -14.001953125 132.827148438 -14.001953125 c 0
 114.16015625 -14.001953125 100.827148438 -9.6689453125 92.8271484375 -1.001953125 c 0
 86.5673828125 5.2578125 83.4375 12.908203125 83.4375 21.9501953125 c 0
 83.4375 25.4267578125 83.900390625 29.109375 84.826171875 32.998046875 c 2
 84.826171875 35.998046875 l 2
 87.4931640625 49.3310546875 94.826171875 60.8310546875 106.826171875 70.498046875 c 0
 118.826171875 80.1650390625 134.159179688 85.6650390625 152.826171875 86.998046875 c 1
 154.159179688 92.3310546875 154.4921875 92.3310546875 153.825195312 86.998046875 c 1
 179.158203125 88.3310546875 223.825195312 89.6640625 287.825195312 90.9970703125 c 1
 308.4921875 160.330078125 327.4921875 232.663085938 344.825195312 307.99609375 c 0
 354.158203125 347.329101562 362.825195312 386.99609375 370.825195312 426.99609375 c 0
 376.158203125 455.663085938 382.491210938 486.663085938 389.82421875 519.99609375 c 0
 391.157226562 527.329101562 392.657226562 534.329101562 394.32421875 540.99609375 c 0
 395.991210938 547.663085938 398.82421875 557.830078125 402.82421875 571.497070312 c 0
 406.82421875 585.1640625 409.82421875 594.997070312 411.82421875 600.997070312 c 1
 331.82421875 600.997070312 l 2
 315.82421875 600.997070312 299.157226562 600.6640625 281.82421875 599.997070312 c 2
 279.82421875 599.997070312 l 2
 262.491210938 599.997070312 249.82421875 604.6640625 241.82421875 613.997070312 c 0
 235.82421875 620.997070312 232.82421875 629.68359375 232.82421875 640.05859375 c 0
 232.82421875 643.516601562 233.157226562 647.163085938 233.82421875 650.99609375 c 0
 233.82421875 651.663085938 234.157226562 652.663085938 234.82421875 653.99609375 c 0
 238.157226562 667.99609375 245.82421875 680.49609375 257.82421875 691.49609375 c 0
 269.82421875 702.49609375 285.491210938 707.99609375 304.82421875 707.99609375 c 0
 358.82421875 709.329101562 410.157226562 709.99609375 458.82421875 709.99609375 c 0
 556.157226562 709.99609375 635.157226562 706.99609375 695.82421875 700.99609375 c 0
 709.82421875 699.663085938 720.491210938 695.330078125 727.82421875 687.997070312 c 0
 734.701171875 681.120117188 738.139648438 672.071289062 738.139648438 660.850585938 c 0
 738.139648438 656.84375 737.701171875 652.559570312 736.82421875 647.998046875 c 0
 733.491210938 633.331054688 726.158203125 619.6640625 714.825195312 606.997070312 c 0
 708.825195312 599.6640625 701.158203125 593.997070312 691.825195312 589.997070312 c 0
 685.825195312 587.997070312 680.158203125 586.6640625 674.825195312 585.997070312 c 0
 671.4921875 585.997070312 668.159179688 586.330078125 664.826171875 586.997070312 c 0
 648.826171875 589.6640625 606.493164062 593.331054688 537.826171875 597.998046875 c 1
 535.826171875 590.665039062 532.493164062 577.33203125 527.826171875 557.999023438 c 0
 523.159179688 539.33203125 519.4921875 524.999023438 516.825195312 514.999023438 c 0
 514.158203125 504.999023438 511.491210938 494.666015625 508.82421875 483.999023438 c 0
 499.491210938 443.999023438 492.32421875 411.33203125 487.32421875 385.999023438 c 0
 482.32421875 360.666015625 476.657226562 334.666015625 470.32421875 307.999023438 c 0
 463.991210938 281.33203125 454.32421875 243.665039062 441.32421875 194.998046875 c 0
 428.32421875 146.331054688 419.491210938 112.331054688 414.82421875 92.998046875 c 1
 441.491210938 92.998046875 462.82421875 92.6650390625 478.82421875 91.998046875 c 2
 554.82421875 91.998046875 l 1
 556.157226562 97.3310546875 556.490234375 97.3310546875 555.823242188 91.998046875 c 1xa0
 557.15625 97.3310546875 557.489257812 97.3310546875 556.822265625 91.998046875 c 1
 558.155273438 97.3310546875 558.48828125 97.3310546875 557.821289062 91.998046875 c 1x60
 559.154296875 97.3310546875 559.487304688 97.3310546875 558.8203125 91.998046875 c 1
 576.8203125 91.998046875 588.653320312 87.498046875 594.3203125 78.498046875 c 0
 598.173828125 72.3779296875 600.100585938 65.1025390625 600.100585938 56.6708984375 c 0
 600.100585938 52.7021484375 599.673828125 48.478515625 598.8203125 43.998046875 c 0
 597.487304688 37.3310546875 595.487304688 30.998046875 592.8203125 24.998046875 c 0
 590.153320312 18.998046875 586.486328125 12.998046875 581.819335938 6.998046875 c 0
 575.819335938 -0.3349609375 568.486328125 -5.3349609375 559.819335938 -8.001953125 c 0
 554.486328125 -10.001953125 549.653320312 -11.001953125 545.3203125 -11.001953125 c 2
 533.8203125 -11.001953125 l 2xa0
 517.8203125 -8.3349609375 490.153320312 -6.66796875 450.8203125 -6.0009765625 c 0
 410.153320312 -6.0009765625 372.8203125 -6.66796875 338.8203125 -8.0009765625 c 1
 322.708007812 -5.22265625 306.306640625 -3.833984375 289.616210938 -3.833984375 c 0
 266.250976562 -3.833984375 242.319335938 -6.5556640625 217.8203125 -12 c 1x60
EndSplineSet
EndChar

StartChar: J
Encoding: 74 74 49
Width: 670
GlyphClass: 2
Flags: HMW
HStem: -34.998 125.999<313.813 319.482> 600.001 109.999<437.147 467.148>
LayerCount: 2
Fore
SplineSet
495.1484375 217 m 0
 457.815429688 101 418.48046875 26.3349609375 377.147460938 -6.998046875 c 0
 355.147460938 -25.6650390625 331.814453125 -34.998046875 307.147460938 -34.998046875 c 0
 282.48046875 -34.998046875 259.48046875 -30.6650390625 238.147460938 -21.998046875 c 0
 216.814453125 -13.3310546875 199.147460938 -2.3310546875 185.147460938 11.001953125 c 0
 172.48046875 25.001953125 161.313476562 40.1689453125 151.646484375 56.501953125 c 0
 141.979492188 72.8349609375 134.479492188 89.001953125 129.146484375 105.001953125 c 0
 123.813476562 121.001953125 120.146484375 135.501953125 118.146484375 148.501953125 c 0
 116.646484375 158.251953125 115.896484375 166.782226562 115.896484375 174.094726562 c 0
 115.896484375 176.532226562 115.979492188 178.834960938 116.146484375 181.001953125 c 0
 116.146484375 188.334960938 117.646484375 196.501953125 120.646484375 205.501953125 c 0
 123.646484375 214.501953125 127.146484375 223.001953125 131.146484375 231.001953125 c 0
 135.813476562 241.001953125 142.646484375 249.501953125 151.646484375 256.501953125 c 0
 160.646484375 263.501953125 171.146484375 268.334960938 183.146484375 271.001953125 c 0
 187.146484375 271.668945312 191.146484375 271.668945312 195.146484375 271.001953125 c 0
 207.813476562 271.001953125 217.146484375 267.001953125 223.146484375 259.001953125 c 0
 228.479492188 251.890625 231.146484375 243.446289062 231.146484375 233.66796875 c 0
 231.146484375 228.779296875 230.479492188 223.556640625 229.146484375 218.000976562 c 0
 227.864257812 212.103515625 227.223632812 205.6640625 227.223632812 198.682617188 c 0
 227.223632812 187.510742188 228.864257812 174.950195312 232.146484375 161.000976562 c 0
 234.813476562 148.333984375 239.313476562 136.833984375 245.646484375 126.500976562 c 0
 251.979492188 116.16796875 261.8125 107.66796875 275.145507812 101.000976562 c 0
 288.478515625 94.333984375 304.478515625 91.0009765625 323.145507812 91.0009765625 c 0
 323.8125 91.0009765625 324.8125 91.333984375 326.145507812 92.0009765625 c 0
 330.8125 95.333984375 336.479492188 103.000976562 343.146484375 115.000976562 c 0
 358.479492188 143.000976562 373.479492188 186.333984375 388.146484375 245.000976562 c 2
 388.646484375 247.000976562 l 2
 388.979492188 248.333984375 390.479492188 255.166992188 393.146484375 267.5 c 0
 395.813476562 279.833007812 402.813476562 313 414.146484375 367 c 0
 430.813476562 447.666992188 448.48046875 525.333984375 467.147460938 600.000976562 c 1
 432.48046875 601.000976562 399.897460938 601.500976562 369.397460938 601.500976562 c 0
 338.897460938 601.500976562 310.48046875 601.000976562 284.147460938 600.000976562 c 2
 282.147460938 600.000976562 l 2
 264.814453125 600.000976562 252.147460938 604.66796875 244.147460938 614.000976562 c 0
 238.5 620.588867188 235.676757812 628.671875 235.676757812 638.25 c 0
 235.676757812 642.240234375 236.166992188 646.490234375 237.147460938 651 c 2
 237.147460938 654 l 2
 240.48046875 668 248.313476562 680.5 260.646484375 691.5 c 0
 272.979492188 702.5 288.479492188 708 307.146484375 708 c 0
 361.813476562 709.333007812 413.146484375 710 461.146484375 710 c 0
 558.479492188 710 637.479492188 707 698.146484375 701 c 0
 712.146484375 699.666992188 722.479492188 695.333984375 729.146484375 688.000976562 c 0
 736.405273438 680.7421875 740.034179688 671.063476562 740.034179688 658.965820312 c 0
 740.034179688 655.508789062 739.73828125 651.854492188 739.145507812 648.001953125 c 0
 735.8125 633.334960938 728.479492188 619.66796875 717.146484375 607.000976562 c 0
 711.146484375 599.66796875 703.479492188 594.000976562 694.146484375 590.000976562 c 0
 688.146484375 588.000976562 682.479492188 586.66796875 677.146484375 586.000976562 c 0
 673.813476562 586.000976562 670.146484375 586.333984375 666.146484375 587.000976562 c 0
 647.479492188 590.333984375 618.146484375 593.333984375 578.146484375 596.000976562 c 1
 574.813476562 579.333984375 563.48046875 521.000976562 544.147460938 421.000976562 c 0
 538.814453125 393.66796875 533.981445312 370.66796875 529.6484375 352.000976562 c 0
 525.315429688 333.333984375 522.815429688 321.666992188 522.1484375 317 c 0
 512.1484375 275 503.1484375 241.666992188 495.1484375 217 c 0
EndSplineSet
EndChar

StartChar: K
Encoding: 75 75 50
Width: 670
GlyphClass: 2
Flags: HMW
HStem: -21 21G<124.186 131.852 131.852 134.851> 693.998 21G
LayerCount: 2
Fore
SplineSet
134.850585938 -21 m 2
 131.8515625 -21 l 2
 116.518554688 -21 104.518554688 -16.6669921875 95.8515625 -8 c 0
 90.8095703125 -2.5 88.2890625 4.2607421875 88.2890625 12.2822265625 c 0
 88.2890625 15.927734375 88.8095703125 19.833984375 89.8515625 24 c 0
 90.5185546875 26.6669921875 91.5185546875 29.333984375 92.8515625 32.0009765625 c 0
 99.5185546875 53.333984375 108.185546875 88.6669921875 118.852539062 138 c 0
 140.852539062 233.333007812 163.185546875 338.666015625 185.852539062 453.999023438 c 0
 194.51953125 495.999023438 200.51953125 524.999023438 203.852539062 540.999023438 c 0
 207.185546875 556.33203125 212.852539062 577.999023438 220.852539062 605.999023438 c 0
 228.852539062 634.666015625 233.852539062 652.666015625 235.852539062 659.999023438 c 0
 240.51953125 677.33203125 249.186523438 690.999023438 261.853515625 700.999023438 c 0
 274.296875 709.709960938 287.612304688 714.064453125 301.797851562 714.064453125 c 0
 302.811523438 714.064453125 303.830078125 714.04296875 304.852539062 713.998046875 c 2
 307.852539062 713.998046875 l 2
 322.51953125 713.998046875 334.51953125 710.331054688 343.852539062 702.998046875 c 0
 350.995117188 696.807617188 354.56640625 688.236328125 354.56640625 677.284179688 c 0
 354.56640625 672.90234375 353.995117188 668.140625 352.852539062 662.998046875 c 0
 349.51953125 646.998046875 341.51953125 615.331054688 328.852539062 567.998046875 c 0
 316.185546875 521.331054688 306.518554688 482.998046875 299.8515625 452.998046875 c 1
 327.184570312 472.998046875 366.517578125 501.665039062 417.850585938 538.998046875 c 0
 529.850585938 627.665039062 596.18359375 679.33203125 616.850585938 693.999023438 c 0
 629.517578125 702.666015625 640.850585938 708.666015625 650.850585938 711.999023438 c 0
 657.517578125 713.999023438 663.184570312 714.999023438 667.8515625 714.999023438 c 0
 672.518554688 714.999023438 676.185546875 714.666015625 678.852539062 713.999023438 c 0
 686.185546875 711.999023438 692.518554688 708.33203125 697.8515625 702.999023438 c 0
 705.184570312 694.999023438 707.8515625 685.999023438 705.8515625 675.999023438 c 0
 701.8515625 657.999023438 690.518554688 638.666015625 671.8515625 617.999023438 c 0
 659.184570312 605.33203125 617.184570312 568.999023438 545.8515625 508.999023438 c 0
 473.184570312 452.999023438 409.517578125 404.33203125 354.850585938 362.999023438 c 1
 372.850585938 338.999023438 402.18359375 303.33203125 442.850585938 255.999023438 c 0
 484.18359375 211.33203125 519.850585938 170.999023438 549.850585938 134.999023438 c 0
 565.18359375 112.999023438 576.18359375 95.666015625 582.850585938 82.9990234375 c 0
 590.18359375 67.666015625 593.850585938 56.9990234375 593.850585938 50.9990234375 c 0
 593.850585938 42.33203125 593.18359375 33.9990234375 591.850585938 25.9990234375 c 0
 590.517578125 20.666015625 588.184570312 15.3330078125 584.8515625 10 c 0
 578.184570312 0.6669921875 569.184570312 -6.666015625 557.8515625 -11.9990234375 c 0
 543.306640625 -18.0595703125 533.719726562 -21.08984375 529.091796875 -21.08984375 c 0
 528.62890625 -21.08984375 528.215820312 -21.0595703125 527.8515625 -20.9990234375 c 2
 526.8515625 -20.9990234375 l 2
 510.184570312 -20.9990234375 496.517578125 -12.666015625 485.850585938 4.0009765625 c 0
 481.850585938 12.0009765625 463.517578125 35.0009765625 430.850585938 73.0009765625 c 0
 398.18359375 110.333984375 363.18359375 151.333984375 325.850585938 196.000976562 c 0
 297.850585938 225.333984375 275.517578125 250.333984375 258.850585938 271.000976562 c 1
 210.850585938 25.0009765625 l 2
 205.517578125 10.333984375 194.517578125 -1.3330078125 177.850585938 -10 c 0
 163.850585938 -17.3330078125 149.517578125 -21 134.850585938 -21 c 2
EndSplineSet
EndChar

StartChar: L
Encoding: 76 76 51
Width: 670
GlyphClass: 2
Flags: HMW
HStem: -9 105 686 20G<326.855 329.855 329.855 337.522>
LayerCount: 2
Fore
SplineSet
88.8564453125 26 m 0
 88.8564453125 31 89.8564453125 36 90.8564453125 41 c 0
 91.8564453125 43 91.8564453125 46 92.8564453125 50 c 0
 93.8564453125 54 105.856445312 90 128.856445312 159 c 0
 151.856445312 228 172.856445312 294 189.856445312 357 c 0
 194.856445312 376 200.856445312 400 207.856445312 428 c 0
 213.822265625 452.856445312 229.673828125 523.188476562 254.427734375 638.994140625 c 0
 254.541015625 639.791015625 254.68359375 640.791015625 254.856445312 642 c 0
 259.856445312 663 268.856445312 679 282.856445312 690 c 0
 296.856445312 701 311.856445312 706 326.856445312 706 c 2
 329.856445312 706 l 2
 344.856445312 706 356.856445312 701 365.856445312 692 c 0
 372.856445312 685 376.856445312 676 376.856445312 664 c 0
 376.856445312 658 375.856445312 652 373.856445312 645 c 0
 369.856445312 626 363.856445312 601 354.856445312 569 c 0
 343.856445312 526 332.856445312 485 322.856445312 447 c 0
 311.856445312 406 299.856445312 364 288.856445312 321 c 0
 281.856445312 294 269.856445312 256 254.856445312 208 c 0
 239.856445312 160 229.856445312 123 222.856445312 96 c 1
 225.856445312 104 225.856445312 104 224.856445312 96 c 1
 277.856445312 96 340.856445312 99 413.856445312 106 c 0
 484.856445312 113 532.856445312 119 556.856445312 125 c 0
 560.856445312 126 564.856445312 127 569.856445312 127 c 0
 574.856445312 127 578.856445312 126 582.856445312 125 c 0
 589.856445312 122 595.856445312 116 599.856445312 108 c 0
 602.856445312 101 603.856445312 94 603.856445312 87 c 0
 604.856445312 79 603.856445312 72 602.856445312 66 c 0
 599.856445312 51 592.856445312 40 582.856445312 30 c 0
 572.856445312 20 559.856445312 13 540.856445312 10 c 0
 495.856445312 1 425.856445312 -5 331.856445312 -9 c 0
 237.856445312 -13 170.856445312 -15 129.856445312 -15 c 0
 114.856445312 -15 102.856445312 -9 95.8564453125 2 c 0
 91.8564453125 9 88.8564453125 17 88.8564453125 26 c 0
EndSplineSet
EndChar

StartChar: M
Encoding: 77 77 52
Width: 670
GlyphClass: 2
Flags: HMW
HStem: -10.002 21G<103.07 106.404 106.404 108.404>
LayerCount: 2
Fore
SplineSet
179.407226562 63 m 2
 177.40234375 52.998046875 l 2
 173.40234375 34.998046875 165.069335938 19.998046875 152.40234375 7.998046875 c 0
 138.40234375 -4.001953125 123.735351562 -10.001953125 108.40234375 -10.001953125 c 2
 106.40234375 -10.001953125 l 2
 99.7353515625 -10.001953125 93.7353515625 -8.6689453125 88.40234375 -6.001953125 c 0
 81.0693359375 -2.001953125 76.40234375 5.3310546875 74.40234375 15.998046875 c 0
 74.1064453125 18.6640625 73.9580078125 21.52734375 73.9580078125 24.5888671875 c 0
 73.9580078125 35.3046875 75.7734375 48.44140625 79.4033203125 63.998046875 c 0
 81.4033203125 72.6650390625 85.4033203125 86.998046875 91.4033203125 106.998046875 c 0
 97.4033203125 126.331054688 105.736328125 151.998046875 116.403320312 183.998046875 c 0
 127.736328125 217.998046875 140.403320312 258.331054688 154.403320312 304.998046875 c 0
 168.403320312 351.665039062 180.0703125 388.998046875 189.403320312 416.998046875 c 0
 219.403320312 512.998046875 241.736328125 579.665039062 256.403320312 616.998046875 c 0
 265.736328125 640.331054688 274.069335938 656.6640625 281.40234375 665.997070312 c 0
 292.069335938 679.997070312 305.736328125 689.997070312 322.403320312 695.997070312 c 0
 336.403320312 701.330078125 350.0703125 703.997070312 363.403320312 703.997070312 c 2
 369.403320312 703.997070312 l 2
 384.736328125 703.997070312 396.736328125 701.6640625 405.403320312 696.997070312 c 0
 418.0703125 690.997070312 425.0703125 680.997070312 426.403320312 666.997070312 c 0
 426.645507812 661.6640625 426.766601562 655.703125 426.766601562 649.114257812 c 0
 426.766601562 619.461914062 424.3125 577.08984375 419.403320312 521.998046875 c 0
 413.403320312 454.665039062 405.403320312 377.998046875 395.403320312 291.998046875 c 0
 393.403320312 272.665039062 391.403320312 254.665039062 389.403320312 237.998046875 c 1
 404.736328125 285.998046875 419.403320312 331.331054688 433.403320312 373.998046875 c 0
 452.0703125 429.331054688 473.0703125 484.331054688 496.403320312 538.998046875 c 0
 519.736328125 594.331054688 538.736328125 636.998046875 553.403320312 666.998046875 c 0
 558.736328125 676.998046875 567.736328125 685.331054688 580.403320312 691.998046875 c 0
 591.736328125 697.998046875 603.069335938 701.665039062 614.40234375 702.998046875 c 0
 621.735351562 703.665039062 627.735351562 704.165039062 632.40234375 704.498046875 c 0
 637.069335938 704.831054688 640.736328125 704.6640625 643.403320312 703.997070312 c 2
 647.403320312 703.997070312 l 1
 661.903320312 703.997070312 l 2
 665.5703125 703.997070312 670.403320312 702.997070312 676.403320312 700.997070312 c 0
 683.0703125 699.6640625 688.403320312 697.6640625 692.403320312 694.997070312 c 0
 696.403320312 692.330078125 699.736328125 688.330078125 702.403320312 682.997070312 c 0
 705.0703125 676.997070312 706.403320312 669.997070312 706.403320312 661.997070312 c 0
 704.403320312 641.997070312 689.0703125 544.997070312 660.403320312 370.997070312 c 0
 632.403320312 197.6640625 618.403320312 99.6640625 618.403320312 76.9970703125 c 0
 618.403320312 63.6640625 616.736328125 51.3310546875 613.403320312 39.998046875 c 0
 611.403320312 30.6650390625 607.736328125 22.6650390625 602.403320312 15.998046875 c 0
 595.0703125 6.6650390625 585.0703125 -0.001953125 572.403320312 -4.001953125 c 0
 565.0703125 -6.001953125 557.737304688 -7.1689453125 550.404296875 -7.501953125 c 0
 543.071289062 -7.8349609375 535.73828125 -6.001953125 528.405273438 -2.001953125 c 0
 515.73828125 4.6650390625 508.405273438 18.33203125 506.405273438 38.9990234375 c 0
 506.20703125 41.3798828125 506.107421875 44.16796875 506.107421875 47.36328125 c 0
 506.107421875 97.857421875 530.874023438 250.069335938 580.40625 503.999023438 c 1
 560.40625 452.666015625 543.40625 403.999023438 529.40625 357.999023438 c 0
 505.40625 281.999023438 480.739257812 209.999023438 455.40625 141.999023438 c 0
 429.40625 73.9990234375 411.073242188 32.33203125 400.40625 16.9990234375 c 0
 387.073242188 0.9990234375 363.073242188 -7.0009765625 328.40625 -7.0009765625 c 2
 323.40625 -7.0009765625 l 2
 310.073242188 -7.0009765625 299.073242188 -5.0009765625 290.40625 -1.0009765625 c 0
 279.739257812 3.666015625 273.739257812 10.3330078125 272.40625 19 c 0
 272.354492188 21.4619140625 272.329101562 24.16796875 272.329101562 27.115234375 c 0
 272.329101562 62.4775390625 276.021484375 132.772460938 283.40625 238 c 0
 288.739257812 316 294.40625 391.666992188 300.40625 465 c 1
 296.40625 451.666992188 289.073242188 427.666992188 278.40625 393 c 2
 263.40625 340 l 1
 236.40625 252 l 2
 228.40625 224.666992188 219.739257812 196.333984375 210.40625 167.000976562 c 0
 203.073242188 144.333984375 195.740234375 120.666992188 188.407226562 96 c 0
 183.740234375 81.3330078125 180.740234375 70.3330078125 179.407226562 63 c 2
EndSplineSet
EndChar

StartChar: N
Encoding: 78 78 53
Width: 670
GlyphClass: 2
Flags: HMW
HStem: -11.999 21G<116.391 133.059> 685.001 20G<308.06 317.394 680.727 696.06>
VStem: 90.724 100.002
LayerCount: 2
Fore
SplineSet
297.727539062 486 m 1
 291.727539062 456 286.39453125 431.000976562 281.727539062 411.000976562 c 0
 277.060546875 389.66796875 270.060546875 359.66796875 260.727539062 321.000976562 c 0
 251.39453125 283.000976562 239.727539062 237.000976562 225.727539062 183.000976562 c 0
 211.727539062 127.66796875 202.727539062 93.0009765625 198.727539062 79.0009765625 c 0
 195.39453125 65.0009765625 193.39453125 56.0009765625 192.727539062 52.0009765625 c 0
 192.060546875 48.66796875 191.393554688 45.66796875 190.7265625 43.0009765625 c 0
 186.7265625 25.0009765625 178.7265625 11.333984375 166.7265625 2.0009765625 c 0
 154.059570312 -7.33203125 140.392578125 -11.9990234375 125.725585938 -11.9990234375 c 0
 107.05859375 -11.9990234375 95.3916015625 -5.9990234375 90.724609375 6.0009765625 c 0
 89.7548828125 10.365234375 89.26953125 15.3017578125 89.26953125 20.8115234375 c 0
 89.26953125 30.453125 90.7548828125 41.849609375 93.724609375 55.0009765625 c 0
 96.3916015625 68.333984375 109.05859375 120.000976562 131.725585938 210.000976562 c 0
 166.392578125 348.66796875 190.059570312 444.000976562 202.7265625 496.000976562 c 0
 214.7265625 548.000976562 224.7265625 595.333984375 232.7265625 638.000976562 c 0
 233.393554688 640.66796875 234.060546875 643.66796875 234.727539062 647.000976562 c 0
 236.727539062 657.000976562 240.727539062 665.66796875 246.727539062 673.000976562 c 0
 253.39453125 682.333984375 261.727539062 689.333984375 271.727539062 694.000976562 c 0
 285.727539062 701.333984375 300.39453125 705.000976562 315.727539062 705.000976562 c 0
 319.060546875 705.000976562 322.393554688 704.66796875 325.7265625 704.000976562 c 0
 339.7265625 704.000976562 351.059570312 701.66796875 359.7265625 697.000976562 c 0
 372.393554688 691.000976562 379.393554688 681.000976562 380.7265625 667.000976562 c 0
 384.7265625 624.333984375 405.393554688 545.333984375 442.7265625 430.000976562 c 0
 474.059570312 332.66796875 502.059570312 251.66796875 526.7265625 187.000976562 c 1
 541.393554688 244.333984375 558.7265625 319.333984375 578.7265625 412.000976562 c 0
 604.7265625 530.000976562 620.059570312 608.000976562 624.7265625 646.000976562 c 0
 625.393554688 650.000976562 626.060546875 653.66796875 626.727539062 657.000976562 c 0
 629.39453125 669.000976562 635.727539062 679.333984375 645.727539062 688.000976562 c 0
 658.39453125 699.333984375 672.727539062 705.000976562 688.727539062 705.000976562 c 0
 703.39453125 705.000976562 714.727539062 702.333984375 722.727539062 697.000976562 c 0
 726.727539062 694.333984375 729.727539062 690.333984375 731.727539062 685.000976562 c 0
 732.39453125 679.66796875 732.727539062 675.000976562 732.727539062 671.000976562 c 0
 732.727539062 666.333984375 732.060546875 659.333984375 730.727539062 650.000976562 c 0
 730.060546875 638.66796875 718.727539062 585.334960938 696.727539062 490.001953125 c 0
 693.39453125 476.001953125 690.39453125 462.001953125 687.727539062 448.001953125 c 0
 668.39453125 364.668945312 647.39453125 278.668945312 624.727539062 190.001953125 c 0
 610.060546875 132.668945312 598.060546875 90.001953125 588.727539062 62.001953125 c 0
 580.060546875 35.3349609375 573.060546875 18.3349609375 567.727539062 11.001953125 c 0
 555.060546875 -4.998046875 532.727539062 -13.3310546875 500.727539062 -13.998046875 c 2
 496.727539062 -13.998046875 l 2
 484.727539062 -13.998046875 474.727539062 -11.6650390625 466.727539062 -6.998046875 c 0
 456.727539062 -1.6650390625 450.727539062 5.001953125 448.727539062 13.001953125 c 0
 445.39453125 26.3349609375 436.061523438 55.66796875 420.728515625 101.000976562 c 0
 404.728515625 148.333984375 388.061523438 193.666992188 370.728515625 237 c 0
 354.061523438 286.333007812 337.39453125 341 320.727539062 401 c 0
 311.39453125 431.666992188 303.727539062 460 297.727539062 486 c 1
EndSplineSet
EndChar

StartChar: O
Encoding: 79 79 54
Width: 670
GlyphClass: 2
Flags: HMW
HStem: -24 108<292.169 334.838> 612.001 105.999<495.171 502.504>
VStem: 138.169 111.999<161.501 244.667>
LayerCount: 2
Fore
SplineSet
689.170898438 480 m 0
 688.50390625 477.333007812 688.501953125 477.333984375 689.168945312 480.000976562 c 1
 677.8359375 406.000976562 661.502929688 333.333984375 640.169921875 262.000976562 c 0
 628.169921875 222.66796875 617.169921875 192.334960938 607.169921875 171.001953125 c 0
 591.836914062 139.668945312 575.336914062 112.668945312 557.669921875 90.001953125 c 0
 540.002929688 67.3349609375 521.8359375 48.66796875 503.168945312 34.0009765625 c 0
 484.501953125 19.333984375 463.501953125 7.6669921875 440.168945312 -1 c 0
 416.168945312 -9.6669921875 392.668945312 -15.6669921875 369.668945312 -19 c 0
 346.668945312 -22.3330078125 320.8359375 -24 292.168945312 -24 c 0
 248.168945312 -23.3330078125 212.168945312 -10.666015625 184.168945312 14.0009765625 c 0
 157.501953125 39.333984375 140.501953125 72.6669921875 133.168945312 114 c 0
 130.181640625 130.295898438 128.6875 147.14453125 128.6875 164.545898438 c 0
 128.6875 189.860351562 131.848632812 216.344726562 138.169921875 244 c 0
 138.169921875 245.333007812 138.502929688 247.333007812 139.169921875 250 c 0
 140.502929688 257.333007812 141.8359375 262.666015625 143.168945312 265.999023438 c 0
 149.8359375 294.666015625 155.502929688 317.833007812 160.169921875 335.5 c 0
 164.836914062 353.166992188 171.50390625 376.666992188 180.170898438 406 c 0
 197.50390625 463.333007812 220.50390625 516.666015625 249.170898438 565.999023438 c 0
 276.50390625 610.666015625 314.170898438 647.333007812 362.170898438 676 c 0
 413.50390625 704 467.170898438 718 523.170898438 718 c 0
 551.837890625 718 578.170898438 712.666992188 602.170898438 702 c 0
 625.50390625 691.333007812 644.50390625 676 659.170898438 656 c 0
 673.837890625 636 683.837890625 611 689.170898438 581 c 0
 691.836914062 566 693.170898438 550.083007812 693.170898438 533.25 c 0
 693.170898438 516.416015625 691.836914062 498.666015625 689.170898438 480 c 0
281.668945312 94.0009765625 m 0
 291.3359375 87.333984375 303.170898438 84 317.170898438 84 c 0
 352.50390625 84 385.836914062 92.3330078125 417.169921875 109 c 0
 433.169921875 117 448.502929688 128.166992188 463.169921875 142.5 c 0
 477.836914062 156.833007812 490.50390625 173.333007812 501.170898438 192 c 0
 505.170898438 199.333007812 512.00390625 217.833007812 521.670898438 247.5 c 0
 531.337890625 277.166992188 541.504882812 312.666992188 552.171875 354 c 0
 555.504882812 366 558.504882812 378 561.171875 390 c 0
 567.838867188 418.666992188 573.171875 447.333984375 577.171875 476.000976562 c 0
 578.46484375 485.697265625 579.111328125 494.962890625 579.111328125 503.797851562 c 0
 579.111328125 531.407226562 572.797851562 554.80859375 560.170898438 574.000976562 c 0
 543.50390625 599.333984375 518.836914062 612.000976562 486.169921875 612.000976562 c 0
 453.502929688 612.000976562 423.8359375 600.66796875 397.168945312 578.000976562 c 0
 369.168945312 554.000976562 344.501953125 520.66796875 323.168945312 478.000976562 c 0
 299.8359375 430.000976562 281.168945312 374.66796875 267.168945312 312.000976562 c 0
 257.8359375 272.66796875 252.168945312 239.000976562 250.168945312 211.000976562 c 0
 249.502929688 202.66796875 249.168945312 194.375976562 249.168945312 186.125976562 c 0
 249.168945312 177.875976562 249.502929688 169.66796875 250.168945312 161.500976562 c 0
 251.501953125 145.16796875 254.668945312 131.500976562 259.668945312 120.500976562 c 0
 264.668945312 109.500976562 272.001953125 100.66796875 281.668945312 94.0009765625 c 0
EndSplineSet
EndChar

StartChar: P
Encoding: 80 80 55
Width: 670
GlyphClass: 2
Flags: HMW
HStem: -18.998 21G<146.756 162.757> 218 106.003<364.423 373.757 364.423 389.761> 605.003 105.999<456.424 515.425>
VStem: 110.422 120 239.423 0.999023
LayerCount: 2
Fore
SplineSet
282.423828125 334.002929688 m 1
 303.201171875 327.28125 327.8984375 323.919921875 356.517578125 323.919921875 c 0
 359.120117188 323.919921875 361.755859375 323.947265625 364.422851562 324.002929688 c 0
 383.08984375 324.002929688 400.58984375 325.3359375 416.922851562 328.002929688 c 0
 433.255859375 330.669921875 447.422851562 334.002929688 459.422851562 338.002929688 c 0
 471.422851562 342.002929688 482.422851562 347.3359375 492.422851562 354.002929688 c 0
 502.422851562 360.669921875 511.08984375 367.336914062 518.422851562 374.00390625 c 0
 525.755859375 380.670898438 532.422851562 388.50390625 538.422851562 397.50390625 c 0
 544.422851562 406.50390625 549.422851562 414.670898438 553.422851562 422.00390625 c 0
 557.422851562 429.336914062 561.08984375 438.169921875 564.422851562 448.502929688 c 0
 567.755859375 458.8359375 570.422851562 467.168945312 572.422851562 473.501953125 c 0
 574.422851562 479.834960938 576.422851562 488.001953125 578.422851562 498.001953125 c 0
 580.604492188 506.729492188 581.6953125 514.959960938 581.6953125 522.6953125 c 0
 581.6953125 529.141601562 580.9375 535.244140625 579.422851562 541.001953125 c 0
 576.08984375 553.668945312 570.756835938 563.8359375 563.423828125 571.502929688 c 0
 556.090820312 579.169921875 546.590820312 585.669921875 534.923828125 591.002929688 c 0
 523.256835938 596.3359375 511.756835938 600.002929688 500.423828125 602.002929688 c 0
 489.090820312 604.002929688 478.090820312 605.002929688 467.423828125 605.002929688 c 0
 445.423828125 605.002929688 405.756835938 603.002929688 348.423828125 599.002929688 c 1
 327.756835938 519.669921875 314.08984375 466.002929688 307.422851562 438.002929688 c 0
 298.08984375 400.669921875 289.756835938 366.002929688 282.423828125 334.002929688 c 1
241.427734375 109 m 0
 234.760742188 61 231.08984375 35.3359375 230.422851562 32.0029296875 c 0
 226.422851562 15.3359375 215.755859375 2.6689453125 198.422851562 -5.998046875 c 0
 184.422851562 -14.6650390625 170.08984375 -18.998046875 155.422851562 -18.998046875 c 0
 138.08984375 -18.998046875 125.08984375 -13.6650390625 116.422851562 -2.998046875 c 0
 111.380859375 3.4189453125 108.860351562 11.2529296875 108.860351562 20.505859375 c 0
 108.860351562 24.7109375 109.380859375 29.2099609375 110.422851562 34.0009765625 c 0
 111.08984375 36.66796875 112.08984375 41.0009765625 113.422851562 47.0009765625 c 0
 116.08984375 56.333984375 120.08984375 72.333984375 125.422851562 95.0009765625 c 0
 134.08984375 132.333984375 145.422851562 183.666992188 159.422851562 249 c 0
 182.755859375 359.666992188 196.422851562 425 200.422851562 445 c 0
 211.728515625 497.540039062 225.024414062 554.059570312 240.310546875 614.560546875 c 1
 239.0703125 609.7109375 238.774414062 610.524414062 239.422851562 617.001953125 c 1
 238.08984375 611.668945312 237.756835938 612.001953125 238.423828125 618.001953125 c 0
 235.090820312 626.668945312 234.423828125 635.3359375 236.423828125 644.002929688 c 0
 237.090820312 646.669921875 237.756835938 649.002929688 238.423828125 651.002929688 c 0
 242.423828125 661.002929688 248.7578125 670.002929688 257.424804688 678.002929688 c 0
 266.091796875 686.002929688 275.091796875 691.002929688 284.424804688 693.002929688 c 0
 308.424804688 698.3359375 343.424804688 703.002929688 389.424804688 707.002929688 c 0
 429.9765625 709.780273438 460.344726562 711.168945312 480.530273438 711.168945312 c 0
 484.569335938 711.168945312 488.201171875 711.11328125 491.424804688 711.001953125 c 0
 539.424804688 711.001953125 580.7578125 703.001953125 615.424804688 687.001953125 c 0
 646.091796875 670.334960938 667.924804688 645.16796875 680.924804688 611.500976562 c 0
 688.272460938 592.471679688 691.946289062 571.47265625 691.946289062 548.50390625 c 0
 691.946289062 530.834960938 689.772460938 512.000976562 685.424804688 492.000976562 c 0
 676.7578125 454.000976562 662.7578125 418.333984375 643.424804688 385.000976562 c 0
 624.091796875 351.66796875 601.258789062 322.66796875 574.92578125 298.000976562 c 0
 548.592773438 273.333984375 517.759765625 253.666992188 482.426757812 239 c 0
 446.426757812 225 409.09375 218 370.426757812 218 c 0
 325.09375 218 288.426757812 220.666992188 260.426757812 226 c 1
 253.09375 188 246.760742188 149 241.427734375 109 c 0
EndSplineSet
EndChar

StartChar: Q
Encoding: 81 81 56
Width: 670
GlyphClass: 2
Flags: HMW
HStem: -24.002 21G<301.287 326.287> 612.496 105.504
VStem: 313.952 104.002
LayerCount: 2
Fore
SplineSet
513.951171875 -204 m 0
 504.618164062 -209.333007812 495.2890625 -212.002929688 485.956054688 -212.002929688 c 0
 481.2890625 -212.002929688 476.622070312 -211.3359375 471.955078125 -210.002929688 c 0
 458.622070312 -206.002929688 448.955078125 -197.669921875 442.955078125 -185.002929688 c 0
 436.288085938 -171.669921875 425.62109375 -149.169921875 410.954101562 -117.502929688 c 0
 396.287109375 -85.8359375 382.287109375 -53.6689453125 368.954101562 -21.001953125 c 1
 352.954101562 -23.001953125 335.62109375 -24.001953125 316.954101562 -24.001953125 c 0
 285.62109375 -24.001953125 257.62109375 -19.001953125 232.954101562 -9.001953125 c 0
 208.287109375 0.998046875 188.954101562 14.3310546875 174.954101562 30.998046875 c 0
 160.954101562 48.3310546875 149.954101562 68.3310546875 141.954101562 90.998046875 c 0
 134.217773438 115.313476562 130.348632812 142.276367188 130.348632812 171.885742188 c 0
 130.348632812 195.85546875 132.883789062 221.559570312 137.954101562 248.998046875 c 0
 141.287109375 265.665039062 144.954101562 282.33203125 148.954101562 298.999023438 c 0
 172.954101562 403.666015625 205.954101562 491.333007812 247.954101562 562 c 0
 275.287109375 606.666992188 312.954101562 644 360.954101562 674 c 0
 412.287109375 703.333007812 465.620117188 718 520.953125 718 c 0
 579.620117188 718 624.953125 699.333007812 656.953125 662 c 0
 671.620117188 643.333007812 681.620117188 618.333007812 686.953125 587 c 0
 689.796875 570.290039062 691.219726562 552.252929688 691.219726562 532.888671875 c 0
 691.219726562 515.942382812 690.129882812 497.979492188 687.952148438 479 c 0
 683.28515625 443 675.28515625 401.333007812 663.952148438 354 c 0
 644.619140625 270 625.952148438 207 607.952148438 165 c 0
 579.28515625 97 538.618164062 47 485.951171875 15 c 1
 499.284179688 -14.3330078125 515.951171875 -48 535.951171875 -86 c 0
 547.319335938 -108.104492188 553.00390625 -120.038085938 553.00390625 -121.80078125 c 0
 553.00390625 -121.8984375 552.986328125 -121.96484375 552.951171875 -122 c 0
 555.034179688 -127 556.076171875 -132.130859375 556.076171875 -137.390625 c 0
 556.076171875 -140.546875 555.701171875 -143.75 554.951171875 -147 c 0
 554.284179688 -149 553.6171875 -151.333007812 552.950195312 -154 c 0
 548.950195312 -164 543.283203125 -173.666992188 535.950195312 -183 c 0
 528.6171875 -192.333007812 521.284179688 -199.333007812 513.951171875 -204 c 0
312.955078125 113.997070312 m 0
 311.76953125 121.704101562 311.17578125 129.08203125 311.17578125 136.130859375 c 0
 311.17578125 144.93359375 312.1015625 153.22265625 313.952148438 160.997070312 c 0
 318.619140625 182.330078125 330.286132812 198.997070312 348.953125 210.997070312 c 0
 360.286132812 218.330078125 371.286132812 222.330078125 381.953125 222.997070312 c 0
 390.620117188 222.997070312 398.287109375 219.997070312 404.954101562 213.997070312 c 0
 411.62109375 207.997070312 415.954101562 198.6640625 417.954101562 185.997070312 c 0
 421.954101562 157.330078125 429.62109375 125.663085938 440.954101562 90.99609375 c 1
 465.62109375 108.329101562 485.288085938 133.99609375 499.955078125 167.99609375 c 0
 503.955078125 177.329101562 510.622070312 196.99609375 519.955078125 226.99609375 c 0
 529.288085938 256.99609375 539.288085938 294.663085938 549.955078125 339.99609375 c 2
 553.955078125 355.99609375 l 2
 563.288085938 395.329101562 569.955078125 432.99609375 573.955078125 468.99609375 c 0
 575.008789062 479.08203125 575.536132812 488.692382812 575.536132812 497.827148438 c 0
 575.536132812 529.14453125 569.341796875 554.8671875 556.955078125 574.99609375 c 0
 541.821289062 600 518.081054688 612.502929688 485.735351562 612.502929688 c 0
 485.309570312 612.502929688 484.8828125 612.5 484.455078125 612.49609375 c 0
 451.455078125 612.163085938 421.288085938 600.330078125 393.955078125 576.997070312 c 0
 365.288085938 552.330078125 340.288085938 517.997070312 318.955078125 473.997070312 c 0
 294.955078125 421.997070312 276.622070312 367.997070312 263.955078125 311.997070312 c 0
 259.288085938 291.997070312 255.288085938 271.6640625 251.955078125 250.997070312 c 0
 248.682617188 230.997070312 247.045898438 212.137695312 247.045898438 194.41796875 c 0
 247.045898438 179.65234375 248.182617188 165.678710938 250.455078125 152.497070312 c 0
 255.455078125 123.497070312 265.622070312 100.6640625 280.955078125 83.9970703125 c 0
 293.622070312 70.6640625 308.622070312 62.9970703125 325.955078125 60.9970703125 c 1
 319.288085938 82.330078125 314.955078125 99.9970703125 312.955078125 113.997070312 c 0
EndSplineSet
EndChar

